<?xml version="1.0" encoding="UTF-8" standalone="no"?>
<!-- Created with Inkscape (http://www.inkscape.org/) -->

<svg
   version="1.1"
   id="svg2"
   width="636"
   height="717.33331"
   viewBox="0 0 636 717.33331"
   sodipodi:docname="img_avatar.svg"
   inkscape:version="1.2 (dc2aedaf03, 2022-05-15)"
   xmlns:inkscape="http://www.inkscape.org/namespaces/inkscape"
   xmlns:sodipodi="http://sodipodi.sourceforge.net/DTD/sodipodi-0.dtd"
   xmlns="http://www.w3.org/2000/svg"
   xmlns:svg="http://www.w3.org/2000/svg">
  <defs
     id="defs6" />
  <sodipodi:namedview
     id="namedview4"
     pagecolor="#ffffff"
     bordercolor="#999999"
     borderopacity="1"
     inkscape:showpageshadow="0"
     inkscape:pageopacity="0"
     inkscape:pagecheckerboard="0"
     inkscape:deskcolor="#d1d1d1"
     showgrid="false"
     inkscape:zoom="0.62244426"
     inkscape:cx="664.31652"
     inkscape:cy="396.0194"
     inkscape:window-width="1920"
     inkscape:window-height="1051"
     inkscape:window-x="-9"
     inkscape:window-y="1341"
     inkscape:window-maximized="1"
     inkscape:current-layer="g8" />
  <g
     inkscape:groupmode="layer"
     inkscape:label="Image"
     id="g8">
    <path
       style="fill:#000000;stroke-width:1.33333"
       d="m 304.69951,710.20803 c -49.65602,-3.68605 -97.58526,-18.94925 -140.50532,-44.74433 -22.77687,-13.68896 -42.2928,-29.14323 -63.23247,-50.07251 l -17.071125,-17.06265 2.26735,-4.40467 c 4.03894,-7.84622 14.693405,-22.82233 23.772765,-33.41541 20.43566,-23.84269 50.72858,-43.88268 82.34688,-54.47578 13.29149,-4.45306 35.66545,-9.1791 43.4692,-9.18195 l 4.95272,-10e-4 -0.43767,7.00628 c -1.42963,22.8859 21.45856,45.00685 56.43767,54.54578 15.44114,4.21086 49.81554,4.22208 65.33334,0.0213 34.632,-9.37503 57.8579,-31.83115 56.4377,-54.56712 -0.4267,-6.83084 -0.3476,-7.00623 3.1613,-7.00446 1.9794,10e-4 9.9593,1.22923 17.733,2.7294 49.8227,9.6148 94.4354,39.35139 122.9299,81.93908 2.944,4.4 6.3949,10.02761 7.6688,12.50583 l 2.3162,4.50581 -19.1235,18.83032 c -21.245,20.91939 -37.2546,33.51736 -60.7316,47.78976 -55.108,33.50193 -123.2057,49.84649 -187.72514,45.0571 z m 2.66666,-248.54756 c -16.37036,-2.73659 -37.45982,-8.65816 -50,-14.03918 -33.35368,-14.31214 -60.10522,-44.55588 -72.76237,-82.26086 -6.35333,-18.92627 -6.95568,-25.68259 -7.44476,-83.5056 -0.25275,-29.88209 -0.85084,-54.33209 -1.32909,-54.33333 -2.65183,-0.007 -4.13808,-11.07192 -4.74628,-35.33561 -1.21855,-48.61218 5.60484,-81.08563 22.58328,-107.47705 15.15444,-23.55617 46.08917,-45.09711 74.36589,-51.78358 6.23333,-1.47397 23.94848,-4.1732 39.367,-5.99829 32.42501,-3.838145 44.30091,-6.123318 55.86431,-10.749402 7.9835,-3.193879 16.7862,-4.415568 16.7526,-2.325012 -0.01,0.55 -1.474,3.55 -3.256,6.666667 -1.782,3.116666 -2.8247,5.664817 -2.3173,5.662557 0.5075,-0.002 5.0883,-2.102259 10.1796,-4.666666 5.0913,-2.564407 10.0059,-4.662558 10.9213,-4.662558 2.8057,0 3.4925,2.633341 1.7708,6.789895 -0.9027,2.179249 -1.3423,4.261279 -0.9768,4.626719 0.3654,0.36544 5.8927,-1.22735 12.2827,-3.53953 14.1802,-5.131009 15.8424,-4.414539 12.3793,5.33603 -4.0089,11.28731 -3.6226,12.20645 9.3658,22.28597 15.5951,12.10231 27.4288,23.52445 32.4028,31.27586 5.9384,9.2542 12.835,26.64332 15.216,38.36592 4.3506,21.41966 6.2154,64.86287 3.3851,78.85913 -0.6673,3.3 -1.5817,34.8 -2.0319,70 -0.4502,35.2 -1.4161,67.51409 -2.1464,71.80911 -7.0883,41.68557 -33.309,80.97746 -66.6915,99.93766 -26.8692,15.26081 -73.8861,23.95045 -103.13408,19.06115 z m 1.41722,-39.6388 c 5.13926,-5.46482 10.96376,-7.83579 19.24946,-7.83579 8.072,0 13.736,2.23113 19.9068,7.84175 8.2313,7.48396 20.2013,4.36178 31.5131,-8.21966 16.8126,-18.6997 17.906,-38.8976 2.982,-55.08818 -6.3642,-6.90441 -12.4446,-8.53391 -31.8437,-8.53391 -8.7626,0 -14.9316,-0.67732 -18.055,-1.98236 -3.7846,-1.5813 -5.327,-1.65906 -7.6238,-0.3844 -1.6043,0.89031 -11.1459,1.9637 -21.54608,2.42384 -20.6486,0.91358 -24.21233,2.03626 -30.99872,9.76554 -5.05245,5.75441 -9.66828,17.80022 -9.66689,25.22739 0.003,11.87095 13.69044,32.21532 25.66252,38.1414 8.54937,4.23187 15.60627,3.76339 20.42031,-1.35562 z m -18.28888,-31.50246 c -4.97902,-5.4164 -8.60771,-12.09312 -11.0012,-20.24199 -2.60655,-8.87422 -2.60622,-8.75511 -0.0319,-11.32943 2.91425,-2.91427 8.56955,-2.75729 8.57805,0.23809 0.004,1.28334 1.44676,4.13334 3.20695,6.33334 l 3.20032,4 h 34.90852 34.9085 l 3.2179,-3.74102 c 1.7698,-2.05756 3.2179,-4.90756 3.2179,-6.33333 0,-3.51041 4.7988,-3.41576 6.6975,0.13213 2.8314,5.29055 -4.7072,24.49632 -12.456,31.7336 l -3.3455,3.12469 -3.7814,-2.74348 c -6.3439,-4.60273 -15.2805,-6.30924 -22.8632,-4.36586 -5.0574,1.29617 -7.8883,1.32072 -12.6962,0.11013 -7.9567,-2.00352 -16.75033,-0.66291 -22.86349,3.4856 -2.6456,1.79536 -4.97128,3.26428 -5.16818,3.26428 -0.1969,0 -1.87476,-1.65 -3.72858,-3.66667 z m -43.52136,-18.66666 c 1.11114,-1.28333 3.64698,-6.65817 5.63518,-11.94409 1.9882,-5.28592 4.94219,-11.58592 6.5644,-14 3.57666,-5.32252 14.80707,-12.26986 24.29126,-15.02698 8.75949,-2.54645 32.57656,-2.62286 39.57056,-0.12693 4.2538,1.51804 5.8488,1.48981 10.6667,-0.18875 4.1871,-1.4588 9.839,-1.83589 21.6649,-1.44548 13.9644,0.461 17.0107,0.99323 23.9438,4.18331 12.4315,5.72005 16.5865,9.56991 20.942,19.4042 9.4095,21.24598 9.0385,20.7644 16.3567,21.22769 13.9371,0.88231 38.3602,-16.16582 44.8582,-31.31253 6.1018,-14.22321 7.9443,-26.32329 9.2247,-60.57999 0.7152,-19.13409 2.0643,-36.82863 3.2368,-42.45195 1.7438,-8.36327 1.7586,-10.02683 0.1119,-12.54019 -2.594,-3.95887 -5.4718,-17.41601 -7.3134,-34.19829 -2.1996,-20.0452 -4.9282,-31.12887 -10.7519,-43.67457 -6.4348,-13.86219 -12.3452,-21.07989 -25.9814,-31.7278 -9.9738,-7.78809 -15.237,-12.958 -24.9896,-24.54655 -3.49,-4.14696 -4.0465,-4.34295 -10,-3.52164 -18.3261,2.52814 -42.313,3.40405 -92.30444,3.37058 l -55.33334,-0.037 -19.68142,20.79776 c -15.24003,16.10444 -20.75447,22.92856 -24.43652,30.24014 -6.899,13.69956 -14.67142,38.31528 -17.18707,54.43244 -3.42572,21.94777 -4.78025,28 -6.2666,28 -0.77784,0 -0.97692,1.01848 -0.45608,2.33333 3.11771,7.87067 4.96409,24.35976 6.00159,53.59712 1.27729,35.99485 3.98192,51.37314 11.31926,64.36053 10.20792,18.06839 42.5274,34.36866 50.31382,25.37568 z m 5.72636,-93.53713 c -4.70763,-2.06766 -8.86646,-7.72387 -9.55739,-12.99848 -0.76923,-5.87244 3.2644,-13.17297 8.93075,-16.16385 5.19269,-2.74088 13.0699,-1.13932 17.83546,3.62624 3.50206,3.50206 4.12451,5.12286 4.12451,10.73989 0,5.61702 -0.62245,7.23782 -4.12451,10.73989 -4.40237,4.40237 -12.22354,6.24591 -17.20882,4.05631 z m 114.65874,-4.14235 c -1.6943,-2.74147 5.2988,-12.51836 11.8488,-16.56548 5.1884,-3.20585 8.3689,-4.12606 15.6907,-4.53978 12.4331,-0.70254 22.9898,3.90284 28.6108,12.48156 3.5095,5.35619 0.9997,6.26186 -6.5462,2.36217 -5.7673,-2.98055 -8.7184,-3.59327 -17.5962,-3.6534 -11.5368,-0.0781 -19.2577,2.22924 -26.918,8.0444 -2.5646,1.94689 -4.584,2.68902 -5.0899,1.87053 z M 212.29951,229.91922 c -2.90958,-2.90957 -1.67574,-5.96425 4.88961,-12.10536 12.95904,-12.12167 28.35003,-17.47683 50.17705,-17.45867 16.19095,0.0135 22.37606,1.8231 23.08091,6.75298 0.64219,4.4915 -3.11331,5.54294 -14.14951,3.96148 -19.06906,-2.73255 -39.22124,2.70317 -51.44722,13.87704 -7.41826,6.77986 -9.79991,7.72346 -12.55084,4.97253 z m 218.75214,-5.01464 c -11.8174,-11.02497 -33.0589,-16.66795 -51.9632,-13.80444 -10.3052,1.56099 -11.9467,1.24629 -13.1419,-2.51944 -1.3294,-4.18857 2.1053,-6.40605 12.2039,-7.87903 10.4698,-1.5271 23.1719,-0.64834 33.8127,2.33926 19.7792,5.55338 37.3481,20.11824 32.0166,26.54228 -2.6679,3.21464 -5.6078,2.15068 -12.9281,-4.67863 z"
       id="path116" />
  </g>
</svg>
