<?xml version="1.0" encoding="UTF-8" standalone="no"?>
<!-- Created with Inkscape (http://www.inkscape.org/) -->

<svg
        width="23.711426mm"
        height="29.835205mm"
        viewBox="0 0 23.711426 29.835206"
        version="1.1"
        id="svg5"
        inkscape:version="1.2 (dc2aedaf03, 2022-05-15)"
        sodipodi:docname="pizza.svg"
        xmlns:inkscape="http://www.inkscape.org/namespaces/inkscape"
        xmlns:sodipodi="http://sodipodi.sourceforge.net/DTD/sodipodi-0.dtd"
        xmlns="http://www.w3.org/2000/svg"
        xmlns:svg="http://www.w3.org/2000/svg">
    <sodipodi:namedview
            id="namedview7"
            pagecolor="#ffffff"
            bordercolor="#000000"
            borderopacity="0.25"
            inkscape:showpageshadow="2"
            inkscape:pageopacity="0.0"
            inkscape:pagecheckerboard="0"
            inkscape:deskcolor="#d1d1d1"
            inkscape:document-units="mm"
            showgrid="false"
            inkscape:zoom="3.2177609"
            inkscape:cx="-128.66089"
            inkscape:cy="12.741779"
            inkscape:window-width="2560"
            inkscape:window-height="1057"
            inkscape:window-x="-8"
            inkscape:window-y="-8"
            inkscape:window-maximized="1"
            inkscape:current-layer="layer1">
        <inkscape:page
                x="0"
                y="0"
                width="23.711426"
                height="29.835207"
                id="page1107" />
        <inkscape:page
                x="56.572653"
                y="26.280412"
                width="0.348855"
                height="0.058142504"
                id="page1109" />
    </sodipodi:namedview>
    <defs
            id="defs2" />
    <g
            inkscape:label="Livello 1"
            inkscape:groupmode="layer"
            id="layer1"
            transform="translate(0,-0.116285)">
        <text
                xml:space="preserve"
                style="font-weight:bold;font-size:5.64444px;font-family:Consolas;-inkscape-font-specification:'Consolas Bold';fill:#000080;stroke:#ffffff;stroke-width:0.264999;stroke-opacity:0"
                x="3.8374047"
                y="29.594534"
                id="text707"><tspan
         sodipodi:role="line"
         id="tspan705"
         x="3.8374047"
         y="29.594534"
         style="font-style:normal;font-variant:normal;font-weight:bold;font-stretch:normal;font-size:5.64444px;font-family:'Gemini Moon';-inkscape-font-specification:'Gemini Moon Bold';fill:#000000;stroke-width:0.265">PIZZA</tspan></text>
        <path
                d="M 19.642672,9.5016367 C 21.437208,14.446593 18.883265,19.910027 13.938308,21.704563 8.9933516,23.4991 3.529891,20.945156 1.7353757,16.000199 -0.05915016,11.055217 2.4947881,5.5917828 7.4397447,3.7972728 9.7224372,2.9688624 12.235344,3.0436336 14.464776,4.0062407 L 14.87488,3.0272824 C 9.5061932,0.7161681 3.2804683,3.194843 0.96934874,8.5635299 -1.3417655,13.932243 1.1368961,20.157941 6.5056068,22.46905 11.874293,24.780186 18.100019,22.301516 20.411128,16.932803 c 1.068943,-2.483114 1.147101,-5.281162 0.21844,-7.8201043 z"
                fill="#c00000"
                id="path914"
                style="stroke-width:0.264583" />
        <path
                d="m 19.600338,4.3581365 v 0 0 c -0.92784,-0.9491398 -2.034936,-1.7045781 -3.25702,-2.2225 v 0 L 12.512151,11.32197 21.772568,7.652199 v 0 C 21.275177,6.4204313 20.536646,5.3004765 19.600338,4.3581365 Z m -3.09827,0.492125 c -0.324856,-0.3403864 -0.312262,-0.8796602 0.02812,-1.2045156 0.340413,-0.3248554 0.879687,-0.3122612 1.204542,0.028125 0.321125,0.3364971 0.313002,0.8683625 -0.01823,1.1949113 -0.339222,0.3302529 -0.881962,0.3230033 -1.212215,-0.016246 -7.41e-4,-7.408e-4 -0.0015,-0.00151 -0.0022,-0.00228 z m -2.54,4.4661662 0.706437,-1.6880412 c 0.492707,0.1316038 0.785442,0.6376988 0.653838,1.1304059 -0.131603,0.4927073 -0.637698,0.7854423 -1.130405,0.6538383 -0.08062,-0.02154 -0.15793,-0.0539 -0.22987,-0.0962 z m 3.677708,-1.484312 c -0.324855,-0.3403865 -0.312261,-0.8796602 0.02812,-1.2045156 0.340413,-0.3248554 0.879687,-0.3122613 1.204542,0.028125 0.321125,0.3364971 0.313002,0.8683625 -0.01823,1.1949112 -0.340703,0.3296444 -0.883946,0.3213629 -1.214437,-0.018521 z"
                fill="#c00000"
                id="path916"
                style="stroke-width:0.264583" />
        <path
                d="m 23.57438,7.1177407 c 0.05808,-0.1379008 0.05808,-0.29337 0,-0.4312708 -0.571368,-1.4238552 -1.421421,-2.7192023 -2.500312,-3.81 -1.070266,-1.0906152 -2.343997,-1.9607557 -3.749146,-2.5611667 -0.138774,-0.058211 -0.295143,-0.058211 -0.433917,0 -0.136869,0.053785 -0.245189,0.1621049 -0.298979,0.2989792 -0.11557,0.2871284 0.01963,0.6139682 0.304271,0.7355416 2.563574,1.0968302 4.590732,3.1610565 5.640916,5.7441042 0.02754,0.070168 0.06892,0.1340379 0.121709,0.1878542 v 0 c 0.1583,0.1597025 0.396108,0.2105818 0.605896,0.1296458 0.137848,-0.053287 0.249105,-0.1588294 0.309562,-0.2936875 z"
                fill="#c00000"
                id="path918"
                style="stroke-width:0.264583" />
        <path
                d="M 18.679588,9.9567195 10.689172,13.13172 14.083776,4.9931365 14.044086,4.9772615 C 13.009038,4.5253797 11.892629,4.2895036 10.763255,4.2840532 h -0.07408 c -4.6413238,0.014129 -8.4117421,3.7515535 -8.4666696,8.3925838 -0.039635,4.675054 3.7175281,8.497357 8.3925826,8.538103 h 0.07673 c 4.676007,-0.003 8.464179,-3.796189 8.461137,-8.472195 -6.09e-4,-0.948558 -0.160629,-1.89029 -0.473367,-2.7858255 z M 9.9139432,5.2974074 c 0.4383878,-0.44196 1.1520218,-0.4448705 1.5939818,-0.00648 0.44196,0.4383881 0.44487,1.1520223 0.0065,1.5939823 -0.438361,0.44196 -1.152022,0.4448704 -1.5939818,0.00648 -0.0022,-0.00214 -0.0043,-0.00431 -0.0065,-0.00648 -0.438388,-0.4336786 -0.442172,-1.1406188 -0.0085,-1.5790069 0.0028,-0.00286 0.0056,-0.00569 0.0085,-0.00849 z M 5.6038804,14.266783 c -0.3797036,0.432779 -1.0383309,0.4758 -1.4711098,0.0961 -0.041963,-0.03678 -0.080857,-0.07689 -0.1163902,-0.119909 -0.4207669,-0.444791 -0.4012671,-1.146439 0.043524,-1.567206 0.4447646,-0.420741 1.1464396,-0.401267 1.56718,0.04352 0.4131998,0.436774 0.4028811,1.123315 -0.023204,1.547495 z M 6.783922,9.2396987 c -0.3353593,0.340387 -0.8831527,0.344435 -1.2235391,0.0091 -0.34036,-0.3353594 -0.3444346,-0.8831527 -0.00908,-1.2235392 0.3353593,-0.3403864 0.8831527,-0.3444346 1.2235127,-0.00908 0.00307,0.00299 0.00609,0.00603 0.0091,0.00908 0.3277394,0.334354 0.3277394,0.8695002 0,1.2038542 z M 8.5486929,19.30974 c -0.3353594,0.340386 -0.8831527,0.344435 -1.2235392,0.0091 -0.34036,-0.335333 -0.3444346,-0.883126 -0.00908,-1.223513 0.3353594,-0.340386 0.8831527,-0.344434 1.2235127,-0.0091 0.00307,0.003 0.00609,0.0061 0.0091,0.0091 0.3277393,0.334354 0.3277393,0.869501 0,1.203855 z M 9.117547,14.811824 c -0.3353593,0.340386 -0.8831527,0.344434 -1.2235391,0.0091 -0.34036,-0.335359 -0.3444346,-0.883153 -0.00908,-1.223539 0.3353593,-0.340387 0.8831527,-0.344435 1.2235127,-0.0091 0.00307,0.003 0.00609,0.0061 0.0091,0.0091 0.3312056,0.335015 0.3312056,0.87413 0,1.209146 z m 0.6667502,-3.439583 c -0.330306,-0.335095 -0.326443,-0.874501 0.0087,-1.204833 0.3350938,-0.3303065 0.8745268,-0.3264175 1.2048328,0.0087 0.09591,0.09731 0.167031,0.216271 0.207327,0.346842 l -0.418041,1.010709 c -0.335386,0.168434 -0.741283,0.09991 -1.0027708,-0.169334 z m 2.8760208,3.042708 c 0.335359,-0.340386 0.883152,-0.344434 1.223539,-0.0091 0.34036,0.335359 0.344434,0.883151 0.0091,1.223538 -0.335359,0.340386 -0.883153,0.344434 -1.223513,0.0091 -0.0031,-0.003 -0.0061,-0.0061 -0.0091,-0.0091 -0.337556,-0.331973 -0.342054,-0.874738 -0.01008,-1.212294 0.0033,-0.0034 0.0067,-0.0067 0.01008,-0.01008 z m 1.627187,5.228166 c -0.438388,0.44196 -1.152022,0.44487 -1.593982,0.0065 -0.44196,-0.438388 -0.444871,-1.152022 -0.0065,-1.593982 0.438361,-0.44196 1.152022,-0.444844 1.593982,-0.0065 0.0022,0.0021 0.0043,0.0043 0.0065,0.0065 0.436192,0.435901 0.43643,1.142841 5.29e-4,1.579033 -1.85e-4,1.86e-4 -3.44e-4,3.44e-4 -5.29e-4,5.29e-4 z m 3.828521,-5.291666 c -0.335359,0.340387 -0.883153,0.344435 -1.223539,0.0091 -0.34036,-0.335359 -0.344435,-0.883153 -0.0091,-1.223539 0.335359,-0.340387 0.883152,-0.344435 1.223512,-0.0091 0.0031,0.003 0.0061,0.0061 0.0091,0.0091 0.3361,0.333454 0.338217,0.876247 0.0048,1.212321 -0.0016,0.0016 -0.0032,0.0032 -0.0048,0.0048 z"
                fill="#c00000"
                id="path920"
                style="stroke-width:0.264583" />
    </g>
</svg>
