<?xml version="1.0" encoding="UTF-8" standalone="no"?>
<!-- Created with Inkscape (http://www.inkscape.org/) -->

<svg
        width="33.290737mm"
        height="29.999657mm"
        viewBox="0 0 33.290738 29.999658"
        version="1.1"
        id="svg5"
        inkscape:version="1.2 (dc2aedaf03, 2022-05-15)"
        sodipodi:docname="restaurant.svg"
        xmlns:inkscape="http://www.inkscape.org/namespaces/inkscape"
        xmlns:sodipodi="http://sodipodi.sourceforge.net/DTD/sodipodi-0.dtd"
        xmlns="http://www.w3.org/2000/svg"
        xmlns:svg="http://www.w3.org/2000/svg">
    <sodipodi:namedview
            id="namedview7"
            pagecolor="#ffffff"
            bordercolor="#000000"
            borderopacity="0.25"
            inkscape:showpageshadow="2"
            inkscape:pageopacity="0.0"
            inkscape:pagecheckerboard="0"
            inkscape:deskcolor="#d1d1d1"
            inkscape:document-units="mm"
            showgrid="false"
            inkscape:zoom="6.4355218"
            inkscape:cx="48.32553"
            inkscape:cy="59.513434"
            inkscape:window-width="2560"
            inkscape:window-height="1057"
            inkscape:window-x="-8"
            inkscape:window-y="-8"
            inkscape:window-maximized="1"
            inkscape:current-layer="layer1">
        <inkscape:page
                x="0"
                y="0"
                width="33.290737"
                height="29.999659"
                id="page1107" />
        <inkscape:page
                x="56.61377"
                y="26.280413"
                width="0.34885406"
                height="0.058141708"
                id="page1109" />
    </sodipodi:namedview>
    <defs
            id="defs2" />
    <g
            inkscape:label="Livello 1"
            inkscape:groupmode="layer"
            id="layer1"
            transform="translate(0.04111296,-0.116285)">
        <text
                xml:space="preserve"
                style="font-weight:bold;font-size:5.64444px;font-family:Consolas;-inkscape-font-specification:'Consolas Bold';fill:#000080;stroke:#ffffff;stroke-width:0.264999;stroke-opacity:0"
                x="1.7817569"
                y="29.308041"
                id="text707"><tspan
         sodipodi:role="line"
         id="tspan705"
         x="1.7817569"
         y="29.308041"
         style="font-style:normal;font-variant:normal;font-weight:bold;font-stretch:normal;font-size:5.64444px;font-family:'Gemini Moon';-inkscape-font-specification:'Gemini Moon Bold';fill:#000000;stroke-width:0.265">RESTAURANT</tspan></text>
        <path
                d="m 27.867451,4.2602317 c -0.79375,0 -1.42875,1.4419791 -1.42875,2.6458333 0,0.732896 0.238125,1.217083 0.600604,1.476375 0.192061,0.120676 0.3311,0.309827 0.388938,0.529167 l -0.166688,5.659437 c 0.02225,0.33827 0.31451,0.594466 0.65278,0.572241 0.307287,-0.02021 0.552027,-0.264954 0.572241,-0.572241 L 28.319888,8.911607 C 28.378388,8.691844 28.518405,8.502614 28.711472,8.38244 29.071305,8.117857 29.30943,7.638961 29.30943,6.906065 29.29356,5.7022108 28.658555,4.2602317 27.867451,4.2602317 Z"
                fill="#c00000"
                id="path1165"
                style="stroke-width:0.264583" />
        <path
                d="M 8.4258672,4.2602317 H 8.1612838 V 7.170648 c 0,0.08475 -0.068712,0.153459 -0.1534583,0.153459 -0.084746,0 -0.1534583,-0.06871 -0.1534583,-0.153459 V 4.2602317 H 7.4548463 V 7.170648 c 0,0.08475 -0.068712,0.153459 -0.1534583,0.153459 -0.084754,0 -0.1534583,-0.06871 -0.1534583,-0.153459 V 4.2602317 H 6.7404713 V 7.170648 c 0,0.08475 -0.068707,0.153459 -0.1534584,0.153459 -0.084754,0 -0.1534583,-0.06871 -0.1534583,-0.153459 V 4.2602317 H 6.1689712 C 5.9882793,5.1313194 5.8855681,6.0167475 5.8620546,6.906065 c 0,0.735542 0.238125,1.219729 0.5979583,1.479021 0.1925161,0.120782 0.3323591,0.309748 0.3915834,0.529166 l -0.1561041,5.654146 c 0,0.339011 0.2748227,0.613834 0.6138333,0.613834 0.3390106,0 0.6138333,-0.274823 0.6138333,-0.613834 L 7.7564713,8.903669 C 7.8150501,8.684674 7.9539034,8.495761 8.1454088,8.374502 8.507888,8.109919 8.746013,7.631023 8.746013,6.895482 8.7048438,6.0103446 8.5978463,5.1294937 8.4258672,4.2602317 Z"
                fill="#c00000"
                id="path1167"
                style="stroke-width:0.264583" />
        <path
                d="M 25.716388,9.337586 V 3.2124817 c 0.0044,-0.2527565 -0.196955,-0.4612217 -0.449712,-0.4656138 -0.0035,-5.29e-5 -0.0071,-7.94e-5 -0.01066,-5.29e-5 0,0 -0.79375,0.029104 -0.923395,2.2595417 L 24.105079,8.967169 c 0,0.201083 0.470958,0.362479 0.648229,0.428625 l -0.232833,5.098521 c 0.02355,0.379201 0.350044,0.667491 0.729244,0.643943 0.34634,-0.02151 0.622433,-0.297603 0.643943,-0.643943 z"
                fill="#c00000"
                id="path1169"
                style="stroke-width:0.264583" />
        <path
                d="m 16.299868,1.6884817 c -3.945387,0 -7.1437508,3.1983627 -7.1437508,7.1437503 0,3.945387 3.1983638,7.14375 7.1437508,7.14375 3.945387,0 7.14375,-3.198363 7.14375,-7.14375 0,-3.9453876 -3.198363,-7.1437503 -7.14375,-7.1437503 z m 0,12.7000003 c -3.068637,0 -5.556251,-2.487613 -5.556251,-5.55625 0,-3.0686378 2.487614,-5.5562503 5.556251,-5.5562503 3.068637,0 5.55625,2.4876125 5.55625,5.5562503 0,3.068637 -2.487613,5.55625 -5.55625,5.55625 z"
                fill="#c00000"
                id="path1171"
                style="stroke-width:0.264583" />
        <circle
                cx="16.299868"
                cy="8.8322315"
                r="4.7624998"
                fill="#c00000"
                id="circle1173"
                style="stroke-width:0.264583" />
    </g>
</svg>
