<?xml version="1.0" encoding="UTF-8" standalone="no"?>
<!-- Created with Inkscape (http://www.inkscape.org/) -->

<svg
   width="124.7505mm"
   height="122.19063mm"
   viewBox="0 0 124.7505 122.19063"
   version="1.1"
   id="svg5"
   xml:space="preserve"
   inkscape:version="1.2 (dc2aedaf03, 2022-05-15)"
   sodipodi:docname="create.svg"
   xmlns:inkscape="http://www.inkscape.org/namespaces/inkscape"
   xmlns:sodipodi="http://sodipodi.sourceforge.net/DTD/sodipodi-0.dtd"
   xmlns="http://www.w3.org/2000/svg"
   xmlns:svg="http://www.w3.org/2000/svg"><sodipodi:namedview
     id="namedview7"
     pagecolor="#ffffff"
     bordercolor="#000000"
     borderopacity="0.25"
     inkscape:showpageshadow="2"
     inkscape:pageopacity="0.0"
     inkscape:pagecheckerboard="0"
     inkscape:deskcolor="#d1d1d1"
     inkscape:document-units="mm"
     showgrid="false"
     inkscape:zoom="1.104894"
     inkscape:cx="293.24079"
     inkscape:cy="360.21554"
     inkscape:window-width="2560"
     inkscape:window-height="1057"
     inkscape:window-x="-8"
     inkscape:window-y="-8"
     inkscape:window-maximized="1"
     inkscape:current-layer="layer1"><inkscape:page
       x="0"
       y="0"
       width="124.7505"
       height="122.19063"
       id="page504" /><inkscape:page
       x="230.84416"
       y="67.050172"
       width="0"
       height="0"
       id="page506" /></sodipodi:namedview><defs
     id="defs2" /><g
     inkscape:label="Livello 1"
     inkscape:groupmode="layer"
     id="layer1"><path
       style="fill:#ffffff;stroke-width:0.264583"
       d="m 6.3167962,119.97435 c -1.59683,-0.56378 -3.51177,-2.52218 -4.07098,-4.16337 -0.24261,-0.71203 -0.44111,-1.94141 -0.44111,-2.73196 0,-1.43554 7.81637,-34.0436 8.6388398,-36.0392 0.24208,-0.58737 3.52192,-4.07274 8.96828,-9.53027 4.72265,-4.73232 8.58663,-8.73076 8.58663,-8.8854 0,-0.15465 -0.45022,-0.64298 -1.00048,-1.08518 -1.40499,-1.12908 -3.82076,-4.14928 -5.33759,-6.67304 -1.58564,-2.63825 -2.77667,-5.85026 -3.60315,-9.7171 -0.73499,-3.43872 -1.19783,-4.90305 -2.26097,-7.15314 -1.59976,-3.385824 -3.70988,-5.356464 -6.8478098,-6.395164 -3.0683,-1.01566 -5.49299,-3.32881 -6.61747,-6.31309 -0.8324,-2.20909 -0.66616,-5.694238 0.36749,-7.704613 1.5264,-2.968727 4.60335,-5.0683373 8.2767698,-5.6477923 2.36443,-0.372972 13.34136,-0.108579 18.08154,0.435516 14.79448,1.6981663 26.049496,5.8309663 33.616816,12.3439493 l 1.75467,1.51019 8.04498,-8.066575 c 8.26987,-8.2920733 9.88253,-9.6819063 13.07207,-11.2658193 3.81198,-1.89302301 6.89686,-2.58450001 11.49182,-2.57590301 8.611568,0.01611 16.080648,4.09058901 20.895038,11.39850031 2.93954,4.462007 4.1372,8.977397 3.92279,14.789517 -0.18668,5.060554 -1.26884,8.487184 -4.09432,12.964584 -0.55603,0.88112 -5.57016,6.12077 -12.70981,13.28147 l -11.791498,11.82625 2.79017,2.99041 c 1.53459,1.64473 7.698388,8.22916 13.697318,14.63208 7.86317,8.39269 11.08387,12.01086 11.54034,12.96458 0.83433,1.74317 0.87311,4.48254 0.088,6.21771 -0.38301,0.84652 -2.26794,2.92648 -6.52209,7.19693 -6.72449,6.75025 -7.33954,7.17583 -10.39246,7.19097 -2.60241,0.0129 -3.66955,-0.64 -8.572928,-5.24516 -2.34134,-2.19894 -8.94057,-8.38751 -14.66494,-13.75237 l -10.40795,-9.7543 -2.68772,2.6179 c -1.47825,1.43985 -6.94129,6.84462 -12.14009,12.01061 -5.93153,5.8941 -9.874066,9.6093 -10.584526,9.97419 -0.62799,0.32253 -8.63355,2.41392 -17.97706,4.69635 -17.8177398,4.35252 -18.7051998,4.5063 -21.1086398,3.65774 z m 13.8663898,-9.59133 c 5.91029,-1.45207 12.55711,-3.07367 14.77072,-3.60355 2.21362,-0.52988 4.11133,-1.0417 4.21715,-1.13737 0.10582,-0.0957 -4.91916,-5.28448 -11.16662,-11.53067 -7.54797,-7.54644 -11.40533,-11.22798 -11.49704,-10.97302 -0.14402,0.40042 -7.2943598,29.59003 -7.2943598,29.77757 0,0.16734 -0.34439,0.24686 10.9701498,-2.53296 z m 89.387814,-7.098 4.97046,-4.97563 -16.064588,-17.18322 c -8.83552,-9.45077 -19.09976,-20.42768 -22.80943,-24.39312 -3.70966,-3.96544 -6.81564,-7.20989 -6.90218,-7.20989 -0.0865,0 -3.07212,2.91661 -6.63464,6.48135 l -6.4773,6.48136 1.05537,1.05528 c 1.80099,1.80083 47.614058,44.68317 47.756938,44.70186 0.0742,0.01 2.37162,-2.22139 5.10537,-4.95799 z m -53.945358,-11.84697 12.35466,-12.19239 -8.38993,-7.8498 c -7.90063,-7.392 -8.44756,-7.84979 -9.37836,-7.84979 -2.333876,0 -6.955816,-1.11452 -10.669496,-2.57281 -2.27454,-0.89317 -2.36028,-0.9064 -2.79347,-0.43109 -0.2458,0.2697 -4.48371,4.57219 -9.41759,9.56109 l -8.97067,9.07072 12.29251,12.29464 c 6.76088,6.76206 12.36568,12.26476 12.4551,12.22824 0.0894,-0.0365 5.722186,-5.55299 12.517246,-12.25881 z m 39.44519,-39.26957 9.522758,-9.52552 -12.500548,-12.500544 -12.50055,-12.50054 -6.62394,6.62394 -6.62395,6.62394 1.07609,2.296304 c 1.33572,2.85037 2.01382,5.45453 2.41299,9.26678 l 0.30905,2.95157 7.569,8.12118 c 4.16295,4.46665 7.62915,8.13181 7.70267,8.14479 0.0735,0.013 4.41891,-4.26287 9.65643,-9.5019 z m -35.5227,1.1269 c 6.65797,-6.65428 6.81489,-6.83569 6.81489,-7.8783 0,-1.65039 -0.50576,-5.37939 -0.96822,-7.13872 -0.60044,-2.28425 -2.47774,-6.072 -4.01006,-8.090934 -7.1339,-9.39942 -23.061056,-14.813647 -43.837336,-14.901943 -5.88962,-0.02503 -6.11649,-0.0065 -7.05135,0.574804 -1.0573898,0.657538 -1.2830198,1.04168 -1.2830198,2.184349 0,1.13083 0.9819398,2.04445 2.9634198,2.75725 3.66299,1.31768 6.21101,3.37252 8.56049,6.90357 2.37343,3.56705 3.36954,6.193784 4.96262,13.086454 2.55097,11.03705 12.19114,18.01421 26.638676,19.27997 0.21725,0.019 3.4617,-3.03039 7.20989,-6.7765 z M 112.61033,33.35369 c 1.36025,-2.756024 1.8979,-4.996944 1.90295,-7.931444 0.0168,-9.795932 -7.89936,-17.7032503 -17.723168,-17.7032503 -4.73309,0 -8.66887,1.632397 -12.36009,5.1264443 l -2.2293,2.110221 12.52022,12.535245 12.520208,12.535264 2.13697,-2.2267 c 1.59281,-1.65969 2.41587,-2.79177 3.23221,-4.44578 z"
       id="path302" /></g></svg>
