<?xml version="1.0" encoding="UTF-8" standalone="no"?>
<!-- Created with Inkscape (http://www.inkscape.org/) -->

<svg
        width="145.17708mm"
        height="34.004162mm"
        viewBox="0 0 145.17708 34.004161"
        version="1.1"
        id="svg5"
        inkscape:version="1.2 (dc2aedaf03, 2022-05-15)"
        sodipodi:docname="disegno.svg"
        xmlns:inkscape="http://www.inkscape.org/namespaces/inkscape"
        xmlns:sodipodi="http://sodipodi.sourceforge.net/DTD/sodipodi-0.dtd"
        xmlns="http://www.w3.org/2000/svg"
        xmlns:svg="http://www.w3.org/2000/svg">
    <sodipodi:namedview
            id="namedview7"
            pagecolor="#ffffff"
            bordercolor="#000000"
            borderopacity="0.25"
            inkscape:showpageshadow="2"
            inkscape:pageopacity="0.0"
            inkscape:pagecheckerboard="0"
            inkscape:deskcolor="#d1d1d1"
            inkscape:document-units="mm"
            showgrid="false"
            inkscape:zoom="1"
            inkscape:cx="302"
            inkscape:cy="331"
            inkscape:window-width="2560"
            inkscape:window-height="1057"
            inkscape:window-x="-8"
            inkscape:window-y="-8"
            inkscape:window-maximized="1"
            inkscape:current-layer="layer1" />
    <defs
            id="defs2">
        <filter
                id="fx0"
                x="-21"
                y="-29.700001"
                width="252.00002"
                height="356.40002"
                filterUnits="userSpaceOnUse"
                primitiveUnits="userSpaceOnUse">
            <feComponentTransfer
                    color-interpolation-filters="sRGB"
                    id="feComponentTransfer190">
                <feFuncR
                        type="discrete"
                        tableValues="1 1"
                        id="feFuncR182" />
                <feFuncG
                        type="discrete"
                        tableValues="1 1"
                        id="feFuncG184" />
                <feFuncB
                        type="discrete"
                        tableValues="1 1"
                        id="feFuncB186" />
                <feFuncA
                        type="linear"
                        slope="0.301961"
                        intercept="0"
                        id="feFuncA188" />
            </feComponentTransfer>
            <feGaussianBlur
                    stdDeviation="0.312133 0.312133"
                    id="feGaussianBlur192" />
        </filter>
        <filter
                id="fx1"
                x="-21"
                y="-29.700001"
                width="252.00002"
                height="356.40002"
                filterUnits="userSpaceOnUse"
                primitiveUnits="userSpaceOnUse">
            <feComponentTransfer
                    color-interpolation-filters="sRGB"
                    id="feComponentTransfer203">
                <feFuncR
                        type="discrete"
                        tableValues="1 1"
                        id="feFuncR195" />
                <feFuncG
                        type="discrete"
                        tableValues="1 1"
                        id="feFuncG197" />
                <feFuncB
                        type="discrete"
                        tableValues="1 1"
                        id="feFuncB199" />
                <feFuncA
                        type="linear"
                        slope="0.301961"
                        intercept="0"
                        id="feFuncA201" />
            </feComponentTransfer>
            <feGaussianBlur
                    stdDeviation="0.312133 0.312133"
                    id="feGaussianBlur205" />
        </filter>
        <filter
                id="fx2"
                x="-21"
                y="-29.700001"
                width="252.00002"
                height="356.40002"
                filterUnits="userSpaceOnUse"
                primitiveUnits="userSpaceOnUse">
            <feComponentTransfer
                    color-interpolation-filters="sRGB"
                    id="feComponentTransfer216">
                <feFuncR
                        type="discrete"
                        tableValues="0 0"
                        id="feFuncR208" />
                <feFuncG
                        type="discrete"
                        tableValues="0 0"
                        id="feFuncG210" />
                <feFuncB
                        type="discrete"
                        tableValues="0 0"
                        id="feFuncB212" />
                <feFuncA
                        type="linear"
                        slope="0.458824"
                        intercept="0"
                        id="feFuncA214" />
            </feComponentTransfer>
            <feGaussianBlur
                    stdDeviation="0.888889 0.888889"
                    id="feGaussianBlur218" />
        </filter>
        <filter
                id="fx3"
                x="-21"
                y="-29.700001"
                width="252.00002"
                height="356.40002"
                filterUnits="userSpaceOnUse"
                primitiveUnits="userSpaceOnUse">
            <feComponentTransfer
                    color-interpolation-filters="sRGB"
                    id="feComponentTransfer229">
                <feFuncR
                        type="discrete"
                        tableValues="1 1"
                        id="feFuncR221" />
                <feFuncG
                        type="discrete"
                        tableValues="1 1"
                        id="feFuncG223" />
                <feFuncB
                        type="discrete"
                        tableValues="1 1"
                        id="feFuncB225" />
                <feFuncA
                        type="linear"
                        slope="0.301961"
                        intercept="0"
                        id="feFuncA227" />
            </feComponentTransfer>
            <feGaussianBlur
                    stdDeviation="0.312133 0.312133"
                    id="feGaussianBlur231" />
        </filter>
        <filter
                id="fx4"
                x="-21"
                y="-29.700001"
                width="252.00002"
                height="356.40002"
                filterUnits="userSpaceOnUse"
                primitiveUnits="userSpaceOnUse">
            <feComponentTransfer
                    color-interpolation-filters="sRGB"
                    id="feComponentTransfer242">
                <feFuncR
                        type="discrete"
                        tableValues="1 1"
                        id="feFuncR234" />
                <feFuncG
                        type="discrete"
                        tableValues="1 1"
                        id="feFuncG236" />
                <feFuncB
                        type="discrete"
                        tableValues="1 1"
                        id="feFuncB238" />
                <feFuncA
                        type="linear"
                        slope="0.301961"
                        intercept="0"
                        id="feFuncA240" />
            </feComponentTransfer>
            <feGaussianBlur
                    stdDeviation="0.312133 0.312133"
                    id="feGaussianBlur244" />
        </filter>
        <clipPath
                id="clip5">
            <rect
                    x="316"
                    y="68"
                    width="598"
                    height="200"
                    id="rect247" />
        </clipPath>
        <clipPath
                id="clip6">
            <rect
                    x="52"
                    y="36"
                    width="482"
                    height="89"
                    id="rect250" />
        </clipPath>
        <clipPath
                id="clip7">
            <rect
                    x="0"
                    y="0"
                    width="586"
                    height="202"
                    id="rect253" />
        </clipPath>
        <clipPath
                id="clip8">
            <rect
                    x="52"
                    y="41"
                    width="230"
                    height="67"
                    id="rect256" />
        </clipPath>
        <clipPath
                id="clip9">
            <rect
                    x="0"
                    y="0"
                    width="334"
                    height="195"
                    id="rect259" />
        </clipPath>
        <clipPath
                id="clip10">
            <rect
                    x="55"
                    y="36"
                    width="252"
                    height="81"
                    id="rect262" />
        </clipPath>
        <clipPath
                id="clip11">
            <rect
                    x="0"
                    y="0"
                    width="359"
                    height="195"
                    id="rect265" />
        </clipPath>
        <clipPath
                id="clip12">
            <rect
                    x="52"
                    y="41"
                    width="230"
                    height="67"
                    id="rect268" />
        </clipPath>
        <clipPath
                id="clip13">
            <rect
                    x="0"
                    y="0"
                    width="334"
                    height="195"
                    id="rect271" />
        </clipPath>
        <clipPath
                id="clip14">
            <rect
                    x="55"
                    y="36"
                    width="252"
                    height="81"
                    id="rect274" />
        </clipPath>
        <clipPath
                id="clip15">
            <rect
                    x="0"
                    y="0"
                    width="359"
                    height="195"
                    id="rect277" />
        </clipPath>
        <clipPath
                id="clip16">
            <rect
                    x="841"
                    y="106"
                    width="73"
                    height="78"
                    id="rect280" />
        </clipPath>
        <clipPath
                id="clip17">
            <rect
                    x="841"
                    y="106"
                    width="73"
                    height="78"
                    id="rect283" />
        </clipPath>
        <clipPath
                id="clip18">
            <rect
                    x="841"
                    y="106"
                    width="73"
                    height="78"
                    id="rect286" />
        </clipPath>
    </defs>
    <g
            inkscape:label="Livello 1"
            inkscape:groupmode="layer"
            id="layer1"
            transform="translate(-31.220833,-7.14375)">
        <g
                clip-path="url(#clip5)"
                transform="matrix(0.26458333,0,0,0.26458333,-65.837619,-19.36819)"
                id="g345">
            <g
                    clip-path="url(#clip6)"
                    filter="url(#fx2)"
                    transform="translate(315,67)"
                    id="g309">
                <g
                        clip-path="url(#clip7)"
                        id="g307">
                    <g
                            clip-path="url(#clip8)"
                            filter="url(#fx0)"
                            transform="translate(3,3)"
                            id="g295">
                        <g
                                clip-path="url(#clip9)"
                                id="g293">
                            <path
                                    d="m 82.082,-31.668 c -2.002,4.641 -6.188,12.285 -12.194,12.285 -5.46,0 -2.184,-8.645 -1.274,-11.375 2.912,-8.19 1.456,-16.198 -9.282,-16.835 -6.37,-0.364 -11.739,3.458 -16.016,8.19 0.273,-5.642 -1.365,-10.101 -8.554,-10.556 -6.37,-0.455 -12.012,3.64 -16.289,8.372 0.455,-0.91 0.91,-1.911 1.365,-3.003 1.183,-2.639 -4.004,-5.187 -8.281,-5.187 -2.184,0 -4.095,0.637 -4.914,2.184 -11.193,22.204 -14.196,43.589 -1.001,43.589 7.644,0 5.096,-3.913 5.096,-3.913 -0.091,0 -1.547,-6.188 2.821,-20.293 1.365,-3.094 6.37,-13.286 14.287,-13.104 9.009,0.273 -12.467,30.576 1.456,32.942 8.918,1.547 10.283,-4.004 10.192,-4.186 -1.547,-2.821 -0.455,-8.008 1.001,-13.559 0.91,-3.549 4.368,-13.013 11.921,-12.831 3.094,0.091 3.185,3.549 2.002,7.462 -4.277,13.741 -6.279,26.026 6.006,27.391 14.469,1.638 21.476,-13.377 23.842,-23.933 0,0 0.728,-3.458 -2.184,-3.64 z m 54.822,0 c -2.002,4.641 -6.188,12.285 -12.285,12.285 -6.552,0 1.274,-18.109 4.459,-25.298 1.183,-2.639 -4.186,-5.187 -8.463,-5.187 -2.093,0 -3.913,0.637 -4.641,2.184 -0.364,0.728 -0.728,1.729 -1.274,2.821 -2.275,-4.641 -8.736,-5.187 -11.375,-5.187 -23.2963,0 -32.3053,42.497 -13.5593,42.497 7.371,0 12.8313,-4.641 16.7443,-10.556 -0.637,7.28 1.274,13.286 8.736,14.105 14.469,1.547 21.476,-13.468 23.842,-24.024 0,0 0.819,-3.458 -2.184,-3.64 z m -39.0393,12.831 c -10.829,0 0.364,-26.39 10.5563,-24.57 4.823,0.819 1.729,9.464 0.455,12.467 -1.547,3.731 -5.278,12.103 -11.0113,12.103 z M 184.26,-31.668 c -2.002,4.641 -6.188,12.285 -12.194,12.285 -4.186,0 -3.913,-4.641 -2.912,-7.371 2.184,-6.188 0.273,-10.92 -4.914,-12.74 4.368,-2.912 8.645,-4.459 11.83,-4.459 0.91,0 1.729,0.091 2.366,0.364 2.912,-0.546 -0.182,-7.371 -7.462,-7.371 -5.642,0 -13.013,4.732 -16.926,8.372 1.911,-5.915 4.459,-12.74 7.735,-20.475 1.183,-2.639 -4.277,-5.187 -8.554,-5.187 -2.093,0 -4.004,0.637 -4.641,2.184 -13.468,31.031 -20.111,58.149 -5.915,58.149 7.644,0 5.096,-4.004 5.096,-4.004 0,0 0,-0.182 0,-0.637 1.092,-8.554 4.823,-15.47 9.464,-20.657 0.182,-0.182 0.364,-0.364 0.455,-0.455 1.092,-0.91 2.184,-1.365 2.912,-1.365 1.456,0 1.82,1.82 -0.728,6.006 -6.37,10.647 -6.37,23.842 2.73,24.934 14.469,1.729 21.476,-13.377 23.842,-23.933 0,0 0.819,-3.458 -2.184,-3.64 z m 37.05,0 c -3.822,8.645 -8.827,15.561 -16.38,15.561 -8.281,0 -10.738,-6.188 -8.827,-11.557 0,0 2.366,1.365 6.552,1.365 7.553,0 12.922,-4.368 12.922,-12.376 0,-8.554 -5.46,-11.284 -11.193,-11.284 -12.285,0 -19.11,15.106 -20.293,18.109 -8.281,21.749 5.278,27.755 14.378,27.755 17.199,0 24.57,-19.474 25.48,-23.66 0.819,-4.095 -2.548,-4.095 -2.639,-3.913 z m -13.104,-11.011 c 4.277,0 3.185,11.648 -5.642,11.648 -1.456,0 -3.094,-0.273 -4.914,-1.001 2.912,-6.097 6.916,-10.647 10.556,-10.647 z"
                                    fill="#c00000"
                                    transform="translate(-258.458,44)"
                                    id="path291" />
                        </g>
                    </g>
                    <path
                            d="m 82.082,-31.668 c -2.002,4.641 -6.188,12.285 -12.194,12.285 -5.46,0 -2.184,-8.645 -1.274,-11.375 2.912,-8.19 1.456,-16.198 -9.282,-16.835 -6.37,-0.364 -11.739,3.458 -16.016,8.19 0.273,-5.642 -1.365,-10.101 -8.554,-10.556 -6.37,-0.455 -12.012,3.64 -16.289,8.372 0.455,-0.91 0.91,-1.911 1.365,-3.003 1.183,-2.639 -4.004,-5.187 -8.281,-5.187 -2.184,0 -4.095,0.637 -4.914,2.184 -11.193,22.204 -14.196,43.589 -1.001,43.589 7.644,0 5.096,-3.913 5.096,-3.913 -0.091,0 -1.547,-6.188 2.821,-20.293 1.365,-3.094 6.37,-13.286 14.287,-13.104 9.009,0.273 -12.467,30.576 1.456,32.942 8.918,1.547 10.283,-4.004 10.192,-4.186 -1.547,-2.821 -0.455,-8.008 1.001,-13.559 0.91,-3.549 4.368,-13.013 11.921,-12.831 3.094,0.091 3.185,3.549 2.002,7.462 -4.277,13.741 -6.279,26.026 6.006,27.391 14.469,1.638 21.476,-13.377 23.842,-23.933 0,0 0.728,-3.458 -2.184,-3.64 z m 54.822,0 c -2.002,4.641 -6.188,12.285 -12.285,12.285 -6.552,0 1.274,-18.109 4.459,-25.298 1.183,-2.639 -4.186,-5.187 -8.463,-5.187 -2.093,0 -3.913,0.637 -4.641,2.184 -0.364,0.728 -0.728,1.729 -1.274,2.821 -2.275,-4.641 -8.736,-5.187 -11.375,-5.187 -23.2963,0 -32.3053,42.497 -13.5593,42.497 7.371,0 12.8313,-4.641 16.7443,-10.556 -0.637,7.28 1.274,13.286 8.736,14.105 14.469,1.547 21.476,-13.468 23.842,-24.024 0,0 0.819,-3.458 -2.184,-3.64 z m -39.0393,12.831 c -10.829,0 0.364,-26.39 10.5563,-24.57 4.823,0.819 1.729,9.464 0.455,12.467 -1.547,3.731 -5.278,12.103 -11.0113,12.103 z M 184.26,-31.668 c -2.002,4.641 -6.188,12.285 -12.194,12.285 -4.186,0 -3.913,-4.641 -2.912,-7.371 2.184,-6.188 0.273,-10.92 -4.914,-12.74 4.368,-2.912 8.645,-4.459 11.83,-4.459 0.91,0 1.729,0.091 2.366,0.364 2.912,-0.546 -0.182,-7.371 -7.462,-7.371 -5.642,0 -13.013,4.732 -16.926,8.372 1.911,-5.915 4.459,-12.74 7.735,-20.475 1.183,-2.639 -4.277,-5.187 -8.554,-5.187 -2.093,0 -4.004,0.637 -4.641,2.184 -13.468,31.031 -20.111,58.149 -5.915,58.149 7.644,0 5.096,-4.004 5.096,-4.004 0,0 0,-0.182 0,-0.637 1.092,-8.554 4.823,-15.47 9.464,-20.657 0.182,-0.182 0.364,-0.364 0.455,-0.455 1.092,-0.91 2.184,-1.365 2.912,-1.365 1.456,0 1.82,1.82 -0.728,6.006 -6.37,10.647 -6.37,23.842 2.73,24.934 14.469,1.729 21.476,-13.377 23.842,-23.933 0,0 0.819,-3.458 -2.184,-3.64 z m 37.05,0 c -3.822,8.645 -8.827,15.561 -16.38,15.561 -8.281,0 -10.738,-6.188 -8.827,-11.557 0,0 2.366,1.365 6.552,1.365 7.553,0 12.922,-4.368 12.922,-12.376 0,-8.554 -5.46,-11.284 -11.193,-11.284 -12.285,0 -19.11,15.106 -20.293,18.109 -8.281,21.749 5.278,27.755 14.378,27.755 17.199,0 24.57,-19.474 25.48,-23.66 0.819,-4.095 -2.548,-4.095 -2.639,-3.913 z m -13.104,-11.011 c 4.277,0 3.185,11.648 -5.642,11.648 -1.456,0 -3.094,-0.273 -4.914,-1.001 2.912,-6.097 6.916,-10.647 10.556,-10.647 z"
                            fill="#c00000"
                            transform="translate(60.6058,117)"
                            id="path297" />
                    <g
                            clip-path="url(#clip10)"
                            filter="url(#fx1)"
                            transform="translate(224,3)"
                            id="g303">
                        <g
                                clip-path="url(#clip11)"
                                id="g301">
                            <path
                                    d="m 98.007,-49.231 c 2.548,-5.824 -0.728,-9.373 -4.186,-10.374 -1.456,-0.546 -3.185,-0.819 -5.096,-0.819 -5.551,0 -12.649,2.73 -19.929,11.375 -0.637,-17.654 -18.564,-22.477 -27.755,-22.477 -11.83,0 -27.118,2.093 -35.217,10.556 -8.19,8.463 -6.825,16.016 -1.547,19.11 1.547,0.91 3.549,1.274 5.551,1.274 3.549,0 6.916,-1.092 6.825,-1.911 -0.364,-5.642 3.185,-21.931 25.116,-21.931 18.655,0 18.928,20.384 14.56,25.116 -13.195,14.378 -10.738,29.939 -5.369,31.122 10.192,2.184 13.923,-10.556 16.562,-28.483 8.099,-11.557 15.47,-18.291 18.746,-17.472 -3.822,8.554 -6.734,16.835 -9.282,23.933 -7.735,21.567 -4.823,32.942 4.914,34.034 12.74,1.365 14.924,-15.834 11.739,-14.014 -1.001,0.546 -2.184,0.91 -3.549,0.91 -2.73,0 -3.549,-3.003 -2.73,-7.644 2.73,-14.378 7.189,-24.115 10.647,-32.305 z m -48.776,-1.456 c 1.456,-2.639 -4.277,-5.733 -8.463,-5.733 -1.729,0 -3.185,0.546 -3.822,1.729 -5.187,9.646 -9.737,18.928 -12.831,26.936 -6.097,15.925 -6.916,27.3 2.093,28.21 7.371,0.637 5.278,-2.366 5.278,-2.366 -0.091,0 0.546,-10.374 7.917,-28.119 2.457,-5.915 5.642,-12.831 9.828,-20.657 z m 89.079,19.019 c -3.822,8.645 -8.827,15.561 -16.38,15.561 -8.281,0 -10.738,-6.188 -8.827,-11.557 0,0 2.366,1.365 6.552,1.365 7.553,0 12.922,-4.368 12.922,-12.376 0,-8.554 -5.46,-11.284 -11.193,-11.284 -12.285,0 -19.11,15.106 -20.293,18.109 -8.281,21.749 5.278,27.755 14.378,27.755 17.199,0 24.57,-19.474 25.48,-23.66 0.819,-4.095 -2.548,-4.095 -2.639,-3.913 z m -13.104,-11.011 c 4.277,0 3.185,11.648 -5.642,11.648 -1.456,0 -3.094,-0.273 -4.914,-1.001 2.912,-6.097 6.916,-10.647 10.556,-10.647 z m 67.303,11.011 c -1.911,4.641 -6.188,12.285 -12.194,12.285 -5.369,0 -2.184,-8.645 -1.274,-11.375 2.821,-8.19 1.456,-16.198 -9.191,-16.835 -5.005,-0.273 -9.464,2.002 -13.195,5.278 0.273,-0.728 0.637,-1.547 1.001,-2.275 1.183,-2.639 -4.004,-5.187 -8.281,-5.187 -2.093,0 -4.004,0.637 -4.823,2.184 -11.193,22.204 -14.287,43.589 -1.092,43.589 7.735,0 5.096,-3.913 5.096,-3.913 -0.091,0 -1.638,-6.461 3.003,-21.203 1.911,-4.277 5.369,-9.919 11.284,-9.828 3.185,0.091 3.276,3.549 2.002,7.462 -4.277,13.741 -6.188,26.026 6.006,27.391 14.56,1.638 21.476,-13.377 23.842,-23.933 0,0 0.728,-3.458 -2.184,-3.64 z m 20.679,-37.947 c 0,4.914 6.37,15.925 11.284,15.925 2.366,0 3.094,-0.455 3.094,-2.821 0,-4.823 -5.733,-16.835 -9.373,-16.835 -2.821,0 -5.005,1.365 -5.005,3.731 z m 33.488,38.038 c -1.911,4.641 -5.551,10.374 -11.557,10.374 -3.458,0 -3.003,-4.368 -1.547,-9.464 1.547,-4.459 3.549,-9.1 4.823,-11.921 1.183,-2.639 -4.186,-5.187 -8.554,-5.187 -2.093,0 -3.913,0.637 -4.641,2.184 -0.455,1.092 -3.64,7.189 -5.733,14.196 -2.093,4.641 -6.279,12.012 -12.194,12.012 -6.643,0 1.183,-18.109 4.459,-25.298 1.183,-2.639 -4.186,-5.187 -8.554,-5.187 -2.093,0 -3.913,0.637 -4.641,2.184 -3.549,8.19 -19.11,41.587 -0.819,43.589 9.282,1.001 15.379,-4.55 19.292,-11.466 0.819,7.007 5.46,9.919 12.012,9.919 12.012,0 17.654,-12.649 19.838,-22.295 0,0 0.728,-3.549 -2.184,-3.64 z"
                                    fill="#ffc000"
                                    transform="translate(-258.458,44)"
                                    id="path299" />
                        </g>
                    </g>
                    <path
                            d="m 98.007,-49.231 c 2.548,-5.824 -0.728,-9.373 -4.186,-10.374 -1.456,-0.546 -3.185,-0.819 -5.096,-0.819 -5.551,0 -12.649,2.73 -19.929,11.375 -0.637,-17.654 -18.564,-22.477 -27.755,-22.477 -11.83,0 -27.118,2.093 -35.217,10.556 -8.19,8.463 -6.825,16.016 -1.547,19.11 1.547,0.91 3.549,1.274 5.551,1.274 3.549,0 6.916,-1.092 6.825,-1.911 -0.364,-5.642 3.185,-21.931 25.116,-21.931 18.655,0 18.928,20.384 14.56,25.116 -13.195,14.378 -10.738,29.939 -5.369,31.122 10.192,2.184 13.923,-10.556 16.562,-28.483 8.099,-11.557 15.47,-18.291 18.746,-17.472 -3.822,8.554 -6.734,16.835 -9.282,23.933 -7.735,21.567 -4.823,32.942 4.914,34.034 12.74,1.365 14.924,-15.834 11.739,-14.014 -1.001,0.546 -2.184,0.91 -3.549,0.91 -2.73,0 -3.549,-3.003 -2.73,-7.644 2.73,-14.378 7.189,-24.115 10.647,-32.305 z m -48.776,-1.456 c 1.456,-2.639 -4.277,-5.733 -8.463,-5.733 -1.729,0 -3.185,0.546 -3.822,1.729 -5.187,9.646 -9.737,18.928 -12.831,26.936 -6.097,15.925 -6.916,27.3 2.093,28.21 7.371,0.637 5.278,-2.366 5.278,-2.366 -0.091,0 0.546,-10.374 7.917,-28.119 2.457,-5.915 5.642,-12.831 9.828,-20.657 z m 89.079,19.019 c -3.822,8.645 -8.827,15.561 -16.38,15.561 -8.281,0 -10.738,-6.188 -8.827,-11.557 0,0 2.366,1.365 6.552,1.365 7.553,0 12.922,-4.368 12.922,-12.376 0,-8.554 -5.46,-11.284 -11.193,-11.284 -12.285,0 -19.11,15.106 -20.293,18.109 -8.281,21.749 5.278,27.755 14.378,27.755 17.199,0 24.57,-19.474 25.48,-23.66 0.819,-4.095 -2.548,-4.095 -2.639,-3.913 z m -13.104,-11.011 c 4.277,0 3.185,11.648 -5.642,11.648 -1.456,0 -3.094,-0.273 -4.914,-1.001 2.912,-6.097 6.916,-10.647 10.556,-10.647 z m 67.303,11.011 c -1.911,4.641 -6.188,12.285 -12.194,12.285 -5.369,0 -2.184,-8.645 -1.274,-11.375 2.821,-8.19 1.456,-16.198 -9.191,-16.835 -5.005,-0.273 -9.464,2.002 -13.195,5.278 0.273,-0.728 0.637,-1.547 1.001,-2.275 1.183,-2.639 -4.004,-5.187 -8.281,-5.187 -2.093,0 -4.004,0.637 -4.823,2.184 -11.193,22.204 -14.287,43.589 -1.092,43.589 7.735,0 5.096,-3.913 5.096,-3.913 -0.091,0 -1.638,-6.461 3.003,-21.203 1.911,-4.277 5.369,-9.919 11.284,-9.828 3.185,0.091 3.276,3.549 2.002,7.462 -4.277,13.741 -6.188,26.026 6.006,27.391 14.56,1.638 21.476,-13.377 23.842,-23.933 0,0 0.728,-3.458 -2.184,-3.64 z m 20.679,-37.947 c 0,4.914 6.37,15.925 11.284,15.925 2.366,0 3.094,-0.455 3.094,-2.821 0,-4.823 -5.733,-16.835 -9.373,-16.835 -2.821,0 -5.005,1.365 -5.005,3.731 z m 33.488,38.038 c -1.911,4.641 -5.551,10.374 -11.557,10.374 -3.458,0 -3.003,-4.368 -1.547,-9.464 1.547,-4.459 3.549,-9.1 4.823,-11.921 1.183,-2.639 -4.186,-5.187 -8.554,-5.187 -2.093,0 -3.913,0.637 -4.641,2.184 -0.455,1.092 -3.64,7.189 -5.733,14.196 -2.093,4.641 -6.279,12.012 -12.194,12.012 -6.643,0 1.183,-18.109 4.459,-25.298 1.183,-2.639 -4.186,-5.187 -8.554,-5.187 -2.093,0 -3.913,0.637 -4.641,2.184 -3.549,8.19 -19.11,41.587 -0.819,43.589 9.282,1.001 15.379,-4.55 19.292,-11.466 0.819,7.007 5.46,9.919 12.012,9.919 12.012,0 17.654,-12.649 19.838,-22.295 0,0 0.728,-3.549 -2.184,-3.64 z"
                            fill="#ffc000"
                            transform="translate(281.606,117)"
                            id="path305" />
                </g>
            </g>
            <g
                    clip-path="url(#clip12)"
                    filter="url(#fx3)"
                    transform="translate(318,70)"
                    id="g315">
                <g
                        clip-path="url(#clip13)"
                        id="g313">
                    <path
                            d="m 82.082,-31.668 c -2.002,4.641 -6.188,12.285 -12.194,12.285 -5.46,0 -2.184,-8.645 -1.274,-11.375 2.912,-8.19 1.456,-16.198 -9.282,-16.835 -6.37,-0.364 -11.739,3.458 -16.016,8.19 0.273,-5.642 -1.365,-10.101 -8.554,-10.556 -6.37,-0.455 -12.012,3.64 -16.289,8.372 0.455,-0.91 0.91,-1.911 1.365,-3.003 1.183,-2.639 -4.004,-5.187 -8.281,-5.187 -2.184,0 -4.095,0.637 -4.914,2.184 -11.193,22.204 -14.196,43.589 -1.001,43.589 7.644,0 5.096,-3.913 5.096,-3.913 -0.091,0 -1.547,-6.188 2.821,-20.293 1.365,-3.094 6.37,-13.286 14.287,-13.104 9.009,0.273 -12.467,30.576 1.456,32.942 8.918,1.547 10.283,-4.004 10.192,-4.186 -1.547,-2.821 -0.455,-8.008 1.001,-13.559 0.91,-3.549 4.368,-13.013 11.921,-12.831 3.094,0.091 3.185,3.549 2.002,7.462 -4.277,13.741 -6.279,26.026 6.006,27.391 14.469,1.638 21.476,-13.377 23.842,-23.933 0,0 0.728,-3.458 -2.184,-3.64 z m 54.822,0 c -2.002,4.641 -6.188,12.285 -12.285,12.285 -6.552,0 1.274,-18.109 4.459,-25.298 1.183,-2.639 -4.186,-5.187 -8.463,-5.187 -2.093,0 -3.913,0.637 -4.641,2.184 -0.364,0.728 -0.728,1.729 -1.274,2.821 -2.275,-4.641 -8.736,-5.187 -11.375,-5.187 -23.2963,0 -32.3053,42.497 -13.5593,42.497 7.371,0 12.8313,-4.641 16.7443,-10.556 -0.637,7.28 1.274,13.286 8.736,14.105 14.469,1.547 21.476,-13.468 23.842,-24.024 0,0 0.819,-3.458 -2.184,-3.64 z m -39.0393,12.831 c -10.829,0 0.364,-26.39 10.5563,-24.57 4.823,0.819 1.729,9.464 0.455,12.467 -1.547,3.731 -5.278,12.103 -11.0113,12.103 z M 184.26,-31.668 c -2.002,4.641 -6.188,12.285 -12.194,12.285 -4.186,0 -3.913,-4.641 -2.912,-7.371 2.184,-6.188 0.273,-10.92 -4.914,-12.74 4.368,-2.912 8.645,-4.459 11.83,-4.459 0.91,0 1.729,0.091 2.366,0.364 2.912,-0.546 -0.182,-7.371 -7.462,-7.371 -5.642,0 -13.013,4.732 -16.926,8.372 1.911,-5.915 4.459,-12.74 7.735,-20.475 1.183,-2.639 -4.277,-5.187 -8.554,-5.187 -2.093,0 -4.004,0.637 -4.641,2.184 -13.468,31.031 -20.111,58.149 -5.915,58.149 7.644,0 5.096,-4.004 5.096,-4.004 0,0 0,-0.182 0,-0.637 1.092,-8.554 4.823,-15.47 9.464,-20.657 0.182,-0.182 0.364,-0.364 0.455,-0.455 1.092,-0.91 2.184,-1.365 2.912,-1.365 1.456,0 1.82,1.82 -0.728,6.006 -6.37,10.647 -6.37,23.842 2.73,24.934 14.469,1.729 21.476,-13.377 23.842,-23.933 0,0 0.819,-3.458 -2.184,-3.64 z m 37.05,0 c -3.822,8.645 -8.827,15.561 -16.38,15.561 -8.281,0 -10.738,-6.188 -8.827,-11.557 0,0 2.366,1.365 6.552,1.365 7.553,0 12.922,-4.368 12.922,-12.376 0,-8.554 -5.46,-11.284 -11.193,-11.284 -12.285,0 -19.11,15.106 -20.293,18.109 -8.281,21.749 5.278,27.755 14.378,27.755 17.199,0 24.57,-19.474 25.48,-23.66 0.819,-4.095 -2.548,-4.095 -2.639,-3.913 z m -13.104,-11.011 c 4.277,0 3.185,11.648 -5.642,11.648 -1.456,0 -3.094,-0.273 -4.914,-1.001 2.912,-6.097 6.916,-10.647 10.556,-10.647 z"
                            fill="#c00000"
                            transform="translate(56.5421,111)"
                            id="path311" />
                </g>
            </g>
            <text
                    fill="#c00000"
                    font-family="'Batuphat Script', 'Batuphat Script_MSFontService', sans-serif"
                    font-weight="400"
                    font-size="91px"
                    transform="translate(375.606,184)"
                    id="text317">make</text>
            <g
                    clip-path="url(#clip14)"
                    filter="url(#fx4)"
                    transform="translate(539,70)"
                    id="g323">
                <g
                        clip-path="url(#clip15)"
                        id="g321">
                    <path
                            d="m 98.007,-49.231 c 2.548,-5.824 -0.728,-9.373 -4.186,-10.374 -1.456,-0.546 -3.185,-0.819 -5.096,-0.819 -5.551,0 -12.649,2.73 -19.929,11.375 -0.637,-17.654 -18.564,-22.477 -27.755,-22.477 -11.83,0 -27.118,2.093 -35.217,10.556 -8.19,8.463 -6.825,16.016 -1.547,19.11 1.547,0.91 3.549,1.274 5.551,1.274 3.549,0 6.916,-1.092 6.825,-1.911 -0.364,-5.642 3.185,-21.931 25.116,-21.931 18.655,0 18.928,20.384 14.56,25.116 -13.195,14.378 -10.738,29.939 -5.369,31.122 10.192,2.184 13.923,-10.556 16.562,-28.483 8.099,-11.557 15.47,-18.291 18.746,-17.472 -3.822,8.554 -6.734,16.835 -9.282,23.933 -7.735,21.567 -4.823,32.942 4.914,34.034 12.74,1.365 14.924,-15.834 11.739,-14.014 -1.001,0.546 -2.184,0.91 -3.549,0.91 -2.73,0 -3.549,-3.003 -2.73,-7.644 2.73,-14.378 7.189,-24.115 10.647,-32.305 z m -48.776,-1.456 c 1.456,-2.639 -4.277,-5.733 -8.463,-5.733 -1.729,0 -3.185,0.546 -3.822,1.729 -5.187,9.646 -9.737,18.928 -12.831,26.936 -6.097,15.925 -6.916,27.3 2.093,28.21 7.371,0.637 5.278,-2.366 5.278,-2.366 -0.091,0 0.546,-10.374 7.917,-28.119 2.457,-5.915 5.642,-12.831 9.828,-20.657 z m 89.079,19.019 c -3.822,8.645 -8.827,15.561 -16.38,15.561 -8.281,0 -10.738,-6.188 -8.827,-11.557 0,0 2.366,1.365 6.552,1.365 7.553,0 12.922,-4.368 12.922,-12.376 0,-8.554 -5.46,-11.284 -11.193,-11.284 -12.285,0 -19.11,15.106 -20.293,18.109 -8.281,21.749 5.278,27.755 14.378,27.755 17.199,0 24.57,-19.474 25.48,-23.66 0.819,-4.095 -2.548,-4.095 -2.639,-3.913 z m -13.104,-11.011 c 4.277,0 3.185,11.648 -5.642,11.648 -1.456,0 -3.094,-0.273 -4.914,-1.001 2.912,-6.097 6.916,-10.647 10.556,-10.647 z m 67.303,11.011 c -1.911,4.641 -6.188,12.285 -12.194,12.285 -5.369,0 -2.184,-8.645 -1.274,-11.375 2.821,-8.19 1.456,-16.198 -9.191,-16.835 -5.005,-0.273 -9.464,2.002 -13.195,5.278 0.273,-0.728 0.637,-1.547 1.001,-2.275 1.183,-2.639 -4.004,-5.187 -8.281,-5.187 -2.093,0 -4.004,0.637 -4.823,2.184 -11.193,22.204 -14.287,43.589 -1.092,43.589 7.735,0 5.096,-3.913 5.096,-3.913 -0.091,0 -1.638,-6.461 3.003,-21.203 1.911,-4.277 5.369,-9.919 11.284,-9.828 3.185,0.091 3.276,3.549 2.002,7.462 -4.277,13.741 -6.188,26.026 6.006,27.391 14.56,1.638 21.476,-13.377 23.842,-23.933 0,0 0.728,-3.458 -2.184,-3.64 z m 20.679,-37.947 c 0,4.914 6.37,15.925 11.284,15.925 2.366,0 3.094,-0.455 3.094,-2.821 0,-4.823 -5.733,-16.835 -9.373,-16.835 -2.821,0 -5.005,1.365 -5.005,3.731 z m 33.488,38.038 c -1.911,4.641 -5.551,10.374 -11.557,10.374 -3.458,0 -3.003,-4.368 -1.547,-9.464 1.547,-4.459 3.549,-9.1 4.823,-11.921 1.183,-2.639 -4.186,-5.187 -8.554,-5.187 -2.093,0 -3.913,0.637 -4.641,2.184 -0.455,1.092 -3.64,7.189 -5.733,14.196 -2.093,4.641 -6.279,12.012 -12.194,12.012 -6.643,0 1.183,-18.109 4.459,-25.298 1.183,-2.639 -4.186,-5.187 -8.554,-5.187 -2.093,0 -3.913,0.637 -4.641,2.184 -3.549,8.19 -19.11,41.587 -0.819,43.589 9.282,1.001 15.379,-4.55 19.292,-11.466 0.819,7.007 5.46,9.919 12.012,9.919 12.012,0 17.654,-12.649 19.838,-22.295 0,0 0.728,-3.549 -2.184,-3.64 z"
                            fill="#ffc000"
                            transform="translate(56.5421,111)"
                            id="path319" />
                </g>
            </g>
            <text
                    fill="#ffc000"
                    font-family="'Batuphat Script', 'Batuphat Script_MSFontService', sans-serif"
                    font-weight="400"
                    font-size="91px"
                    transform="translate(596.606,184)"
                    id="text325">Menù</text>
            <text
                    font-family="'Goudy Old Style', 'Goudy Old Style_MSFontService', sans-serif"
                    font-style="italic"
                    font-weight="400"
                    font-size="32px"
                    transform="translate(465.61,213)"
                    id="text327">you</text>
            <text
                    font-family="'Goudy Old Style', 'Goudy Old Style_MSFontService', sans-serif"
                    font-style="italic"
                    font-weight="400"
                    font-size="32px"
                    transform="translate(512.63,213)"
                    id="text329">make food,</text>
            <text
                    font-family="'Goudy Old Style', 'Goudy Old Style_MSFontService', sans-serif"
                    font-style="italic"
                    font-weight="400"
                    font-size="32px"
                    transform="translate(644.27,213)"
                    id="text331">we</text>
            <text
                    font-family="'Goudy Old Style', 'Goudy Old Style_MSFontService', sans-serif"
                    font-style="italic"
                    font-weight="400"
                    font-size="32px"
                    transform="translate(682.583,213)"
                    id="text333">make menù!</text>
            <g
                    clip-path="url(#clip16)"
                    id="g343">
                <g
                        clip-path="url(#clip17)"
                        id="g341">
                    <g
                            clip-path="url(#clip18)"
                            id="g339">
                        <path
                                d="m 41.4214,37.5349 c -1.0081,6.2617 -3.4809,12.1966 -7.2171,17.3216 l 0.1931,0.1931 c -1.1847,0.1354 -2.3177,0.2844 -3.307,0.4281 0.292,-1.2409 0.1109,-2.5461 -0.508,-3.6606 -0.6093,-0.9144 -1.6434,-1.4542 -2.742,-1.4311 H 27.81 c -2.0737,0.0159 -4.3002,1.1208 -6.1731,2.3846 -0.051,-0.1163 -0.1072,-0.2319 -0.1696,-0.3452 -0.6067,-1.091 -1.6966,-1.828 -2.9352,-1.9847 -0.9495,-0.1114 -1.9111,0.0498 -2.7725,0.4646 C 16.15,49.2556 16.1157,47.5339 15.66,45.901 15.0311,43.9613 13.5003,42.4472 11.5538,41.8396 10.1051,41.3675 8.56625,41.2402 7.05971,41.4678 c -1.40505,0.2036 -2.77994,0.5783 -4.09408,1.1155 -1.18354,0.432 -1.79282,1.7416 -1.36087,2.9251 0.43196,1.1835 1.74157,1.7929 2.9251,1.3609 0.03659,-0.0133 0.07283,-0.0276 0.10868,-0.0428 0.96678,-0.398 1.97812,-0.6776 3.01201,-0.8327 0.80544,-0.1331 1.63072,-0.0779 2.41125,0.1612 0.5959,0.1403 1.0743,0.5833 1.26,1.1665 0.8791,2.6835 -2.04928,8.782 -4.55637,12.5469 -0.11178,0.1612 -0.21596,0.3163 -0.31405,0.4615 -0.70531,1.044 -0.43075,2.4621 0.61323,3.1674 1.03801,0.7013 2.44721,0.4344 3.15689,-0.5979 0.0563,-0.0814 0.1437,-0.2091 0.2578,-0.3802 2.4006,-3.4979 5.5168,-6.7867 6.9677,-7.4453 -0.089,0.6586 -0.2657,1.3023 -0.5254,1.914 -0.5091,1.1524 0.0123,2.4994 1.1648,3.0085 0.8666,0.3829 1.8796,0.1903 2.5452,-0.4839 1.6893,-1.7215 3.656,-3.1466 5.818,-4.2158 -0.1853,0.7214 -0.4244,1.4278 -0.7156,2.1132 -0.5021,1.1556 0.0276,2.4994 1.1832,3.0014 0.4171,0.1813 0.879,0.2338 1.3262,0.1506 0.0464,-0.0092 4.6918,-0.8639 9.1858,-1.2273 0.3353,-0.0294 0.6598,-0.1333 0.9498,-0.3042 l 0.1521,0.1521 c 5.125,-3.7365 11.0603,-6.2093 17.3223,-7.2171 0,0 0.9763,-5.2979 8.5759,-12.9112 L 54.3272,28.9529 c -7.6148,7.5996 -12.9058,8.582 -12.9058,8.582 z m 7.9395,9.3828 c -0.5894,0.5883 -1.4774,0.7593 -2.2432,0.4319 L 37.0802,57.3871 36.0057,56.3104 46.0432,46.2729 c -0.4419,-1.0365 0.04,-2.235 1.0766,-2.677 1.0364,-0.4419 2.2349,0.0401 2.6768,1.0765 0.327,0.7666 0.1547,1.6549 -0.4349,2.2438 z"
                                fill="#ffc000"
                                transform="matrix(1,0,0,1.06849,841,106)"
                                id="path335" />
                        <path
                                d="M 55.0831,25.334 68.074,38.325 c 0,0 1.2859,-1.1779 3.3907,-3.1116 V 7.60417 C 62.4188,17.3375 55.0831,25.334 55.0831,25.334 Z"
                                fill="#ffc000"
                                transform="matrix(1,0,0,1.06849,841,106)"
                                id="path337" />
                    </g>
                </g>
            </g>
        </g>
    </g>
</svg>
