<?xml version="1.0" standalone="no"?>
<!DOCTYPE svg PUBLIC "-//W3C//DTD SVG 20010904//EN"
 "http://www.w3.org/TR/2001/REC-SVG-20010904/DTD/svg10.dtd">
<svg version="1.0" xmlns="http://www.w3.org/2000/svg"
 width="350.000000pt" height="350.000000pt" viewBox="0 0 350.000000 350.000000"
 preserveAspectRatio="xMidYMid meet">

<g transform="translate(0.000000,350.000000) scale(0.100000,-0.100000)"
fill="#000000" stroke="none">
<path d="M440 2745 l0 -315 315 0 315 0 0 315 0 315 -315 0 -315 0 0 -315z
m540 0 l0 -225 -225 0 -225 0 0 225 0 225 225 0 225 0 0 -225z"/>
<path d="M620 2745 l0 -135 135 0 135 0 0 135 0 135 -135 0 -135 0 0 -135z"/>
<path d="M1250 3015 l0 -45 -45 0 -45 0 0 -90 0 -90 45 0 45 0 0 -45 0 -45
-45 0 -45 0 0 -180 0 -180 -90 0 -90 0 0 -45 0 -45 45 0 45 0 0 -45 0 -45 -45
0 -45 0 0 -45 0 -45 45 0 45 0 0 -45 0 -45 -45 0 -45 0 0 -45 0 -45 45 0 45 0
0 -45 0 -45 -90 0 -90 0 0 90 0 90 -45 0 -45 0 0 45 0 45 45 0 45 0 0 90 0 90
-45 0 -45 0 0 45 0 45 -45 0 -45 0 0 -45 0 -45 -45 0 -45 0 0 45 0 45 -90 0
-90 0 0 -45 0 -45 90 0 90 0 0 -90 0 -90 -45 0 -45 0 0 -45 0 -45 135 0 135 0
0 -90 0 -90 -45 0 -45 0 0 -90 0 -90 -45 0 -45 0 0 -45 0 -45 -45 0 -45 0 0
90 0 90 -45 0 -45 0 0 -90 0 -90 45 0 45 0 0 -45 0 -45 -45 0 -45 0 0 -45 0
-45 45 0 45 0 0 45 0 45 45 0 45 0 0 -90 0 -90 45 0 45 0 0 90 0 90 135 0 135
0 0 -45 0 -45 -45 0 -45 0 0 -45 0 -45 -45 0 -45 0 0 -45 0 -45 45 0 45 0 0
45 0 45 45 0 45 0 0 -45 0 -45 45 0 45 0 0 45 0 45 45 0 45 0 0 45 0 45 45 0
45 0 0 -90 0 -90 -45 0 -45 0 0 -90 0 -90 45 0 45 0 0 -45 0 -45 45 0 45 0 0
-45 0 -45 -90 0 -90 0 0 -45 0 -45 90 0 90 0 0 -45 0 -45 -90 0 -90 0 0 -90 0
-90 225 0 225 0 0 45 0 45 90 0 90 0 0 -45 0 -45 45 0 45 0 0 90 0 90 -90 0
-90 0 0 45 0 45 -45 0 -45 0 0 45 0 45 45 0 45 0 0 45 0 45 45 0 45 0 0 -45 0
-45 45 0 45 0 0 -45 0 -45 45 0 45 0 0 45 0 45 45 0 45 0 0 45 0 45 45 0 45 0
0 90 0 90 45 0 45 0 0 -135 0 -135 90 0 90 0 0 -45 0 -45 45 0 45 0 0 -45 0
-45 -135 0 -135 0 0 -90 0 -90 90 0 90 0 0 45 0 45 45 0 45 0 0 -45 0 -45 90
0 90 0 0 45 0 45 -45 0 -45 0 0 45 0 45 90 0 90 0 0 45 0 45 45 0 45 0 0 45 0
45 -45 0 -45 0 0 -45 0 -45 -45 0 -45 0 0 315 0 315 45 0 45 0 0 45 0 45 -45
0 -45 0 0 -45 0 -45 -45 0 -45 0 0 -45 0 -45 -135 0 -135 0 0 45 0 45 -45 0
-45 0 0 -90 0 -90 -45 0 -45 0 0 -45 0 -45 -45 0 -45 0 0 -90 0 -90 -45 0 -45
0 0 135 0 135 -90 0 -90 0 0 45 0 45 180 0 180 0 0 45 0 45 -45 0 -45 0 0 45
0 45 45 0 45 0 0 45 0 45 90 0 90 0 0 -45 0 -45 135 0 135 0 0 45 0 45 -90 0
-90 0 0 45 0 45 -45 0 -45 0 0 45 0 45 -180 0 -180 0 0 -90 0 -90 -45 0 -45 0
0 -90 0 -90 -45 0 -45 0 0 90 0 90 -45 0 -45 0 0 -135 0 -135 -90 0 -90 0 0
45 0 45 -45 0 -45 0 0 45 0 45 90 0 90 0 0 90 0 90 45 0 45 0 0 90 0 90 45 0
45 0 0 45 0 45 -45 0 -45 0 0 45 0 45 45 0 45 0 0 135 0 135 45 0 45 0 0 -180
0 -180 135 0 135 0 0 -45 0 -45 135 0 135 0 0 45 0 45 45 0 45 0 0 -45 0 -45
45 0 45 0 0 -90 0 -90 45 0 45 0 0 -45 0 -45 45 0 45 0 0 90 0 90 45 0 45 0 0
-90 0 -90 45 0 45 0 0 -45 0 -45 -45 0 -45 0 0 -90 0 -90 -45 0 -45 0 0 -90 0
-90 45 0 45 0 0 -45 0 -45 -45 0 -45 0 0 -45 0 -45 90 0 90 0 0 -45 0 -45 45
0 45 0 0 45 0 45 -45 0 -45 0 0 90 0 90 45 0 45 0 0 45 0 45 -90 0 -90 0 0 45
0 45 90 0 90 0 0 135 0 135 -45 0 -45 0 0 90 0 90 45 0 45 0 0 45 0 45 -90 0
-90 0 0 45 0 45 90 0 90 0 0 45 0 45 -45 0 -45 0 0 90 0 90 45 0 45 0 0 45 0
45 -45 0 -45 0 0 45 0 45 -90 0 -90 0 0 -45 0 -45 -45 0 -45 0 0 45 0 45 -135
0 -135 0 0 -90 0 -90 -45 0 -45 0 0 45 0 45 -45 0 -45 0 0 -45 0 -45 -45 0
-45 0 0 -45 0 -45 -45 0 -45 0 0 90 0 90 -45 0 -45 0 0 45 0 45 45 0 45 0 0
45 0 45 45 0 45 0 0 45 0 45 45 0 45 0 0 -45 0 -45 45 0 45 0 0 45 0 45 -45 0
-45 0 0 45 0 45 45 0 45 0 0 45 0 45 -45 0 -45 0 0 -45 0 -45 -45 0 -45 0 0
-45 0 -45 -45 0 -45 0 0 45 0 45 -45 0 -45 0 0 45 0 45 -90 0 -90 0 0 45 0 45
45 0 45 0 0 45 0 45 45 0 45 0 0 -45 0 -45 45 0 45 0 0 -45 0 -45 45 0 45 0 0
45 0 45 90 0 90 0 0 45 0 45 -90 0 -90 0 0 45 0 45 45 0 45 0 0 45 0 45 -135
0 -135 0 0 -45 0 -45 -45 0 -45 0 0 45 0 45 -90 0 -90 0 0 -45 0 -45 45 0 45
0 0 -45 0 -45 -45 0 -45 0 0 -45 0 -45 -45 0 -45 0 0 135 0 135 -45 0 -45 0 0
-45 0 -45 -45 0 -45 0 0 -45 0 -45 -90 0 -90 0 0 45 0 45 45 0 45 0 0 45 0 45
-45 0 -45 0 0 -45z m810 -90 l0 -45 45 0 45 0 0 -45 0 -45 -45 0 -45 0 0 45 0
45 -45 0 -45 0 0 45 0 45 45 0 45 0 0 -45z m-450 -180 l0 -45 90 0 90 0 0 -90
0 -90 45 0 45 0 0 -45 0 -45 -45 0 -45 0 0 45 0 45 -45 0 -45 0 0 -90 0 -90
-45 0 -45 0 0 90 0 90 -45 0 -45 0 0 -135 0 -135 45 0 45 0 0 -90 0 -90 -45 0
-45 0 0 -135 0 -135 -45 0 -45 0 0 -135 0 -135 -45 0 -45 0 0 135 0 135 -45 0
-45 0 0 90 0 90 -45 0 -45 0 0 45 0 45 -45 0 -45 0 0 45 0 45 45 0 45 0 0 -45
0 -45 135 0 135 0 0 45 0 45 45 0 45 0 0 45 0 45 -45 0 -45 0 0 45 0 45 -45 0
-45 0 0 -90 0 -90 -45 0 -45 0 0 45 0 45 -45 0 -45 0 0 45 0 45 90 0 90 0 0
45 0 45 -45 0 -45 0 0 45 0 45 45 0 45 0 0 45 0 45 -45 0 -45 0 0 45 0 45 135
0 135 0 0 45 0 45 45 0 45 0 0 -45z m450 -270 l0 -45 -45 0 -45 0 0 45 0 45
45 0 45 0 0 -45z m630 -315 l0 -90 -135 0 -135 0 0 -45 0 -45 -45 0 -45 0 0
45 0 45 -45 0 -45 0 0 45 0 45 45 0 45 0 0 -45 0 -45 45 0 45 0 0 45 0 45 45
0 45 0 0 45 0 45 90 0 90 0 0 -90z m270 45 l0 -45 -90 0 -90 0 0 45 0 45 90 0
90 0 0 -45z m-900 -180 l0 -45 -45 0 -45 0 0 45 0 45 45 0 45 0 0 -45z m630
-90 l0 -45 45 0 45 0 0 45 0 45 45 0 45 0 0 -45 0 -45 -45 0 -45 0 0 -90 0
-90 -45 0 -45 0 0 45 0 45 -45 0 -45 0 0 45 0 45 -45 0 -45 0 0 45 0 45 90 0
90 0 0 -45z m-990 -90 l0 -45 -45 0 -45 0 0 45 0 45 45 0 45 0 0 -45z m-810
-90 l0 -45 -45 0 -45 0 0 45 0 45 45 0 45 0 0 -45z m180 -90 l0 -45 -45 0 -45
0 0 -45 0 -45 90 0 90 0 0 45 0 45 45 0 45 0 0 -45 0 -45 -45 0 -45 0 0 -90 0
-90 -45 0 -45 0 0 -45 0 -45 -45 0 -45 0 0 45 0 45 45 0 45 0 0 45 0 45 -45 0
-45 0 0 45 0 45 -45 0 -45 0 0 45 0 45 45 0 45 0 0 45 0 45 45 0 45 0 0 -45z
m1080 -90 l0 -45 -45 0 -45 0 0 -45 0 -45 -45 0 -45 0 0 45 0 45 45 0 45 0 0
45 0 45 45 0 45 0 0 -45z m-1440 -90 l0 -45 -45 0 -45 0 0 45 0 45 45 0 45 0
0 -45z m630 -90 l0 -45 45 0 45 0 0 -90 0 -90 45 0 45 0 0 -90 0 -90 45 0 45
0 0 90 0 90 90 0 90 0 0 -45 0 -45 45 0 45 0 0 -90 0 -90 -45 0 -45 0 0 45 0
45 -90 0 -90 0 0 -90 0 -90 -45 0 -45 0 0 -45 0 -45 45 0 45 0 0 -90 0 -90
-45 0 -45 0 0 90 0 90 -90 0 -90 0 0 45 0 45 45 0 45 0 0 90 0 90 -90 0 -90 0
0 90 0 90 45 0 45 0 0 90 0 90 -45 0 -45 0 0 45 0 45 45 0 45 0 0 -45z m1260
-360 l0 -135 -135 0 -135 0 0 135 0 135 135 0 135 0 0 -135z"/>
<path d="M1430 2565 l0 -45 -45 0 -45 0 0 -45 0 -45 45 0 45 0 0 45 0 45 45 0
45 0 0 45 0 45 -45 0 -45 0 0 -45z"/>
<path d="M1340 1845 l0 -45 45 0 45 0 0 45 0 45 -45 0 -45 0 0 -45z"/>
<path d="M2420 1035 l0 -45 45 0 45 0 0 45 0 45 -45 0 -45 0 0 -45z"/>
<path d="M2420 2745 l0 -315 315 0 315 0 0 315 0 315 -315 0 -315 0 0 -315z
m540 0 l0 -225 -225 0 -225 0 0 225 0 225 225 0 225 0 0 -225z"/>
<path d="M2600 2745 l0 -135 135 0 135 0 0 135 0 135 -135 0 -135 0 0 -135z"/>
<path d="M440 1845 l0 -45 90 0 90 0 0 45 0 45 -90 0 -90 0 0 -45z"/>
<path d="M1790 1665 l0 -45 45 0 45 0 0 45 0 45 -45 0 -45 0 0 -45z"/>
<path d="M440 1215 l0 -45 45 0 45 0 0 45 0 45 -45 0 -45 0 0 -45z"/>
<path d="M440 765 l0 -315 315 0 315 0 0 315 0 315 -315 0 -315 0 0 -315z
m540 0 l0 -225 -225 0 -225 0 0 225 0 225 225 0 225 0 0 -225z"/>
<path d="M620 765 l0 -135 135 0 135 0 0 135 0 135 -135 0 -135 0 0 -135z"/>
<path d="M2060 675 l0 -45 -45 0 -45 0 0 -90 0 -90 45 0 45 0 0 45 0 45 45 0
45 0 0 90 0 90 -45 0 -45 0 0 -45z"/>
<path d="M2960 675 l0 -45 -45 0 -45 0 0 -90 0 -90 45 0 45 0 0 90 0 90 45 0
45 0 0 45 0 45 -45 0 -45 0 0 -45z"/>
</g>
</svg>
