<?xml version="1.0" encoding="UTF-8" standalone="no"?>
<!-- Created with Inkscape (http://www.inkscape.org/) -->

<svg
   version="1.1"
   id="svg73"
   width="416.89349"
   height="490"
   viewBox="0 0 416.89349 490"
   sodipodi:docname="subscribe.svg"
   inkscape:version="1.2 (dc2aedaf03, 2022-05-15)"
   xmlns:inkscape="http://www.inkscape.org/namespaces/inkscape"
   xmlns:sodipodi="http://sodipodi.sourceforge.net/DTD/sodipodi-0.dtd"
   xmlns="http://www.w3.org/2000/svg"
   xmlns:svg="http://www.w3.org/2000/svg">
  <defs
     id="defs77" />
  <sodipodi:namedview
     id="namedview75"
     pagecolor="#ffffff"
     bordercolor="#999999"
     borderopacity="1"
     inkscape:showpageshadow="0"
     inkscape:pageopacity="0"
     inkscape:pagecheckerboard="0"
     inkscape:deskcolor="#d1d1d1"
     showgrid="false"
     inkscape:zoom="0.88163266"
     inkscape:cx="309.65278"
     inkscape:cy="395.85648"
     inkscape:window-width="2560"
     inkscape:window-height="1057"
     inkscape:window-x="-8"
     inkscape:window-y="-8"
     inkscape:window-maximized="1"
     inkscape:current-layer="g79" />
  <g
     inkscape:groupmode="layer"
     inkscape:label="Image"
     id="g79">
    <path
       style="fill:#ffffff;stroke-width:0.462198"
       d="m 63.34842,473.60704 c -25.770745,-3.44947 -46.118541,-24.8697 -49.292675,-51.8906 -0.654728,-5.5736 -0.654728,-352.393227 0,-357.966823 3.149511,-26.81127 22.574163,-47.569176 48.387901,-51.709116 3.69948,-0.59331 24.355058,-0.689638 148.395254,-0.692037 96.92973,-0.0019 145.35238,0.157825 147.931,0.487873 24.31722,3.112458 43.1953,21.208875 48.99611,46.967364 l 0.95709,4.249975 0.13305,114.867294 0.13305,114.86729 h -16.28855 -16.28856 l -0.11855,-113.68674 -0.11856,-113.686752 -1.025,-2.833311 c -1.42638,-3.942744 -4.76674,-8.888114 -7.67223,-11.358672 -2.90757,-2.472308 -7.11872,-4.632856 -10.43844,-5.355488 -3.37914,-0.735566 -288.097669,-0.742069 -291.519779,-0.0067 -8.91995,1.916893 -17.03193,10.384465 -18.868324,19.695433 -0.35132,1.781274 -0.491622,52.74305 -0.486862,176.84605 0.0059,152.0457 0.09209,174.72176 0.674417,177.29989 1.898272,8.40417 7.983612,15.33125 16.237303,18.48331 l 3.21288,1.22697 77.923895,0.1309 77.9239,0.13095 v 17.2231 17.22315 l -77.9239,-0.0599 c -42.85814,-0.0331 -79.247132,-0.23701 -80.86442,-0.45348 z m 223.1749,-0.13548 c -1.03858,-0.35587 -2.76896,-1.16379 -3.84531,-1.79538 -2.58954,-1.51955 -67.78619,-54.61554 -70.80085,-57.66007 -1.41557,-1.4296 -2.84792,-3.50689 -3.6191,-5.24867 -1.14427,-2.58446 -1.27617,-3.39573 -1.27485,-7.84101 0.002,-4.54119 0.11271,-5.1878 1.32358,-7.6866 4.32241,-8.91969 15.308,-12.63185 23.55631,-7.9599 1.24407,0.70464 14.42736,11.20707 29.29622,23.33876 14.86884,12.13164 27.18511,22.0463 27.36949,22.03251 0.18437,-0.0137 19.77661,-24.0477 43.53831,-53.40877 23.7617,-29.36112 44.48493,-54.8389 46.05165,-56.61737 4.48785,-5.0944 9.52479,-7.03333 15.69937,-6.04346 5.67726,0.9102 10.13944,4.22834 12.60545,9.37373 2.62781,5.48289 2.58918,11.38081 -0.11055,16.88056 -1.01397,2.06558 -101.27524,125.4272 -104.45258,128.51858 -1.17651,1.14471 -3.2099,2.5956 -4.51866,3.22427 -2.94978,1.41689 -8.05847,1.83849 -10.81848,0.89282 z m -184.1401,-148.3115 c -6.293932,-2.05836 -11.120988,-7.86018 -12.33004,-14.81998 -1.351645,-7.78061 2.939817,-15.95502 10.28217,-19.58561 l 3.04945,-1.50785 103.34095,-0.12308 c 113.99257,-0.13577 106.31276,-0.3289 110.97004,2.79068 4.23401,2.83606 7.12612,7.30098 8.13891,12.56507 1.3687,7.11401 -3.5508,16.50843 -10.39928,19.85878 l -2.5948,1.26942 -104.27553,0.088 c -85.29686,0.072 -104.62248,-0.0255 -106.18187,-0.53545 z m -0.35559,-96.60877 c -3.138545,-1.05424 -6.569981,-3.61938 -8.650341,-6.46649 -7.272007,-9.95218 -2.646291,-24.79364 8.876541,-28.48012 2.90522,-0.92946 4.18665,-0.93925 106.77322,-0.81575 l 103.83271,0.125 3.00273,1.54306 c 7.51031,3.85947 11.74373,12.71304 9.65869,20.19972 -1.72975,6.21101 -5.19382,10.78295 -10.05787,13.27459 l -2.62269,1.34349 -104.04934,0.0941 c -101.69781,0.092 -104.11067,0.0735 -106.76365,-0.81762 z m 0.35559,-97.00259 c -6.289718,-2.05185 -11.120882,-7.85803 -12.33004,-14.81847 -1.351645,-7.78058 2.939817,-15.95499 10.28217,-19.585584 l 3.04945,-1.50785 h 104.27551 c 98.23465,0 104.40656,0.048 106.53747,0.82817 4.58901,1.6802 9.13425,6.415214 10.88232,11.336664 3.17193,8.93019 -2.06036,20.291 -10.82633,23.50705 -2.47674,0.90866 -4.36378,0.92453 -106.24286,0.8935 -84.45758,-0.0258 -104.07539,-0.14709 -105.62769,-0.65348 z"
       id="path191" />
  </g>
</svg>
