<?xml version="1.0" encoding="UTF-8" standalone="no"?>
<!-- Created with Inkscape (http://www.inkscape.org/) -->

<svg
   version="1.1"
   id="svg2"
   width="607.95172"
   height="473.6557"
   viewBox="0 0 607.95172 473.6557"
   sodipodi:docname="export.svg"
   inkscape:version="1.2 (dc2aedaf03, 2022-05-15)"
   xmlns:inkscape="http://www.inkscape.org/namespaces/inkscape"
   xmlns:sodipodi="http://sodipodi.sourceforge.net/DTD/sodipodi-0.dtd"
   xmlns="http://www.w3.org/2000/svg"
   xmlns:svg="http://www.w3.org/2000/svg">
  <defs
     id="defs6" />
  <sodipodi:namedview
     id="namedview4"
     pagecolor="#ffffff"
     bordercolor="#999999"
     borderopacity="1"
     inkscape:showpageshadow="0"
     inkscape:pageopacity="0"
     inkscape:pagecheckerboard="0"
     inkscape:deskcolor="#d1d1d1"
     showgrid="false"
     inkscape:zoom="0.80954661"
     inkscape:cx="902.97457"
     inkscape:cy="271.75705"
     inkscape:window-width="2560"
     inkscape:window-height="1057"
     inkscape:window-x="-8"
     inkscape:window-y="-8"
     inkscape:window-maximized="1"
     inkscape:current-layer="g8" />
  <g
     inkscape:groupmode="layer"
     inkscape:label="Image"
     id="g8"
     transform="translate(0,-305.10905)">
    <path
       style="fill:#ffffff;stroke-width:0.605408"
       d="m 50.248147,771.91666 c -5.60215,-2.55892 -7.68011,-5.52036 -11.2149,-15.98316 C 5.1360667,655.59971 3.7832867,651.15221 5.4837967,645.63433 c 1.70326,-5.5268 2.56901,-6.25674 49.3595503,-41.61679 50.102183,-37.86268 49.634263,-37.53113 56.287943,-39.88346 l 4.66871,-1.65058 29.71275,-0.1943 29.71275,-0.19429 -43.18492,42.19584 -43.184923,42.19586 43.411693,0.15361 43.41169,0.15363 21.16117,30.66327 21.16118,30.66329 86.68506,-0.15162 86.68505,-0.15161 22.11174,-30.66099 22.11173,-30.66098 43.18908,-2.5e-4 43.18907,-2.5e-4 -43.18745,-42.17789 -43.18744,-42.17789 h 27.31575 c 30.51427,0 32.75942,0.23798 40.87014,4.33208 6.22831,3.14391 96.14422,71.38959 98.19146,74.52677 4.81152,7.37317 5.50115,4.31189 -15.05275,66.8194 -9.62965,29.28522 -17.78859,54.09812 -18.13099,55.13979 -0.95668,2.91054 -5.35982,7.38689 -8.80881,8.95529 l -3.08651,1.40357 H 305.10392 53.311317 Z M 255.79182,603.2826 c -1.51354,-0.74737 -3.37442,-2.27364 -4.13528,-3.3917 l -1.38337,-2.03284 V 521.9665 446.07494 h -47.12906 c -51.77323,0 -49.3726,0.1724 -48.93458,-3.5143 0.20003,-1.6837 143.99944,-132.54612 147.22819,-133.98275 2.30266,-1.02456 6.4595,-0.85971 8.67734,0.34412 3.9131,2.124 147.22842,132.39665 147.22842,133.82964 0,3.46381 2.08075,3.32329 -49.21212,3.32329 h -46.97143 v 75.4056 c 0,85.07437 0.39221,78.32068 -4.72886,81.42989 l -2.31642,1.40639 -47.78546,0.16232 -47.78546,0.16231 z"
       id="path170" />
  </g>
</svg>
