<?xml version="1.0" encoding="UTF-8" standalone="no"?>
<!-- Created with Inkscape (http://www.inkscape.org/) -->

<svg
   version="1.1"
   id="svg2"
   width="1920"
   height="649"
   viewBox="0 0 1920 649"
   sodipodi:docname="googleLogo.svg"
   inkscape:version="1.2 (dc2aedaf03, 2022-05-15)"
   xmlns:inkscape="http://www.inkscape.org/namespaces/inkscape"
   xmlns:sodipodi="http://sodipodi.sourceforge.net/DTD/sodipodi-0.dtd"
   xmlns="http://www.w3.org/2000/svg"
   xmlns:svg="http://www.w3.org/2000/svg">
  <defs
     id="defs6" />
  <sodipodi:namedview
     id="namedview4"
     pagecolor="#ffffff"
     bordercolor="#999999"
     borderopacity="1"
     inkscape:showpageshadow="0"
     inkscape:pageopacity="0"
     inkscape:pagecheckerboard="0"
     inkscape:deskcolor="#d1d1d1"
     showgrid="false"
     inkscape:zoom="0.5542686"
     inkscape:cx="922.83778"
     inkscape:cy="195.75347"
     inkscape:window-width="1920"
     inkscape:window-height="1051"
     inkscape:window-x="-9"
     inkscape:window-y="-9"
     inkscape:window-maximized="1"
     inkscape:current-layer="g8" />
  <g
     inkscape:groupmode="layer"
     inkscape:label="Image"
     id="g8">
    <g
       id="g116"
       transform="translate(1.8041794,3.608357)">
      <path
         style="fill:#fefefe"
         d="M 0,324.5 V 0 h 960 960 V 324.5 649 H 960 0 Z m 1347.5,304.44044 c 66.0148,-5.71537 110.777,-43.01903 126.5469,-105.46096 6.6145,-26.19034 6.3008,-17.49652 6.6838,-185.22948 L 1481.0783,186 H 1448.0391 1415 v 12.5 c 0,7.07154 -0.4053,12.5 -0.9333,12.5 -0.5134,0 -3.2383,-2.24502 -6.0553,-4.98892 -14.3644,-13.99133 -34.9832,-24.16579 -57.0114,-28.13263 -11.8126,-2.12721 -34.4107,-1.63209 -47,1.02975 -39.9412,8.44505 -74.1549,31.88881 -97.1837,66.5918 -35.1067,52.90358 -35.2588,122.15867 -0.3832,174.45678 23.0092,34.50374 57.0348,57.99044 96.6074,66.68464 6.7286,1.47829 12.4495,1.84359 27.9595,1.78531 17.767,-0.0668 20.3689,-0.30666 29.2773,-2.69934 17.7554,-4.76884 35.3724,-14.45286 47.1782,-25.93367 3.2768,-3.18655 6.3148,-5.79372 6.7511,-5.79372 1.3688,0 0.8638,32.9581 -0.6589,43 -6.3487,41.87037 -30.4165,65.67154 -70.8043,70.01994 -36.7876,3.9608 -69.3768,-14.18172 -86.5952,-48.20777 l -3.3517,-6.62358 -12.6483,5.25934 c -6.9565,2.89264 -20.0732,8.32355 -29.1482,12.06868 -9.075,3.74514 -16.8898,7.1483 -17.3662,7.56259 -1.2118,1.05369 9.0714,20.38222 16.0545,30.17663 7.5294,10.56071 24.6568,27.7208 34.8148,34.88127 25.1023,17.69491 53.6395,26.89188 85.9969,27.71506 2.75,0.07 10.4,-0.34031 17,-0.91172 z m -31,-204.04884 c -24.6184,-6.04258 -46.8533,-24.75044 -57.6084,-48.47031 -6.0518,-13.34695 -8.074,-22.61454 -8.602,-39.42129 -0.4046,-12.87875 -0.154,-17.10736 1.4818,-25.00465 11.1595,-53.87595 61.4765,-85.62312 110.0532,-69.43727 36.6097,12.19843 60.2784,51.86141 57.8496,96.94192 -2.2965,42.62348 -27.3891,76.09274 -64.0842,85.47711 -10.6,2.71086 -27.8509,2.67312 -39.09,-0.0855 z m -634.79749,63.00452 c 12.18635,-1.36233 29.28037,-5.9269 41.16672,-10.99264 51.59677,-21.98957 86.13314,-68.0468 93.16921,-124.2492 1.71275,-13.68103 0.72026,-40.21446 -1.97547,-52.81285 -6.5438,-30.58211 -20.38886,-56.23585 -42.02871,-77.87569 -26.92392,-26.92393 -58.85093,-41.51932 -98.78426,-45.15909 -10.35242,-0.94359 -16.14758,-0.94359 -26.5,0 -39.80444,3.62803 -71.78299,18.25402 -98.79247,45.1846 -21.87124,21.80735 -35.24896,46.63969 -42.1602,78.25972 -1.9598,8.96637 -2.23509,13.06489 -2.1997,32.74903 0.0445,24.74984 1.18205,32.59299 7.43353,51.2524 20.30549,60.60784 76.17839,102.08514 141.46884,105.01954 7.92727,0.35629 17.91961,-0.11448 29.20251,-1.37582 z M 644.06532,425.97104 C 609.98911,418.8264 583.53321,392.72817 574.95384,357.79389 573.83357,353.23225 572.65137,344.55 572.32673,338.5 569.32455,282.5512 607.86784,238.65844 660,238.65844 c 52.1088,0 90.6741,43.91783 87.67327,99.84156 -1.41066,26.28919 -11.5111,48.81209 -29.36873,65.48915 -9.59879,8.96421 -20.0022,15.13912 -32.30454,19.17423 -8.47364,2.77932 -11.01253,3.14954 -23.5,3.42671 -7.7,0.17092 -15.99561,-0.10766 -18.43468,-0.61905 z M 291,486.52523 c 49.18421,-7.47098 89.57608,-27.52393 123.80423,-61.46388 34.53896,-34.24815 53.48809,-74.87354 59.72949,-128.05522 2.34422,-19.97462 1.68727,-59.90762 -1.13936,-69.25613 -0.49983,-1.65309 -6.7275,-1.75 -112.46175,-1.75 H 249 v 33 33 h 79.34861 79.34862 l -0.88079,5.75 C 404.15393,315.13151 397.44039,336.01665 390.34211,349 379.57898,368.68665 357.95447,389.31478 334,402.74605 302.12291,420.61954 253.92945,427.1371 213.92494,418.9847 110.98103,398.00607 50.477837,290.08706 84.531243,188.18632 106.07947,123.70582 162.73081,78.393455 231.20457,70.870184 c 12.40561,-1.363016 36.91563,-0.576874 48.68676,1.561595 30.67045,5.571914 58.22587,18.557032 81.96381,38.624321 l 7.35514,6.2178 23.3675,-23.351625 23.36749,-23.351626 -2.22263,-2.404372 C 412.50019,66.843873 406.90022,61.965078 401.27827,57.32451 369.03707,30.711436 333.7687,14.159598 294.19378,7.0685817 218.39328,-6.5133218 139.11604,16.233228 82.956402,67.677675 23.603906,122.04691 -5.2898511,197.82094 4.0919924,274.5 10.640201,328.01938 34.642771,376.64006 73.973649,416.0554 113.44359,455.6101 161.71889,479.47316 218.5,487.4965 c 14.03551,1.98326 56.8229,1.41004 72.5,-0.97127 z m 741.1157,-0.41088 c 31.1025,-6.79439 56.4644,-20.54846 78.4488,-42.54384 22.8819,-22.89328 37.0784,-49.94514 43.0697,-82.07051 2.5262,-13.54557 2.5491,-43.88818 0.043,-57.23577 -9.3515,-49.81015 -38.482,-89.0734 -82.1774,-110.76212 -14.1646,-7.03075 -24.1563,-10.64469 -37.417,-13.53345 -52.8227,-11.5071 -107.73813,3.5753 -145.4466,39.94659 -22.66766,21.86383 -36.75365,47.6049 -43.82386,80.08475 -3.2475,14.91867 -3.68635,43.63416 -0.91548,59.90334 11.38302,66.83563 61.63476,116.33966 129.60294,127.67452 12.4385,2.07433 46.2896,1.22914 58.6157,-1.46351 z M 978.71529,424.94184 C 947.16049,417.1862 922.60775,392.03663 913.8502,358.5 c -2.03391,-7.78878 -2.34453,-11.28786 -2.3081,-26 0.031,-12.52256 0.48737,-18.77447 1.73267,-23.73731 8.68298,-34.60384 32.04622,-59.17563 64.63184,-67.97517 10.8955,-2.94226 30.49929,-2.92997 41.66289,0.0261 38.5392,10.20502 64.3067,42.9319 67.0762,85.19231 3.1636,48.27484 -26.6015,90.24369 -70.6212,99.5761 -9.4819,2.0102 -27.80491,1.69579 -37.30921,-0.64021 z M 1797.5,487.48714 c 32.0798,-4.81538 62.1391,-20.19653 85.8457,-43.92663 7.8203,-7.82806 20.3905,-23.21628 19.5551,-23.93899 -0.5233,-0.45273 -51.0547,-34.04401 -52.5288,-34.91911 -0.6524,-0.38733 -2.2188,0.97881 -3.7157,3.24078 -3.7752,5.70468 -14.235,16.6157 -20.6906,21.58317 -7.9112,6.08755 -17.0857,10.85737 -26.9657,14.01946 -11.4149,3.65333 -32.3321,4.57969 -45.098,1.99726 -23.3968,-4.73301 -41.7155,-18.23479 -53.7591,-39.62324 l -3.1421,-5.58015 103.3378,-42.76085 c 56.8358,-23.51847 103.8573,-43.08186 104.4921,-43.4742 1.2907,-0.79773 -7.1261,-22.7698 -13.8302,-36.10361 -14.1048,-28.05304 -38.6132,-53.68777 -63.8537,-66.78806 -20.7037,-10.74563 -36.5976,-14.51871 -61.6468,-14.63443 -19.6058,-0.0906 -30.7339,1.57768 -47.5,7.12086 -22.1096,7.30983 -41.036,19.35578 -58.0365,36.93786 -29.4468,30.4544 -44.4141,71.78944 -42.665,117.82762 0.8197,21.57304 4.0508,37.51038 11.1986,55.23675 20.2433,50.20246 64.7873,85.32928 119.0029,93.84406 11.3563,1.78355 37.9354,1.75243 50,-0.0585 z M 1686.0174,319.75 c 0.066,-27.43183 15.8375,-54.92187 40.2344,-70.12777 28.82,-17.96274 65.1634,-16.13262 87.0978,4.38595 6.7803,6.3426 12.5752,15.40837 10.4039,16.27613 -0.6894,0.27552 -14.7535,6.12112 -31.2535,12.99023 C 1726.7724,310.63756 1687.1374,327 1686.583,327 c -0.3207,0 -0.5752,-3.2625 -0.5656,-7.25 z M 1588,250.5 V 21 H 1554.5 1521 V 250.5 480 h 33.5 33.5 z"
         id="path132" />
      <path
         style="fill:#8eb5f7"
         d="m 1328.7764,629.2665 c 2.3521,-0.21124 5.9521,-0.20827 8,0.007 2.048,0.21487 0.1236,0.38771 -4.2764,0.38408 -4.4,-0.004 -6.0756,-0.17944 -3.7236,-0.39069 z m -15.5074,-0.95949 c 0.973,-0.25354 2.323,-0.23687 3,0.0371 0.6771,0.27393 -0.119,0.48137 -1.769,0.46099 -1.65,-0.0204 -2.2039,-0.2445 -1.231,-0.49804 z m 36,0 c 0.973,-0.25354 2.323,-0.23687 3,0.0371 0.6771,0.27393 -0.119,0.48137 -1.769,0.46099 -1.65,-0.0204 -2.2039,-0.2445 -1.231,-0.49804 z m -43.519,-0.96929 c 0.6875,-0.27741 1.8125,-0.27741 2.5,0 0.6875,0.27741 0.125,0.50439 -1.25,0.50439 -1.375,0 -1.9375,-0.22698 -1.25,-0.50439 z m 52,0 c 0.6875,-0.27741 1.8125,-0.27741 2.5,0 0.6875,0.27741 0.125,0.50439 -1.25,0.50439 -1.375,0 -1.9375,-0.22698 -1.25,-0.50439 z m -56.9375,-1.02083 c 0.7219,-0.28887 1.5844,-0.25335 1.9167,0.0789 0.3323,0.33229 -0.2584,0.56864 -1.3125,0.52522 -1.165,-0.048 -1.4019,-0.28494 -0.6042,-0.60416 z m 64,0 c 0.7219,-0.28887 1.5844,-0.25335 1.9167,0.0789 0.3323,0.33229 -0.2584,0.56864 -1.3125,0.52522 -1.165,-0.048 -1.4019,-0.28494 -0.6042,-0.60416 z m 9,-2 c 0.7219,-0.28887 1.5844,-0.25335 1.9167,0.0789 0.3323,0.33229 -0.2584,0.56864 -1.3125,0.52522 -1.165,-0.048 -1.4019,-0.28494 -0.6042,-0.60416 z M 1428,598.62244 c 0,-0.20765 0.7875,-0.99515 1.75,-1.75 1.5861,-1.24387 1.6214,-1.2085 0.3776,0.37756 -1.3064,1.66575 -2.1276,2.19548 -2.1276,1.37244 z M 1236.8724,596.25 c -1.2438,-1.58606 -1.2085,-1.62143 0.3776,-0.37756 0.9625,0.75485 1.75,1.54235 1.75,1.75 0,0.82304 -0.8212,0.29331 -2.1276,-1.37244 z m -10.9013,-10 -6.4711,-6.75 6.75,6.47111 c 3.7125,3.55911 6.75,6.59661 6.75,6.75 0,0.73602 -1.0182,-0.20142 -7.0289,-6.47111 z M 1436,591.62244 c 0,-0.20765 0.7875,-0.99515 1.75,-1.75 1.5861,-1.24387 1.6214,-1.2085 0.3776,0.37756 -1.3064,1.66575 -2.1276,2.19548 -2.1276,1.37244 z M 1444.5,582 c 0.9955,-1.1 2.035,-2 2.31,-2 0.275,0 -0.3145,0.9 -1.31,2 -0.9955,1.1 -2.035,2 -2.31,2 -0.275,0 0.3145,-0.9 1.31,-2 z m -229.6276,-7.75 c -1.2438,-1.58606 -1.2085,-1.62143 0.3776,-0.37756 0.9625,0.75485 1.75,1.54235 1.75,1.75 0,0.82304 -0.8212,0.29331 -2.1276,-1.37244 z m 107.3776,-6.93933 c 0.9625,-0.25152 2.5375,-0.25152 3.5,0 0.9625,0.25153 0.175,0.45733 -1.75,0.45733 -1.925,0 -2.7125,-0.2058 -1.75,-0.45733 z m 17,0 c 0.9625,-0.25152 2.5375,-0.25152 3.5,0 0.9625,0.25153 0.175,0.45733 -1.75,0.45733 -1.925,0 -2.7125,-0.2058 -1.75,-0.45733 z m -23.4375,-0.99378 c 0.7219,-0.28887 1.5844,-0.25335 1.9167,0.0789 0.3323,0.33229 -0.2584,0.56864 -1.3125,0.52522 -1.165,-0.048 -1.4019,-0.28494 -0.6042,-0.60416 z m 33,0 c 0.7219,-0.28887 1.5844,-0.25335 1.9167,0.0789 0.3323,0.33229 -0.2584,0.56864 -1.3125,0.52522 -1.165,-0.048 -1.4019,-0.28494 -0.6042,-0.60416 z M 1386.5,550 c 0.9955,-1.1 2.035,-2 2.31,-2 0.275,0 -0.3145,0.9 -1.31,2 -0.9955,1.1 -2.035,2 -2.31,2 -0.275,0 0.3145,-0.9 1.31,-2 z m -113.5757,-6.75 -2.4243,-2.75 2.75,2.42431 c 2.5703,2.26589 3.2086,3.07569 2.4243,3.07569 -0.1791,0 -1.4166,-1.2375 -2.75,-2.75 z M 1394,542.62244 c 0,-0.20765 0.7875,-0.99515 1.75,-1.75 1.5861,-1.24387 1.6214,-1.2085 0.3776,0.37756 -1.3064,1.66575 -2.1276,2.19548 -2.1276,1.37244 z m -201,-4.524 c 0,-1.03844 1.9022,-2.54172 2.4657,-1.94858 0.1829,0.19258 -0.297,0.93038 -1.0666,1.63957 -0.7695,0.70918 -1.3991,0.84824 -1.3991,0.30901 z m 284.0789,-31.68177 c 0.048,-1.16495 0.285,-1.4019 0.6042,-0.60417 0.2889,0.72187 0.2534,1.58438 -0.079,1.91667 -0.3323,0.33229 -0.5687,-0.25834 -0.5253,-1.3125 z m -64,-7 c 0.048,-1.16495 0.285,-1.4019 0.6042,-0.60417 0.2889,0.72187 0.2534,1.58438 -0.079,1.91667 -0.3323,0.33229 -0.5687,-0.25834 -0.5253,-1.3125 z m 65,0 c 0.048,-1.16495 0.285,-1.4019 0.6042,-0.60417 0.2889,0.72187 0.2534,1.58438 -0.079,1.91667 -0.3323,0.33229 -0.5687,-0.25834 -0.5253,-1.3125 z M 1414.1579,492 c 0,-1.375 0.227,-1.9375 0.5044,-1.25 0.2774,0.6875 0.2774,1.8125 0,2.5 -0.2774,0.6875 -0.5044,0.125 -0.5044,-1.25 z m 65.037,-1.5 c 0.02,-1.65 0.2445,-2.20394 0.4981,-1.23097 0.2535,0.97297 0.2369,2.32297 -0.037,3 -0.2739,0.67703 -0.4813,-0.11903 -0.461,-1.76903 z M 229.76166,488.29274 c 1.24391,-0.23919 3.04391,-0.23011 4,0.0202 0.95609,0.25029 -0.0617,0.446 -2.26166,0.4349 -2.2,-0.0111 -2.98225,-0.21589 -1.73834,-0.45508 z m 37,0 c 1.24391,-0.23919 3.04391,-0.23011 4,0.0202 0.95609,0.25029 -0.0617,0.446 -2.26166,0.4349 -2.2,-0.0111 -2.98225,-0.21589 -1.73834,-0.45508 z m 1049.50734,0.0143 c 0.973,-0.25354 2.323,-0.23687 3,0.0371 0.6771,0.27393 -0.119,0.48137 -1.769,0.46099 -1.65,-0.0204 -2.2039,-0.2445 -1.231,-0.49804 z m 25,0 c 0.973,-0.25354 2.323,-0.23687 3,0.0371 0.6771,0.27393 -0.119,0.48137 -1.769,0.46099 -1.65,-0.0204 -2.2039,-0.2445 -1.231,-0.49804 z M 219.75,487.33772 c 0.6875,-0.27741 1.8125,-0.27741 2.5,0 0.6875,0.27741 0.125,0.50439 -1.25,0.50439 -1.375,0 -1.9375,-0.22698 -1.25,-0.50439 z m 59.51903,-0.0307 c 0.97297,-0.25354 2.32297,-0.23687 3,0.0371 0.67703,0.27393 -0.11903,0.48137 -1.76903,0.46099 -1.65,-0.0204 -2.20394,-0.2445 -1.23097,-0.49804 z m 1029.54347,0.01 c 0.7219,-0.28887 1.5844,-0.25335 1.9167,0.0789 0.3323,0.33229 -0.2584,0.56864 -1.3125,0.52522 -1.165,-0.048 -1.4019,-0.28494 -0.6042,-0.60416 z m 41,0 c 0.7219,-0.28887 1.5844,-0.25335 1.9167,0.0789 0.3323,0.33229 -0.2584,0.56864 -1.3125,0.52522 -1.165,-0.048 -1.4019,-0.28494 -0.6042,-0.60416 z m -1137,-1 c 0.72187,-0.28887 1.58437,-0.25335 1.91667,0.0789 0.33229,0.33229 -0.25834,0.56864 -1.3125,0.52522 -1.16495,-0.048 -1.4019,-0.28494 -0.60417,-0.60416 z m 74.9375,0.0208 c 0.6875,-0.27741 1.8125,-0.27741 2.5,0 0.6875,0.27741 0.125,0.50439 -1.25,0.50439 -1.375,0 -1.9375,-0.22698 -1.25,-0.50439 z m 7.0625,-1.02083 c 0.72187,-0.28887 1.58438,-0.25335 1.91667,0.0789 0.33229,0.33229 -0.25834,0.56864 -1.3125,0.52522 -1.16495,-0.048 -1.4019,-0.28494 -0.60417,-0.60416 z m -94,-1 c 0.72187,-0.28887 1.58437,-0.25335 1.91667,0.0789 0.33229,0.33229 -0.25834,0.56864 -1.3125,0.52522 -1.16495,-0.048 -1.4019,-0.28494 -0.60417,-0.60416 z m 100,0 c 0.72187,-0.28887 1.58438,-0.25335 1.91667,0.0789 0.33229,0.33229 -0.25834,0.56864 -1.3125,0.52522 -1.16495,-0.048 -1.4019,-0.28494 -0.60417,-0.60416 z m 5,-1 c 0.72187,-0.28887 1.58438,-0.25335 1.91667,0.0789 0.33229,0.33229 -0.25834,0.56864 -1.3125,0.52522 -1.16495,-0.048 -1.4019,-0.28494 -0.60417,-0.60416 z m 1109.4048,-15.48356 c -0.1563,-9.82788 -0.5684,-13.80834 -1.4673,-14.17105 -0.9791,-0.39506 -0.9723,-0.5215 0.031,-0.58333 2.056,-0.12668 2.2993,1.78643 1.9673,15.47394 l -0.314,12.94711 -0.2174,-13.66667 z M 1480.4869,332.5 c 0,-80.85 0.1184,-113.77722 0.263,-73.17161 0.1447,40.60562 0.1447,106.75562 0,147 -0.1447,40.24439 -0.2631,7.02161 -0.263,-73.82839 z m -73.5287,127.25 c 4.144,-4.41519 5.0418,-5.20909 5.0418,-4.45821 0,0.16049 -2.1375,2.29799 -4.75,4.75 L 1402.5,464.5 Z m -165.0858,-1.5 c -1.2438,-1.58606 -1.2085,-1.62143 0.3776,-0.37756 1.6657,1.30637 2.1955,2.12756 1.3724,2.12756 -0.2076,0 -0.9951,-0.7875 -1.75,-1.75 z m -5,-4 c -1.2438,-1.58606 -1.2085,-1.62143 0.3776,-0.37756 1.6657,1.30637 2.1955,2.12756 1.3724,2.12756 -0.2076,0 -0.9951,-0.7875 -1.75,-1.75 z m -10.9066,-10 -5.4658,-5.75 5.75,5.46584 c 5.3419,5.07794 6.2081,6.03416 5.4658,6.03416 -0.1562,0 -2.7437,-2.5875 -5.75,-5.75 z M 396,441.62244 c 0,-0.20765 0.7875,-0.99515 1.75,-1.75 1.58606,-1.24387 1.62143,-1.2085 0.37756,0.37756 C 396.82119,441.91575 396,442.44548 396,441.62244 Z m 5,-3.93535 c 0,-0.1721 1.4625,-1.6346 3.25,-3.25 l 3.25,-2.93709 -2.93709,3.25 C 401.82513,437.77946 401,438.45965 401,437.68709 Z m 815.405,-3.93709 -1.905,-2.25 2.25,1.90499 c 2.1144,1.79022 2.7052,2.59501 1.905,2.59501 -0.1898,0 -1.2023,-1.0125 -2.25,-2.25 z M 88.404988,429.75 86.5,427.5 l 2.25,1.90499 C 90.864445,431.19521 91.455241,432 90.654988,432 c -0.189757,0 -1.202257,-1.0125 -2.25,-2.25 z M 415.5,424 c 2.14824,-2.2 4.1309,-4 4.4059,-4 0.275,0 -1.25766,1.8 -3.4059,4 -2.14824,2.2 -4.1309,4 -4.4059,4 -0.275,0 1.25766,-1.8 3.4059,-4 z m 916.7802,3.26373 c 2.6291,-0.20668 6.6791,-0.20418 9,0.006 2.3209,0.20972 0.1698,0.37882 -4.7802,0.37577 -4.95,-0.003 -6.8489,-0.17464 -4.2198,-0.38131 z m -10.4677,-0.94684 c 0.7219,-0.28887 1.5844,-0.25335 1.9167,0.0789 0.3323,0.33229 -0.2584,0.56864 -1.3125,0.52522 -1.165,-0.048 -1.4019,-0.28494 -0.6042,-0.60416 z m 28,0 c 0.7219,-0.28887 1.5844,-0.25335 1.9167,0.0789 0.3323,0.33229 -0.2584,0.56864 -1.3125,0.52522 -1.165,-0.048 -1.4019,-0.28494 -0.6042,-0.60416 z M 73.98025,416.25 64.5,406.5 l 9.75,9.48025 C 83.305697,424.78541 84.454893,426 83.73025,426 c -0.148363,0 -4.535863,-4.3875 -9.75,-9.75 z m 163.2835,6.03242 c 1.52006,-0.22986 3.77006,-0.22371 5,0.0136 1.22994,0.23736 -0.0137,0.42542 -2.76375,0.41792 -2.75,-0.008 -3.75631,-0.20172 -2.23625,-0.43157 z m 21.48625,0.0118 c 1.2375,-0.23836 3.2625,-0.23836 4.5,0 1.2375,0.23835 0.225,0.43337 -2.25,0.43337 -2.475,0 -3.4875,-0.19502 -2.25,-0.43337 z m -33,-0.95655 c 0.6875,-0.27741 1.8125,-0.27741 2.5,0 0.6875,0.27741 0.125,0.50439 -1.25,0.50439 -1.375,0 -1.9375,-0.22698 -1.25,-0.50439 z m 47.0625,-0.0208 c 0.72187,-0.28887 1.58438,-0.25335 1.91667,0.0789 0.33229,0.33229 -0.25834,0.56864 -1.3125,0.52522 -1.16495,-0.048 -1.4019,-0.28494 -0.60417,-0.60416 z m -53,-1 c 0.72187,-0.28887 1.58437,-0.25335 1.91667,0.0789 0.33229,0.33229 -0.25834,0.56864 -1.3125,0.52522 -1.16495,-0.048 -1.4019,-0.28494 -0.60417,-0.60416 z m 59.9375,0.0208 c 0.6875,-0.27741 1.8125,-0.27741 2.5,0 0.6875,0.27741 0.125,0.50439 -1.25,0.50439 -1.375,0 -1.9375,-0.22698 -1.25,-0.50439 z m -65.9375,-1.02083 c 0.72187,-0.28887 1.58437,-0.25335 1.91667,0.0789 0.33229,0.33229 -0.25834,0.56864 -1.3125,0.52522 -1.16495,-0.048 -1.4019,-0.28494 -0.60417,-0.60416 z m 72,0 c 0.72187,-0.28887 1.58438,-0.25335 1.91667,0.0789 0.33229,0.33229 -0.25834,0.56864 -1.3125,0.52522 -1.16495,-0.048 -1.4019,-0.28494 -0.60417,-0.60416 z M 426.5,412 c 0.99549,-1.1 2.03498,-2 2.30998,-2 0.275,0 -0.31449,0.9 -1.30998,2 -0.99549,1.1 -2.03498,2 -2.30998,2 -0.275,0 0.31449,-0.9 1.30998,-2 z m 956.5,0.62244 c 0,-0.20765 0.7875,-0.99515 1.75,-1.75 1.5861,-1.24387 1.6214,-1.2085 0.3776,0.37756 -1.3064,1.66575 -2.1276,2.19548 -2.1276,1.37244 z M 1283.8724,409.25 c -1.2438,-1.58606 -1.2085,-1.62143 0.3776,-0.37756 1.6657,1.30637 2.1955,2.12756 1.3724,2.12756 -0.2076,0 -0.9951,-0.7875 -1.75,-1.75 z M 1392.5,404 c 2.7086,-2.75 5.1498,-5 5.4248,-5 0.275,0 -1.7162,2.25 -4.4248,5 -2.7086,2.75 -5.1498,5 -5.4248,5 -0.275,0 1.7162,-2.25 4.4248,-5 z m -116.5757,-1.75 -2.4243,-2.75 2.75,2.42431 c 1.5125,1.33338 2.75,2.57088 2.75,2.75 0,0.78428 -0.8098,0.14598 -3.0757,-2.42431 z M 59.404988,400.75 57.5,398.5 l 2.25,1.90499 c 1.2375,1.04774 2.25,2.06024 2.25,2.25 0,0.80025 -0.804794,0.20945 -2.595012,-1.90499 z m -4.532543,-5.5 c -1.243871,-1.58606 -1.208501,-1.62143 0.377555,-0.37756 0.9625,0.75485 1.75,1.54235 1.75,1.75 0,0.82304 -0.821186,0.29331 -2.127555,-1.37244 z m 1214.999955,0 c -1.2438,-1.58606 -1.2085,-1.62143 0.3776,-0.37756 1.6657,1.30637 2.1955,2.12756 1.3724,2.12756 -0.2076,0 -0.9951,-0.7875 -1.75,-1.75 z M 358.5,386 c 0.99549,-1.1 2.03498,-2 2.30998,-2 0.275,0 -0.31449,0.9 -1.30998,2 -0.99549,1.1 -2.03498,2 -2.30998,2 -0.275,0 0.31449,-0.9 1.30998,-2 z m -221.62756,-3.75 c -1.24387,-1.58606 -1.2085,-1.62143 0.37756,-0.37756 0.9625,0.75485 1.75,1.54235 1.75,1.75 0,0.82304 -0.82119,0.29331 -2.12756,-1.37244 z M 370,375.5 c 3.54322,-3.575 6.66722,-6.5 6.94222,-6.5 0.275,0 -2.399,2.925 -5.94222,6.5 -3.54322,3.575 -6.66722,6.5 -6.94222,6.5 -0.275,0 2.399,-2.925 5.94222,-6.5 z m -244.5313,-3.75 -5.9687,-6.25 6.25,5.9687 c 3.4375,3.28278 6.25,6.09528 6.25,6.25 0,0.7389 -0.98689,-0.16298 -6.5313,-5.9687 z M 379,365.62244 c 0,-0.20765 0.7875,-0.99515 1.75,-1.75 1.58606,-1.24387 1.62143,-1.2085 0.37756,0.37756 C 379.82119,365.91575 379,366.44548 379,365.62244 Z M 115.40499,360.75 113.5,358.5 l 2.25,1.90499 c 2.11444,1.79022 2.70524,2.59501 1.90499,2.59501 -0.18976,0 -1.20226,-1.0125 -2.25,-2.25 z m 1066.67391,-2.33333 c 0.048,-1.16495 0.285,-1.4019 0.6042,-0.60417 0.2889,0.72187 0.2534,1.58438 -0.079,1.91667 -0.3323,0.33229 -0.5687,-0.25834 -0.5253,-1.3125 z m 236,-5 c 0.048,-1.16495 0.285,-1.4019 0.6042,-0.60417 0.2889,0.72187 0.2534,1.58438 -0.079,1.91667 -0.3323,0.33229 -0.5687,-0.25834 -0.5253,-1.3125 z M 1181.1579,351 c 0,-1.375 0.227,-1.9375 0.5044,-1.25 0.2774,0.6875 0.2774,1.8125 0,2.5 -0.2774,0.6875 -0.5044,0.125 -0.5044,-1.25 z m 69,-2 c 0,-1.375 0.227,-1.9375 0.5044,-1.25 0.2774,0.6875 0.2774,1.8125 0,2.5 -0.2774,0.6875 -0.5044,0.125 -0.5044,-1.25 z m 169,-3 c 0,-1.375 0.227,-1.9375 0.5044,-1.25 0.2774,0.6875 0.2774,1.8125 0,2.5 -0.2774,0.6875 -0.5044,0.125 -0.5044,-1.25 z m -238.7974,-13 c 0,-5.225 0.1685,-7.3625 0.3745,-4.75 0.206,2.6125 0.206,6.8875 0,9.5 -0.206,2.6125 -0.3745,0.475 -0.3745,-4.75 z m 69,0 c 0,-5.225 0.1685,-7.3625 0.3745,-4.75 0.206,2.6125 0.206,6.8875 0,9.5 -0.206,2.6125 -0.3745,0.475 -0.3745,-4.75 z m -780.28155,-7.58333 c 0.048,-1.16495 0.28494,-1.4019 0.60416,-0.60417 0.28887,0.72187 0.25335,1.58438 -0.0789,1.91667 -0.33229,0.33229 -0.56864,-0.25834 -0.52522,-1.3125 z M 1419.1949,320.5 c 0.02,-1.65 0.2445,-2.20394 0.4981,-1.23097 0.2535,0.97297 0.2369,2.32297 -0.037,3 -0.2739,0.67703 -0.4813,-0.11903 -0.461,-1.76903 z m -169.116,-3.08333 c 0.048,-1.16495 0.285,-1.4019 0.6042,-0.60417 0.2889,0.72187 0.2534,1.58438 -0.079,1.91667 -0.3323,0.33229 -0.5687,-0.25834 -0.5253,-1.3125 z M 1181.1579,316 c 0,-1.375 0.227,-1.9375 0.5044,-1.25 0.2774,0.6875 0.2774,1.8125 0,2.5 -0.2774,0.6875 -0.5044,0.125 -0.5044,-1.25 z m 236.921,-2.58333 c 0.048,-1.16495 0.285,-1.4019 0.6042,-0.60417 0.2889,0.72187 0.2534,1.58438 -0.079,1.91667 -0.3323,0.33229 -0.5687,-0.25834 -0.5253,-1.3125 z m -945.99995,-3 c 0.048,-1.16495 0.28494,-1.4019 0.60416,-0.60417 0.28887,0.72187 0.25335,1.58438 -0.0789,1.91667 -0.33229,0.33229 -0.56864,-0.25834 -0.52522,-1.3125 z m 709.99995,-2 c 0.048,-1.16495 0.285,-1.4019 0.6042,-0.60417 0.2889,0.72187 0.2534,1.58438 -0.079,1.91667 -0.3323,0.33229 -0.5687,-0.25834 -0.5253,-1.3125 z m -776.99995,-2 c 0.048,-1.16495 0.28494,-1.4019 0.60416,-0.60417 0.28887,0.72187 0.25335,1.58438 -0.0789,1.91667 -0.33229,0.33229 -0.56864,-0.25834 -0.52522,-1.3125 z M 473.15789,304 c 0,-1.375 0.22698,-1.9375 0.50439,-1.25 0.27741,0.6875 0.27741,1.8125 0,2.5 -0.27741,0.6875 -0.50439,0.125 -0.50439,-1.25 z m 709.92101,-1.58333 c 0.048,-1.16495 0.285,-1.4019 0.6042,-0.60417 0.2889,0.72187 0.2534,1.58438 -0.079,1.91667 -0.3323,0.33229 -0.5687,-0.25834 -0.5253,-1.3125 z M 474.15789,296 c 0,-1.375 0.22698,-1.9375 0.50439,-1.25 0.27741,0.6875 0.27741,1.8125 0,2.5 -0.27741,0.6875 -0.50439,0.125 -0.50439,-1.25 z m -67.07894,-1.58333 c 0.048,-1.16495 0.28494,-1.4019 0.60416,-0.60417 0.28887,0.72187 0.25335,1.58438 -0.0789,1.91667 -0.33229,0.33229 -0.56864,-0.25834 -0.52522,-1.3125 z M 475.25218,284.5 c 0.0111,-2.2 0.21589,-2.98225 0.45508,-1.73834 0.23919,1.24391 0.23011,3.04391 -0.0202,4 -0.25029,0.95609 -0.446,-0.0617 -0.4349,-2.26166 z M 5.0789474,283.41667 c 0.047984,-1.16495 0.2849403,-1.4019 0.6041666,-0.60417 0.2888706,0.72187 0.2533443,1.58438 -0.078947,1.91667 -0.3322917,0.33229 -0.5686404,-0.25834 -0.5252196,-1.3125 z M 4.1578947,276 c 0,-1.375 0.2269737,-1.9375 0.504386,-1.25 0.2774123,0.6875 0.2774123,1.8125 0,2.5 -0.2774123,0.6875 -0.504386,0.125 -0.504386,-1.25 z m 72.0000003,-4 c 0,-1.375 0.226973,-1.9375 0.504386,-1.25 0.277412,0.6875 0.277412,1.8125 0,2.5 -0.277413,0.6875 -0.504386,0.125 -0.504386,-1.25 z M 1269,271.62244 c 0,-0.20765 0.7875,-0.99515 1.75,-1.75 1.5861,-1.24387 1.6214,-1.2085 0.3776,0.37756 -1.3064,1.66575 -2.1276,2.19548 -2.1276,1.37244 z M 3.2320027,267 c 0,-1.925 0.2057953,-2.7125 0.4573228,-1.75 0.2515276,0.9625 0.2515276,2.5375 0,3.5 C 3.437798,269.7125 3.2320027,268.925 3.2320027,267 Z M 1391.9658,261.25 1386.5,255.5 l 5.75,5.46584 c 5.3419,5.07794 6.2081,6.03416 5.4658,6.03416 -0.1562,0 -2.7437,-2.5875 -5.75,-5.75 z M 75.232003,263 c 0,-1.925 0.205795,-2.7125 0.457323,-1.75 0.251527,0.9625 0.251527,2.5375 0,3.5 -0.251528,0.9625 -0.457323,0.175 -0.457323,-1.75 z M 1274,265.68709 c 0,-0.1721 1.4625,-1.6346 3.25,-3.25 l 3.25,-2.93709 -2.9371,3.25 c -2.7378,3.02946 -3.5629,3.70965 -3.5629,2.93709 z M 2.3549555,246.5 c -0.00305,-4.95 0.1660513,-7.10108 0.3757752,-4.78017 0.209724,2.3209 0.2122174,6.3709 0.00554,9 C 2.5295953,253.34892 2.358003,251.45 2.3549555,246.5 Z M 475.27236,247 c 0,-2.475 0.19502,-3.4875 0.43337,-2.25 0.23836,1.2375 0.23836,3.2625 0,4.5 -0.23835,1.2375 -0.43337,0.225 -0.43337,-2.25 z M 74.157895,246 c 0,-1.375 0.226973,-1.9375 0.504386,-1.25 0.277412,0.6875 0.277412,1.8125 0,2.5 -0.277413,0.6875 -0.504386,0.125 -0.504386,-1.25 z m 400.037055,-9.5 c 0.0204,-1.65 0.2445,-2.20394 0.49804,-1.23097 0.25354,0.97297 0.23687,2.32297 -0.0371,3 -0.27393,0.67703 -0.48137,-0.11903 -0.46099,-1.76903 z m 852.07405,1.80701 c 0.973,-0.25354 2.323,-0.23687 3,0.0371 0.6771,0.27393 -0.119,0.48137 -1.769,0.46099 -1.65,-0.0204 -2.2039,-0.2445 -1.231,-0.49804 z m 18,0 c 0.973,-0.25354 2.323,-0.23687 3,0.0371 0.6771,0.27393 -0.119,0.48137 -1.769,0.46099 -1.65,-0.0204 -2.2039,-0.2445 -1.231,-0.49804 z M 1216.5,232 c 0.9955,-1.1 2.035,-2 2.31,-2 0.275,0 -0.3145,0.9 -1.31,2 -0.9955,1.1 -2.035,2 -2.31,2 -0.275,0 0.3145,-0.9 1.31,-2 z M 75.232003,230 c 0,-1.925 0.205795,-2.7125 0.457323,-1.75 0.251527,0.9625 0.251527,2.5375 0,3.5 -0.251528,0.9625 -0.457323,0.175 -0.457323,-1.75 z m 397.846947,-0.58333 c 0.048,-1.16495 0.28494,-1.4019 0.60416,-0.60417 0.28887,0.72187 0.25335,1.58437 -0.0789,1.91667 -0.33229,0.33229 -0.56864,-0.25834 -0.52522,-1.3125 z M 3.2320027,226 c 0,-1.925 0.2057953,-2.7125 0.4573228,-1.75 0.2515276,0.9625 0.2515276,2.5375 0,3.5 C 3.437798,228.7125 3.2320027,227.925 3.2320027,226 Z M 1226.5,221 c 3.2656,-3.3 6.1624,-6 6.4374,-6 0.275,0 -2.1718,2.7 -5.4374,6 -3.2656,3.3 -6.1624,6 -6.4374,6 -0.275,0 2.1718,-2.7 5.4374,-6 z M 76.157895,221 c 0,-1.375 0.226973,-1.9375 0.504386,-1.25 0.277412,0.6875 0.277412,1.8125 0,2.5 -0.277413,0.6875 -0.504386,0.125 -0.504386,-1.25 z M 4.1578947,216 c 0,-1.375 0.2269737,-1.9375 0.504386,-1.25 0.2774123,0.6875 0.2774123,1.8125 0,2.5 -0.2774123,0.6875 -0.504386,0.125 -0.504386,-1.25 z m 72.9210523,-1.58333 c 0.04798,-1.16495 0.284941,-1.4019 0.604167,-0.60417 0.288871,0.72187 0.253344,1.58437 -0.07895,1.91667 -0.332292,0.33229 -0.568641,-0.25834 -0.52522,-1.3125 z M 1237,211.62244 c 0,-0.20765 0.7875,-0.99515 1.75,-1.75 1.5861,-1.24387 1.6214,-1.2085 0.3776,0.37756 -1.3064,1.66575 -2.1276,2.19548 -2.1276,1.37244 z m 176.7175,-0.33526 c 0.8122,-0.57705 1.3281,-5.01397 1.5497,-13.32613 l 0.3321,-12.46105 -0.05,12.9182 c -0.041,10.6059 -0.3181,12.99122 -1.5496,13.32613 -1.0766,0.29278 -1.1563,0.16373 -0.2825,-0.45715 z M 5.0789474,209.41667 c 0.047984,-1.16495 0.2849403,-1.4019 0.6041666,-0.60417 0.2888706,0.72187 0.2533443,1.58437 -0.078947,1.91667 -0.3322917,0.33229 -0.5686404,-0.25834 -0.5252196,-1.3125 z M 1407.9243,206.25 1405.5,203.5 l 2.75,2.42431 c 2.5703,2.26589 3.2086,3.07569 2.4243,3.07569 -0.1791,0 -1.4166,-1.2375 -2.75,-2.75 z M 6.0789474,203.41667 c 0.047984,-1.16495 0.2849403,-1.4019 0.6041666,-0.60417 0.2888706,0.72187 0.2533443,1.58437 -0.078947,1.91667 -0.3322917,0.33229 -0.5686404,-0.25834 -0.5252196,-1.3125 z m 1,-5 c 0.047984,-1.16495 0.2849403,-1.4019 0.6041666,-0.60417 0.2888706,0.72187 0.2533443,1.58437 -0.078947,1.91667 -0.3322917,0.33229 -0.5686404,-0.25834 -0.5252196,-1.3125 z M 1381,188 c -0.9013,-0.58246 -1.0246,-0.97549 -0.309,-0.98469 0.655,-0.008 1.4691,0.43469 1.809,0.98469 0.7673,1.24153 0.4211,1.24153 -1.5,0 z m -68.1875,-10.68311 c 0.7219,-0.28887 1.5844,-0.25335 1.9167,0.0789 0.3323,0.33229 -0.2584,0.56864 -1.3125,0.52522 -1.165,-0.048 -1.4019,-0.28494 -0.6042,-0.60416 z m 33,0 c 0.7219,-0.28887 1.5844,-0.25335 1.9167,0.0789 0.3323,0.33229 -0.2584,0.56864 -1.3125,0.52522 -1.165,-0.048 -1.4019,-0.28494 -0.6042,-0.60416 z m -20.5625,-1.05193 c 2.6125,-0.206 6.8875,-0.206 9.5,0 2.6125,0.206 0.475,0.37454 -4.75,0.37454 -5.225,0 -7.3625,-0.16854 -4.75,-0.37454 z M 112,135.62244 c 0,-0.20765 0.7875,-0.99515 1.75,-1.75 1.58606,-1.24387 1.62143,-1.2085 0.37756,0.37756 C 112.82119,135.91575 112,136.44548 112,135.62244 Z M 119,127.5 c 1.29175,-1.375 2.57363,-2.5 2.84863,-2.5 0.275,0 -0.55688,1.125 -1.84863,2.5 -1.29175,1.375 -2.57363,2.5 -2.84863,2.5 -0.275,0 0.55688,-1.125 1.84863,-2.5 z m 248.40451,-11.65451 c -0.46481,-0.75207 -0.27165,-0.88141 0.55413,-0.37105 0.8566,0.52941 8.93229,-6.79755 24.90451,-22.595493 L 416.5,69.5 393.00798,93.25 C 380.08737,106.3125 369.20143,117 368.817,117 c -0.38443,0 -1.02005,-0.51953 -1.41249,-1.15451 z M 133.5,113 c 0.99549,-1.1 2.03498,-2 2.30998,-2 0.275,0 -0.31449,0.9 -1.30998,2 -0.99549,1.1 -2.03498,2 -2.30998,2 -0.275,0 0.31449,-0.9 1.30998,-2 z m 227.37244,-2.75 c -1.24387,-1.58606 -1.2085,-1.62143 0.37756,-0.37756 1.66575,1.30637 2.19548,2.12756 1.37244,2.12756 -0.20765,0 -0.99515,-0.7875 -1.75,-1.75 z M 139,108.62244 c 0,-0.20765 0.7875,-0.99515 1.75,-1.75 1.58606,-1.24387 1.62143,-1.2085 0.37756,0.37756 C 139.82119,108.91575 139,109.44548 139,108.62244 Z m -87,-8 c 0,-0.20765 0.7875,-0.995151 1.75,-1.749995 C 55.336056,97.628574 55.371426,97.663944 54.127555,99.25 52.821186,100.91575 52,101.44548 52,100.62244 Z m 4,-4.999995 c 0,-0.207656 0.7875,-0.995156 1.75,-1.75 C 59.336056,92.628574 59.371426,92.663944 58.127555,94.25 56.821186,95.915748 56,96.445479 56,95.622445 Z M 63,87.5 C 64.291745,86.125 65.573628,85 65.848628,85 66.123628,85 65.291745,86.125 64,87.5 62.708255,88.875 61.426372,90 61.151372,90 60.876372,90 61.708255,88.875 63,87.5 Z m 105,2.070368 c 0,-0.275 0.9,-0.981666 2,-1.570368 1.1,-0.588702 2,-0.845368 2,-0.570368 0,0.275 -0.9,0.981666 -2,1.570368 -1.1,0.588702 -2,0.845368 -2,0.570368 z M 325,87 c -0.90129,-0.58246 -1.02463,-0.975486 -0.30902,-0.984687 0.65504,-0.0084 1.4691,0.434687 1.80902,0.984687 0.7673,1.241525 0.42112,1.241525 -1.5,0 z M 216.8125,72.316886 c 0.72187,-0.288871 1.58437,-0.253344 1.91667,0.07895 0.33229,0.332292 -0.25834,0.568641 -1.3125,0.52522 -1.16495,-0.04798 -1.4019,-0.284941 -0.60417,-0.604167 z m 64,0 c 0.72187,-0.288871 1.58438,-0.253344 1.91667,0.07895 0.33229,0.332292 -0.25834,0.568641 -1.3125,0.52522 -1.16495,-0.04798 -1.4019,-0.284941 -0.60417,-0.604167 z m -58,-1 c 0.72187,-0.288871 1.58437,-0.253344 1.91667,0.07895 0.33229,0.332292 -0.25834,0.568641 -1.3125,0.52522 -1.16495,-0.04798 -1.4019,-0.284941 -0.60417,-0.604167 z m 52,0 c 0.72187,-0.288871 1.58438,-0.253344 1.91667,0.07895 0.33229,0.332292 -0.25834,0.568641 -1.3125,0.52522 -1.16495,-0.04798 -1.4019,-0.284941 -0.60417,-0.604167 z M 230.25,70.310674 c 0.9625,-0.251527 2.5375,-0.251527 3.5,0 0.9625,0.251528 0.175,0.457323 -1.75,0.457323 -1.925,0 -2.7125,-0.205795 -1.75,-0.457323 z m 35,0 c 0.9625,-0.251527 2.5375,-0.251527 3.5,0 0.9625,0.251528 0.175,0.457323 -1.75,0.457323 -1.925,0 -2.7125,-0.205795 -1.75,-0.457323 z m -17.48834,-1.017935 c 1.24391,-0.239193 3.04391,-0.230112 4,0.02018 0.95609,0.250292 -0.0617,0.445996 -2.26166,0.434897 -2.2,-0.0111 -2.98225,-0.215885 -1.73834,-0.455077 z M 84,66.5 C 85.291745,65.125 86.573628,64 86.848628,64 87.123628,64 86.291745,65.125 85,66.5 83.708255,67.875 82.426372,69 82.151372,69 81.876372,69 82.708255,67.875 84,66.5 Z M 409.94617,65.25 406.5,61.5 l 3.75,3.446167 c 2.0625,1.895392 3.75,3.582892 3.75,3.75 0,0.76362 -0.84622,0.04425 -4.05383,-3.446167 z M 91.5,60 c 0.995486,-1.1 2.034975,-2 2.309975,-2 0.275,0 -0.314489,0.9 -1.309975,2 -0.995486,1.1 -2.034975,2 -2.309975,2 -0.275,0 0.314489,-0.9 1.309975,-2 z M 401.87244,58.25 C 400.62857,56.663944 400.66394,56.628574 402.25,57.872445 403.91575,59.178814 404.44548,60 403.62244,60 c -0.20765,0 -0.99515,-0.7875 -1.75,-1.75 z m -10,-8 c -1.24387,-1.586056 -1.2085,-1.621426 0.37756,-0.377555 0.9625,0.754844 1.75,1.542344 1.75,1.75 0,0.823034 -0.82119,0.293303 -2.12756,-1.372445 z M 304.8125,9.316886 c 0.72187,-0.2888706 1.58438,-0.2533443 1.91667,0.078947 0.33229,0.3322917 -0.25834,0.5686404 -1.3125,0.5252193 -1.16495,-0.047984 -1.4019,-0.2849403 -0.60417,-0.6041663 z m -101,-2 c 0.72187,-0.2888706 1.58437,-0.2533443 1.91667,0.078947 0.33229,0.3322917 -0.25834,0.5686404 -1.3125,0.5252193 -1.16495,-0.047984 -1.4019,-0.2849403 -0.60417,-0.6041663 z m 91,0 c 0.72187,-0.2888706 1.58438,-0.2533443 1.91667,0.078947 0.33229,0.3322917 -0.25834,0.5686404 -1.3125,0.5252193 -1.16495,-0.047984 -1.4019,-0.2849403 -0.60417,-0.6041663 z m -85,-1 c 0.72187,-0.2888706 1.58437,-0.2533443 1.91667,0.078947 0.33229,0.3322917 -0.25834,0.5686404 -1.3125,0.5252193 -1.16495,-0.047984 -1.4019,-0.2849403 -0.60417,-0.6041663 z m 79,0 c 0.72187,-0.2888706 1.58438,-0.2533443 1.91667,0.078947 0.33229,0.3322917 -0.25834,0.5686404 -1.3125,0.5252193 -1.16495,-0.047984 -1.4019,-0.2849403 -0.60417,-0.6041663 z M 215.75,5.3377193 c 0.6875,-0.2774123 1.8125,-0.2774123 2.5,0 0.6875,0.2774123 0.125,0.504386 -1.25,0.504386 -1.375,0 -1.9375,-0.2269737 -1.25,-0.504386 z m 66,0 c 0.6875,-0.2774123 1.8125,-0.2774123 2.5,0 0.6875,0.2774123 0.125,0.504386 -1.25,0.504386 -1.375,0 -1.9375,-0.2269737 -1.25,-0.504386 z m -57.48097,-1.03071 c 0.97297,-0.2535434 2.32297,-0.2368691 3,0.037054 0.67703,0.2739231 -0.11903,0.4813677 -1.76903,0.460988 -1.65,-0.02038 -2.20394,-0.2444986 -1.23097,-0.498042 z m 47.98097,0.00367 c 0.9625,-0.2515276 2.5375,-0.2515276 3.5,0 0.9625,0.2515275 0.175,0.4573228 -1.75,0.4573228 -1.925,0 -2.7125,-0.2057953 -1.75,-0.4573228 z m -29.5,-1.0531811 c 3.9875,-0.1898119 10.5125,-0.1898119 14.5,0 3.9875,0.1898119 0.725,0.3451126 -7.25,0.3451126 -7.975,0 -11.2375,-0.1553007 -7.25,-0.3451126 z"
         id="path130" />
      <path
         style="fill:#f3a49d"
         d="m 658.75,489.33772 c 0.6875,-0.27741 1.8125,-0.27741 2.5,0 0.6875,0.27741 0.125,0.50439 -1.25,0.50439 -1.375,0 -1.9375,-0.22698 -1.25,-0.50439 z m -16,-1 c 0.6875,-0.27741 1.8125,-0.27741 2.5,0 0.6875,0.27741 0.125,0.50439 -1.25,0.50439 -1.375,0 -1.9375,-0.22698 -1.25,-0.50439 z m 32,0 c 0.6875,-0.27741 1.8125,-0.27741 2.5,0 0.6875,0.27741 0.125,0.50439 -1.25,0.50439 -1.375,0 -1.9375,-0.22698 -1.25,-0.50439 z m 307,0 c 0.6875,-0.27741 1.8125,-0.27741 2.5,0 0.6875,0.27741 0.125,0.50439 -1.25,0.50439 -1.375,0 -1.9375,-0.22698 -1.25,-0.50439 z m 32,0 c 0.6875,-0.27741 1.8125,-0.27741 2.5,0 0.6875,0.27741 0.125,0.50439 -1.25,0.50439 -1.375,0 -1.9375,-0.22698 -1.25,-0.50439 z m 742,0 c 0.6875,-0.27741 1.8125,-0.27741 2.5,0 0.6875,0.27741 0.125,0.50439 -1.25,0.50439 -1.375,0 -1.9375,-0.22698 -1.25,-0.50439 z m 31,0 c 0.6875,-0.27741 1.8125,-0.27741 2.5,0 0.6875,0.27741 0.125,0.50439 -1.25,0.50439 -1.375,0 -1.9375,-0.22698 -1.25,-0.50439 z M 634.8125,487.31689 c 0.72187,-0.28887 1.58438,-0.25335 1.91667,0.0789 0.33229,0.33229 -0.25834,0.56864 -1.3125,0.52522 -1.16495,-0.048 -1.4019,-0.28494 -0.60417,-0.60416 z m 49,0 c 0.72187,-0.28887 1.58438,-0.25335 1.91667,0.0789 0.33229,0.33229 -0.25834,0.56864 -1.3125,0.52522 -1.16495,-0.048 -1.4019,-0.28494 -0.60417,-0.60416 z m 290,0 c 0.72187,-0.28887 1.58438,-0.25335 1.91667,0.0789 0.33229,0.33229 -0.25834,0.56864 -1.3125,0.52522 -1.16495,-0.048 -1.4019,-0.28494 -0.60417,-0.60416 z m 774,0 c 0.7219,-0.28887 1.5844,-0.25335 1.9167,0.0789 0.3323,0.33229 -0.2584,0.56864 -1.3125,0.52522 -1.165,-0.048 -1.4019,-0.28494 -0.6042,-0.60416 z m 48,0 c 0.7219,-0.28887 1.5844,-0.25335 1.9167,0.0789 0.3323,0.33229 -0.2584,0.56864 -1.3125,0.52522 -1.165,-0.048 -1.4019,-0.28494 -0.6042,-0.60416 z m -1167,-1 c 0.72187,-0.28887 1.58438,-0.25335 1.91667,0.0789 0.33229,0.33229 -0.25834,0.56864 -1.3125,0.52522 -1.16495,-0.048 -1.4019,-0.28494 -0.60417,-0.60416 z m 61,0 c 0.72187,-0.28887 1.58438,-0.25335 1.91667,0.0789 0.33229,0.33229 -0.25834,0.56864 -1.3125,0.52522 -1.16495,-0.048 -1.4019,-0.28494 -0.60417,-0.60416 z m 278,0 c 0.72187,-0.28887 1.58438,-0.25335 1.91667,0.0789 0.33229,0.33229 -0.25834,0.56864 -1.3125,0.52522 -1.16495,-0.048 -1.4019,-0.28494 -0.60417,-0.60416 z M 896.87244,453.25 c -1.24387,-1.58606 -1.2085,-1.62143 0.37756,-0.37756 0.9625,0.75485 1.75,1.54235 1.75,1.75 0,0.82304 -0.82119,0.29331 -2.12756,-1.37244 z m -340,-1 c -1.24387,-1.58606 -1.2085,-1.62143 0.37756,-0.37756 0.9625,0.75485 1.75,1.54235 1.75,1.75 0,0.82304 -0.82119,0.29331 -2.12756,-1.37244 z M 1872,453.62244 c 0,-0.20765 0.7875,-0.99515 1.75,-1.75 1.5861,-1.24387 1.6214,-1.2085 0.3776,0.37756 -1.3064,1.66575 -2.1276,2.19548 -2.1276,1.37244 z m -771,-1 c 0,-0.20765 0.7875,-0.99515 1.75,-1.75 1.5861,-1.24387 1.6214,-1.2085 0.3776,0.37756 -1.3064,1.66575 -2.1276,2.19548 -2.1276,1.37244 z M 1668.8724,451.25 c -1.2438,-1.58606 -1.2085,-1.62143 0.3776,-0.37756 1.6657,1.30637 2.1955,2.12756 1.3724,2.12756 -0.2076,0 -0.9951,-0.7875 -1.75,-1.75 z M 886,443.5 c -2.42903,-2.475 -4.19142,-4.5 -3.91642,-4.5 0.275,0 2.48739,2.025 4.91642,4.5 2.42903,2.475 4.19142,4.5 3.91642,4.5 -0.275,0 -2.48739,-2.025 -4.91642,-4.5 z m -338.56291,0.25 -2.93709,-3.25 3.25,2.93709 c 1.7875,1.6154 3.25,3.0779 3.25,3.25 0,0.77256 -0.82513,0.0924 -3.56291,-2.93709 z M 772,443.5 c 1.86578,-1.925 3.61733,-3.5 3.89233,-3.5 0.275,0 -1.02655,1.575 -2.89233,3.5 -1.86578,1.925 -3.61733,3.5 -3.89233,3.5 -0.275,0 1.02655,-1.575 2.89233,-3.5 z m 1111,0 c 1.8658,-1.925 3.6173,-3.5 3.8923,-3.5 0.275,0 -1.0265,1.575 -2.8923,3.5 -1.8658,1.925 -3.6173,3.5 -3.8923,3.5 -0.275,0 1.0265,-1.575 2.8923,-3.5 z m -228.1276,-6.25 c -1.2438,-1.58606 -1.2085,-1.62143 0.3776,-0.37756 1.6657,1.30637 2.1955,2.12756 1.3724,2.12756 -0.2076,0 -0.9951,-0.7875 -1.75,-1.75 z M 1117,436.62244 c 0,-0.20765 0.7875,-0.99515 1.75,-1.75 1.5861,-1.24387 1.6214,-1.2085 0.3776,0.37756 -1.3064,1.66575 -2.1276,2.19548 -2.1276,1.37244 z m -460.75,-9.35091 c 2.0625,-0.21574 5.4375,-0.21574 7.5,0 2.0625,0.21575 0.375,0.39226 -3.75,0.39226 -4.125,0 -5.8125,-0.17651 -3.75,-0.39226 z m 339,0 c 2.0625,-0.21574 5.4375,-0.21574 7.5,0 2.0625,0.21575 0.375,0.39226 -3.75,0.39226 -4.125,0 -5.8125,-0.17651 -3.75,-0.39226 z m 773.5264,-0.005 c 2.3521,-0.21124 5.9521,-0.20827 8,0.007 2.048,0.21487 0.1236,0.38771 -4.2764,0.38408 -4.4,-0.004 -6.0756,-0.17944 -3.7236,-0.39069 z M 645.8125,426.31689 c 0.72187,-0.28887 1.58438,-0.25335 1.91667,0.0789 0.33229,0.33229 -0.25834,0.56864 -1.3125,0.52522 -1.16495,-0.048 -1.4019,-0.28494 -0.60417,-0.60416 z m 27,0 c 0.72187,-0.28887 1.58438,-0.25335 1.91667,0.0789 0.33229,0.33229 -0.25834,0.56864 -1.3125,0.52522 -1.16495,-0.048 -1.4019,-0.28494 -0.60417,-0.60416 z m 1084,0 c 0.7219,-0.28887 1.5844,-0.25335 1.9167,0.0789 0.3323,0.33229 -0.2584,0.56864 -1.3125,0.52522 -1.165,-0.048 -1.4019,-0.28494 -0.6042,-0.60416 z M 939.92431,404.25 937.5,401.5 l 2.75,2.42431 c 1.5125,1.33338 2.75,2.57088 2.75,2.75 0,0.78428 -0.8098,0.14598 -3.07569,-2.42431 z m -341.47136,-2.5 -3.95295,-4.25 4.25,3.95295 c 3.95246,3.6762 4.70953,4.54705 3.95295,4.54705 -0.16338,0 -2.07588,-1.9125 -4.25,-4.25 z M 720,402.5 c 1.86578,-1.925 3.61733,-3.5 3.89233,-3.5 0.275,0 -1.02655,1.575 -2.89233,3.5 -1.86578,1.925 -3.61733,3.5 -3.89233,3.5 -0.275,0 1.02655,-1.575 2.89233,-3.5 z m 1115,-1 c 1.8658,-1.925 3.6173,-3.5 3.8923,-3.5 0.275,0 -1.0265,1.575 -2.8923,3.5 -1.8658,1.925 -3.6173,3.5 -3.8923,3.5 -0.275,0 1.0265,-1.575 2.8923,-3.5 z m -777,2.12244 c 0,-0.20765 0.7875,-0.99515 1.75,-1.75 1.5861,-1.24387 1.6214,-1.2085 0.3776,0.37756 -1.3064,1.66575 -2.1276,2.19548 -2.1276,1.37244 z M 934.40499,398.75 932.5,396.5 l 2.25,1.90499 c 1.2375,1.04774 2.25,2.06024 2.25,2.25 0,0.80025 -0.80479,0.20945 -2.59501,-1.90499 z M 504.15789,356 c 0,-1.375 0.22698,-1.9375 0.50439,-1.25 0.27741,0.6875 0.27741,1.8125 0,2.5 -0.27741,0.6875 -0.50439,0.125 -0.50439,-1.25 z m 310.92106,-0.58333 c 0.048,-1.16495 0.28494,-1.4019 0.60416,-0.60417 0.28887,0.72187 0.25335,1.58438 -0.0789,1.91667 -0.33229,0.33229 -0.56864,-0.25834 -0.52522,-1.3125 z m 338.99995,-1 c 0.048,-1.16495 0.285,-1.4019 0.6042,-0.60417 0.2889,0.72187 0.2534,1.58438 -0.079,1.91667 -0.3323,0.33229 -0.5687,-0.25834 -0.5253,-1.3125 z m 464,0 c 0.048,-1.16495 0.285,-1.4019 0.6042,-0.60417 0.2889,0.72187 0.2534,1.58438 -0.079,1.91667 -0.3323,0.33229 -0.5687,-0.25834 -0.5253,-1.3125 z m -533,-3 c 0.048,-1.16495 0.285,-1.4019 0.6042,-0.60417 0.2889,0.72187 0.2534,1.58438 -0.079,1.91667 -0.3323,0.33229 -0.5687,-0.25834 -0.5253,-1.3125 z M 842.19495,348.5 c 0.0204,-1.65 0.2445,-2.20394 0.49804,-1.23097 0.25354,0.97297 0.23687,2.32297 -0.0371,3 -0.27393,0.67703 -0.48137,-0.11903 -0.46099,-1.76903 z m -339,-2 c 0.0204,-1.65 0.2445,-2.20394 0.49804,-1.23097 0.25354,0.97297 0.23687,2.32297 -0.0371,3 -0.27393,0.67703 -0.48137,-0.11903 -0.46099,-1.76903 z m 313,0 c 0.0204,-1.65 0.2445,-2.20394 0.49804,-1.23097 0.25354,0.97297 0.23687,2.32297 -0.0371,3 -0.27393,0.67703 -0.48137,-0.11903 -0.46099,-1.76903 z m 94.884,0.91667 c 0.048,-1.16495 0.28494,-1.4019 0.60416,-0.60417 0.28887,0.72187 0.25335,1.58438 -0.0789,1.91667 -0.33229,0.33229 -0.56864,-0.25834 -0.52522,-1.3125 z m -339,-2 c 0.048,-1.16495 0.28494,-1.4019 0.60416,-0.60417 0.28887,0.72187 0.25335,1.58438 -0.0789,1.91667 -0.33229,0.33229 -0.56864,-0.25834 -0.52522,-1.3125 z m 175,0 c 0.048,-1.16495 0.28494,-1.4019 0.60416,-0.60417 0.28887,0.72187 0.25335,1.58438 -0.0789,1.91667 -0.33229,0.33229 -0.56864,-0.25834 -0.52522,-1.3125 z M 1617.1949,344.5 c 0.02,-1.65 0.2445,-2.20394 0.4981,-1.23097 0.2535,0.97297 0.2369,2.32297 -0.037,3 -0.2739,0.67703 -0.4813,-0.11903 -0.461,-1.76903 z m -531.037,-0.5 c 0,-1.375 0.227,-1.9375 0.5044,-1.25 0.2774,0.6875 0.2774,1.8125 0,2.5 -0.2774,0.6875 -0.5044,0.125 -0.5044,-1.25 z m 69.037,-0.5 c 0.02,-1.65 0.2445,-2.20394 0.4981,-1.23097 0.2535,0.97297 0.2369,2.32297 -0.037,3 -0.2739,0.67703 -0.4813,-0.11903 -0.461,-1.76903 z M 910.32007,333 c 0,-3.575 0.1815,-5.0375 0.40333,-3.25 0.22182,1.7875 0.22182,4.7125 0,6.5 -0.22183,1.7875 -0.40333,0.325 -0.40333,-3.25 z M 1685.116,321.75 c 0.1254,-6.75464 0.6029,-6.09898 1.0924,1.5 0.1683,2.6125 -0.035,4.75 -0.4512,4.75 -0.4165,0 -0.705,-2.8125 -0.6412,-6.25 z m -529.9211,-0.25 c 0.02,-1.65 0.2445,-2.20394 0.4981,-1.23097 0.2535,0.97297 0.2369,2.32297 -0.037,3 -0.2739,0.67703 -0.4813,-0.11903 -0.461,-1.76903 z m -69.116,-0.0833 c 0.048,-1.16495 0.285,-1.4019 0.6042,-0.60417 0.2889,0.72187 0.2534,1.58438 -0.079,1.91667 -0.3323,0.33229 -0.5687,-0.25834 -0.5253,-1.3125 z M 1617.232,320 c 0,-1.925 0.2058,-2.7125 0.4573,-1.75 0.2516,0.9625 0.2516,2.5375 0,3.5 -0.2515,0.9625 -0.4573,0.175 -0.4573,-1.75 z m -1114,-1 c 0,-1.925 0.2058,-2.7125 0.45733,-1.75 0.25152,0.9625 0.25152,2.5375 0,3.5 -0.25153,0.9625 -0.45733,0.175 -0.45733,-1.75 z m 68.92589,1 c 0,-1.375 0.22698,-1.9375 0.50439,-1.25 0.27741,0.6875 0.27741,1.8125 0,2.5 -0.27741,0.6875 -0.50439,0.125 -0.50439,-1.25 z m 175,0 c 0,-1.375 0.22698,-1.9375 0.50439,-1.25 0.27741,0.6875 0.27741,1.8125 0,2.5 -0.27741,0.6875 -0.50439,0.125 -0.50439,-1.25 z m 69.07411,-1 c 0,-1.925 0.2058,-2.7125 0.45733,-1.75 0.25152,0.9625 0.25152,2.5375 0,3.5 -0.25153,0.9625 -0.45733,0.175 -0.45733,-1.75 z m 94.84695,-0.58333 c 0.048,-1.16495 0.28494,-1.4019 0.60416,-0.60417 0.28887,0.72187 0.25335,1.58438 -0.0789,1.91667 -0.33229,0.33229 -0.56864,-0.25834 -0.52522,-1.3125 z M 842.15789,317 c 0,-1.375 0.22698,-1.9375 0.50439,-1.25 0.27741,0.6875 0.27741,1.8125 0,2.5 -0.27741,0.6875 -0.50439,0.125 -0.50439,-1.25 z m 311.92101,-5.58333 c 0.048,-1.16495 0.285,-1.4019 0.6042,-0.60417 0.2889,0.72187 0.2534,1.58438 -0.079,1.91667 -0.3323,0.33229 -0.5687,-0.25834 -0.5253,-1.3125 z M 1618.1579,310 c 0,-1.375 0.227,-1.9375 0.5044,-1.25 0.2774,0.6875 0.2774,1.8125 0,2.5 -0.2774,0.6875 -0.5044,0.125 -0.5044,-1.25 z M 504.07895,309.41667 c 0.048,-1.16495 0.28494,-1.4019 0.60416,-0.60417 0.28887,0.72187 0.25335,1.58438 -0.0789,1.91667 -0.33229,0.33229 -0.56864,-0.25834 -0.52522,-1.3125 z m 311,0 c 0.048,-1.16495 0.28494,-1.4019 0.60416,-0.60417 0.28887,0.72187 0.25335,1.58438 -0.0789,1.91667 -0.33229,0.33229 -0.56864,-0.25834 -0.52522,-1.3125 z m 870.99995,0 c 0.048,-1.16495 0.285,-1.4019 0.6042,-0.60417 0.2889,0.72187 0.2534,1.58438 -0.079,1.91667 -0.3323,0.33229 -0.5687,-0.25834 -0.5253,-1.3125 z m -842.99995,-1 c 0.048,-1.16495 0.28494,-1.4019 0.60416,-0.60417 0.28887,0.72187 0.25335,1.58438 -0.0789,1.91667 -0.33229,0.33229 -0.56864,-0.25834 -0.52522,-1.3125 z m -338,-5 c 0.048,-1.16495 0.28494,-1.4019 0.60416,-0.60417 0.28887,0.72187 0.25335,1.58438 -0.0789,1.91667 -0.33229,0.33229 -0.56864,-0.25834 -0.52522,-1.3125 z m 309,0 c 0.048,-1.16495 0.28494,-1.4019 0.60416,-0.60417 0.28887,0.72187 0.25335,1.58438 -0.0789,1.91667 -0.33229,0.33229 -0.56864,-0.25834 -0.52522,-1.3125 z M 592,270.62244 c 0,-0.20765 0.7875,-0.99515 1.75,-1.75 1.58606,-1.24387 1.62143,-1.2085 0.37756,0.37756 C 592.82119,270.91575 592,271.44548 592,270.62244 Z M 725.87244,269.25 c -1.24387,-1.58606 -1.2085,-1.62143 0.37756,-0.37756 0.9625,0.75485 1.75,1.54235 1.75,1.75 0,0.82304 -0.82119,0.29331 -2.12756,-1.37244 z m 337.99996,-1 c -1.2438,-1.58606 -1.2085,-1.62143 0.3776,-0.37756 0.9625,0.75485 1.75,1.54235 1.75,1.75 0,0.82304 -0.8212,0.29331 -2.1276,-1.37244 z m -10,-10 c -1.2438,-1.58606 -1.2085,-1.62143 0.3776,-0.37756 0.9625,0.75485 1.75,1.54235 1.75,1.75 0,0.82304 -0.8212,0.29331 -2.1276,-1.37244 z m 760.5805,-3.5 -3.9529,-4.25 4.25,3.95295 c 2.3375,2.17412 4.25,4.08662 4.25,4.25 0,0.75658 -0.8709,-4.9e-4 -4.5471,-3.95295 z M 643.8125,239.31689 c 0.72187,-0.28887 1.58438,-0.25335 1.91667,0.0789 0.33229,0.33229 -0.25834,0.56864 -1.3125,0.52522 -1.16495,-0.048 -1.4019,-0.28494 -0.60417,-0.60416 z m 31,0 c 0.72187,-0.28887 1.58438,-0.25335 1.91667,0.0789 0.33229,0.33229 -0.25834,0.56864 -1.3125,0.52522 -1.16495,-0.048 -1.4019,-0.28494 -0.60417,-0.60416 z M 650.75,238.33772 c 0.6875,-0.27741 1.8125,-0.27741 2.5,0 0.6875,0.27741 0.125,0.50439 -1.25,0.50439 -1.375,0 -1.9375,-0.22698 -1.25,-0.50439 z m 16,0 c 0.6875,-0.27741 1.8125,-0.27741 2.5,0 0.6875,0.27741 0.125,0.50439 -1.25,0.50439 -1.375,0 -1.9375,-0.22698 -1.25,-0.50439 z m 322,0 c 0.6875,-0.27741 1.8125,-0.27741 2.5,0 0.6875,0.27741 0.125,0.50439 -1.25,0.50439 -1.375,0 -1.9375,-0.22698 -1.25,-0.50439 z m 17,0 c 0.6875,-0.27741 1.8125,-0.27741 2.5,0 0.6875,0.27741 0.125,0.50439 -1.25,0.50439 -1.375,0 -1.9375,-0.22698 -1.25,-0.50439 z m 752.0625,-1.02083 c 0.7219,-0.28887 1.5844,-0.25335 1.9167,0.0789 0.3323,0.33229 -0.2584,0.56864 -1.3125,0.52522 -1.165,-0.048 -1.4019,-0.28494 -0.6042,-0.60416 z m 18,0 c 0.7219,-0.28887 1.5844,-0.25335 1.9167,0.0789 0.3323,0.33229 -0.2584,0.56864 -1.3125,0.52522 -1.165,-0.048 -1.4019,-0.28494 -0.6042,-0.60416 z M 540.5,229 c 0.99549,-1.1 2.03498,-2 2.30998,-2 0.275,0 -0.31449,0.9 -1.30998,2 -0.99549,1.1 -2.03498,2 -2.30998,2 -0.275,0 0.31449,-0.9 1.30998,-2 z m 237.90499,-0.25 -1.90499,-2.25 2.25,1.90499 c 1.2375,1.04774 2.25,2.06024 2.25,2.25 0,0.80025 -0.80479,0.20945 -2.59501,-1.90499 z M 878,230.62244 c 0,-0.20765 0.7875,-0.99515 1.75,-1.75 1.58606,-1.24387 1.62143,-1.2085 0.37756,0.37756 C 878.82119,230.91575 878,231.44548 878,230.62244 Z m 236.4371,-4.87244 -2.9371,-3.25 3.25,2.93709 c 3.0295,2.73778 3.7097,3.56291 2.9371,3.56291 -0.1721,0 -1.6346,-1.4625 -3.25,-3.25 z M 1652,228.62244 c 0,-0.20765 0.7875,-0.99515 1.75,-1.75 1.5861,-1.24387 1.6214,-1.2085 0.3776,0.37756 -1.3064,1.66575 -2.1276,2.19548 -2.1276,1.37244 z M 1866.8724,223.25 c -1.2438,-1.58606 -1.2085,-1.62143 0.3776,-0.37756 1.6657,1.30637 2.1955,2.12756 1.3724,2.12756 -0.2076,0 -0.9951,-0.7875 -1.75,-1.75 z m -760.9481,-6 -2.4243,-2.75 2.75,2.42431 c 1.5125,1.33338 2.75,2.57088 2.75,2.75 0,0.78428 -0.8098,0.14598 -3.0757,-2.42431 z M 553,216.62244 c 0,-0.20765 0.7875,-0.99515 1.75,-1.75 1.58606,-1.24387 1.62143,-1.2085 0.37756,0.37756 C 553.82119,216.91575 553,217.44548 553,216.62244 Z M 764.40499,214.75 762.5,212.5 l 2.25,1.90499 c 1.2375,1.04774 2.25,2.06024 2.25,2.25 0,0.80025 -0.80479,0.20945 -2.59501,-1.90499 z M 893,215.62244 c 0,-0.20765 0.7875,-0.99515 1.75,-1.75 1.58606,-1.24387 1.62143,-1.2085 0.37756,0.37756 C 893.82119,215.91575 893,216.44548 893,215.62244 Z m 776,-4 c 0,-0.20765 0.7875,-0.99515 1.75,-1.75 1.5861,-1.24387 1.6214,-1.2085 0.3776,0.37756 -1.3064,1.66575 -2.1276,2.19548 -2.1276,1.37244 z m 183.405,-2.87244 -1.905,-2.25 2.25,1.90499 c 2.1144,1.79022 2.7052,2.59501 1.905,2.59501 -0.1898,0 -1.2023,-1.0125 -2.25,-2.25 z m -827.5925,-30.43311 c 0.7219,-0.28887 1.5844,-0.25335 1.9167,0.0789 0.3323,0.33229 -0.2584,0.56864 -1.3125,0.52522 -1.165,-0.048 -1.4019,-0.28494 -0.6042,-0.60416 z m -385,-1 c 0.72187,-0.28887 1.58438,-0.25335 1.91667,0.0789 0.33229,0.33229 -0.25834,0.56864 -1.3125,0.52522 -1.16495,-0.048 -1.4019,-0.28494 -0.60417,-0.60416 z m 39,0 c 0.72187,-0.28887 1.58438,-0.25335 1.91667,0.0789 0.33229,0.33229 -0.25834,0.56864 -1.3125,0.52522 -1.16495,-0.048 -1.4019,-0.28494 -0.60417,-0.60416 z m 300,0 c 0.72187,-0.28887 1.58438,-0.25335 1.91667,0.0789 0.33229,0.33229 -0.25834,0.56864 -1.3125,0.52522 -1.16495,-0.048 -1.4019,-0.28494 -0.60417,-0.60416 z m 39,0 c 0.7219,-0.28887 1.5844,-0.25335 1.9167,0.0789 0.3323,0.33229 -0.2584,0.56864 -1.3125,0.52522 -1.165,-0.048 -1.4019,-0.28494 -0.6042,-0.60416 z m 727,0 c 0.7219,-0.28887 1.5844,-0.25335 1.9167,0.0789 0.3323,0.33229 -0.2584,0.56864 -1.3125,0.52522 -1.165,-0.048 -1.4019,-0.28494 -0.6042,-0.60416 z m 38,0 c 0.7219,-0.28887 1.5844,-0.25335 1.9167,0.0789 0.3323,0.33229 -0.2584,0.56864 -1.3125,0.52522 -1.165,-0.048 -1.4019,-0.28494 -0.6042,-0.60416 z M 654.25,176.26101 c 3.1625,-0.19845 8.3375,-0.19845 11.5,0 3.1625,0.19845 0.575,0.36082 -5.75,0.36082 -6.325,0 -8.9125,-0.16237 -5.75,-0.36082 z m 339.03651,-0.001 c 3.18258,-0.19905 8.13259,-0.1972 10.99999,0.004 2.8674,0.20131 0.2635,0.36417 -5.7865,0.36191 -6.05,-0.002 -8.39607,-0.16696 -5.21349,-0.36601 z m 761.97719,0.0225 c 1.5201,-0.22986 3.7701,-0.22371 5,0.0136 1.23,0.23736 -0.014,0.42542 -2.7637,0.41792 -2.75,-0.008 -3.7563,-0.20172 -2.2363,-0.43157 z m 14.4863,0.0119 c 1.2375,-0.23836 3.2625,-0.23836 4.5,0 1.2375,0.23835 0.225,0.43337 -2.25,0.43337 -2.475,0 -3.4875,-0.19502 -2.25,-0.43337 z"
         id="path128" />
      <path
         style="fill:#f9bb05"
         d="m 982,488.37959 c -1.925,-0.24021 -8.25059,-1.32085 -14.05687,-2.40142 -54.89196,-10.21559 -100.07808,-49.20153 -117.44968,-101.3339 -6.2496,-18.75509 -7.81865,-28.79976 -7.911,-50.64427 -0.0872,-20.62497 0.71112,-27.53136 5.08298,-43.97342 14.0846,-52.97051 55.46398,-93.84951 109.29404,-107.97242 16.33959,-4.28687 27.33272,-5.3837 47.79433,-4.76865 12.6772,0.38106 20.6026,1.14677 27.7462,2.68068 60.9465,13.0868 107.0071,58.6943 119.515,118.3395 4.9061,23.39536 4.7545,47.95655 -0.4362,70.69431 -13.7242,60.11807 -59.8018,104.55916 -121.4276,117.11502 -9.4141,1.91808 -39.56455,3.33606 -48.1512,2.26457 z m 30.2811,-61.86938 c 29.5991,-5.16164 52.9159,-23.16693 65.6135,-50.66669 7.0625,-15.29582 8.5788,-22.88734 8.5573,-42.84352 -0.014,-13.10581 -0.4456,-19.19172 -1.7181,-24.23731 -7.1945,-28.52708 -24.0283,-50.12083 -48.5015,-62.21581 -20.5328,-10.14758 -45.99353,-11.24979 -68.10801,-2.94842 -20.77688,7.79925 -40.66762,27.12145 -49.48497,48.07052 -16.0671,38.17373 -8.28304,82.71271 19.30237,110.44466 14.10506,14.17999 30.11817,21.94335 52.05831,25.23852 5.80797,0.8723 14.2885,0.55184 22.2811,-0.84195 z"
         id="path126" />
      <path
         style="fill:#4184f3"
         d="m 1308.6584,627.43102 c -19.014,-2.95756 -37.691,-9.46973 -52.6539,-18.35902 -24.2406,-14.40112 -46.2777,-38.19461 -58.615,-63.2868 -2.0863,-4.24314 -3.5222,-7.98588 -3.1908,-8.31721 0.5867,-0.58667 53.6016,-22.92892 57.0146,-24.02782 1.2679,-0.40822 2.1176,0.41604 3.2685,3.17045 2.6064,6.23801 12.2138,19.90576 18.4307,26.21991 C 1289.37,559.54555 1309.3274,568 1332.3269,568 c 34.0306,0 59.7735,-14.68591 72.6876,-41.46709 5.7606,-11.94628 8.603,-22.93803 9.9644,-38.53291 1.3418,-15.37006 1.3163,-33.69954 -0.048,-34.54281 -0.5881,-0.36347 -4.3006,2.45168 -8.25,6.25589 -8.8994,8.57224 -14.0721,12.12418 -25.9065,17.78913 -42.0324,20.12031 -95.0901,12.95878 -136.9336,-18.48275 -31.4458,-23.62863 -52.5586,-57.31657 -60.5131,-96.55574 -1.4167,-6.98837 -1.8082,-13.48135 -1.7767,-29.46372 0.045,-22.56483 1.5045,-32.32011 7.5444,-50.41198 15.339,-45.94642 53.6437,-84.43541 98.4048,-98.87825 16.6673,-5.37794 22.597,-6.21483 43.5,-6.13942 18.0287,0.065 20.2545,0.27694 29.5,2.80849 18.0593,4.94491 34.3731,13.83702 46.7001,25.45476 3.6962,3.48348 7.1882,6.04443 7.7601,5.69099 0.6296,-0.38909 1.0398,-5.551 1.0398,-13.08361 L 1416,186 h 32.03 32.03 l -0.3383,155.25 c -0.3358,154.08812 -0.3545,155.33232 -2.4884,166.25 -6.8659,35.12801 -17.861,58.69462 -37.2074,79.74923 -15.683,17.06776 -41.0807,31.21784 -67.0259,37.34293 -18.366,4.33579 -46.685,5.58527 -64.3416,2.83886 z m 49.3142,-202.44457 c 15.3362,-4.34445 30.8614,-14.65225 41.0284,-27.24044 6.5103,-8.06061 15.3042,-25.91463 18.0992,-36.74601 2.7602,-10.69677 3.7534,-34.38388 1.9211,-45.82088 -5.173,-32.2903 -24.4238,-59.17999 -50.6816,-70.79242 -10.793,-4.77321 -21.5057,-6.65085 -34.8397,-6.10646 -14.1058,0.57591 -20.7736,2.2105 -33,8.08976 -25.4741,12.24966 -42.863,35.74923 -49.674,67.13 -0.784,3.61207 -1.2564,11.96981 -1.187,21 0.097,12.56165 0.5224,16.54615 2.62,24.51148 7.1251,27.05641 23.8945,48.43339 47.2662,60.25303 5.5911,2.82754 16.7394,6.41043 24.1345,7.75647 7.8243,1.42414 25.8835,0.35335 34.3129,-2.03453 z M 232,488.4165 c -1.925,-0.22406 -7.775,-0.89954 -13,-1.50106 C 148.43651,478.7919 81.540336,436.92627 41.770661,376 4.7680034,319.31274 -6.2502956,251.22675 10.933328,185.44515 19.037682,154.42042 35.827587,121.61079 57.015314,95.395039 65.433379,84.979297 83.39398,67.153776 94,58.688514 128.64819,31.033837 167.51796,13.862641 212.5,6.3396801 c 15.6757,-2.6216615 59.15637,-2.6326182 75,-0.018899 14.70232,2.4254376 29.66261,6.1147569 41.91965,10.3376959 26.8788,9.260603 59.42758,28.958817 80.64608,48.806237 l 5.14288,4.810563 -22.84615,22.862362 C 379.79707,105.71194 369.23821,116 368.89832,116 c -0.33989,0 -4.16856,-2.96235 -8.50815,-6.583 C 325.70612,80.479067 283.28552,66.948715 237,70.060833 165.25892,74.884515 105.28435,122.09136 83.163652,191.14764 61.224466,259.63728 82.72179,336.67956 136.32466,381.66647 c 38.63824,32.42766 85.46495,45.98014 137.74196,39.86497 38.3618,-4.48742 70.18195,-19.6464 96.57979,-46.01016 19.89222,-19.86655 31.32901,-44.46612 36.85466,-79.27128 L 408.1758,292 H 328.5879 249 v -33 -33 h 111.87219 111.87219 l 0.59876,3.75 c 1.91605,12.00011 2.85161,30.45195 2.2943,45.25 -2.40864,63.95553 -24.28515,115.81605 -64.71134,153.40489 -35.65232,33.15002 -74.99245,51.52654 -124.4261,58.12177 -11.41028,1.52231 -47.04224,2.75789 -54.5,1.88984 z"
         id="path124" />
      <path
         style="fill:#ec6458"
         d="m 646.8125,488.31689 c 0.72187,-0.28887 1.58438,-0.25335 1.91667,0.0789 0.33229,0.33229 -0.25834,0.56864 -1.3125,0.52522 -1.16495,-0.048 -1.4019,-0.28494 -0.60417,-0.60416 z m 25,0 c 0.72187,-0.28887 1.58438,-0.25335 1.91667,0.0789 0.33229,0.33229 -0.25834,0.56864 -1.3125,0.52522 -1.16495,-0.048 -1.4019,-0.28494 -0.60417,-0.60416 z m 1087.9375,0.0208 c 0.6875,-0.27741 1.8125,-0.27741 2.5,0 0.6875,0.27741 0.125,0.50439 -1.25,0.50439 -1.375,0 -1.9375,-0.22698 -1.25,-0.50439 z m 23,0 c 0.6875,-0.27741 1.8125,-0.27741 2.5,0 0.6875,0.27741 0.125,0.50439 -1.25,0.50439 -1.375,0 -1.9375,-0.22698 -1.25,-0.50439 z M 764.5,450 c 0.99549,-1.1 2.03498,-2 2.30998,-2 0.275,0 -0.31449,0.9 -1.30998,2 -0.99549,1.1 -2.03498,2 -2.30998,2 -0.275,0 0.31449,-0.9 1.30998,-2 z m -210.62756,-0.75 c -1.24387,-1.58606 -1.2085,-1.62143 0.37756,-0.37756 1.66575,1.30637 2.19548,2.12756 1.37244,2.12756 -0.20765,0 -0.99515,-0.7875 -1.75,-1.75 z M 1875,450.62244 c 0,-0.20765 0.7875,-0.99515 1.75,-1.75 1.5861,-1.24387 1.6214,-1.2085 0.3776,0.37756 -1.3064,1.66575 -2.1276,2.19548 -2.1276,1.37244 z M 1661.9658,444.25 1656.5,438.5 l 5.75,5.46584 c 5.3419,5.07794 6.2081,6.03416 5.4658,6.03416 -0.1562,0 -2.7437,-2.5875 -5.75,-5.75 z M 541.40499,436.75 539.5,434.5 l 2.25,1.90499 c 1.2375,1.04774 2.25,2.06024 2.25,2.25 0,0.80025 -0.80479,0.20945 -2.59501,-1.90499 z M 777,437.62244 c 0,-0.20765 0.7875,-0.99515 1.75,-1.75 1.58606,-1.24387 1.62143,-1.2085 0.37756,0.37756 C 777.82119,437.91575 777,438.44548 777,437.62244 Z M 1889.5,436 c 0.9955,-1.1 2.035,-2 2.31,-2 0.275,0 -0.3145,0.9 -1.31,2 -0.9955,1.1 -2.035,2 -2.31,2 -0.275,0 0.3145,-0.9 1.31,-2 z m -237.6276,-2.75 c -1.2438,-1.58606 -1.2085,-1.62143 0.3776,-0.37756 1.6657,1.30637 2.1955,2.12756 1.3724,2.12756 -0.2076,0 -0.9951,-0.7875 -1.75,-1.75 z m 110.9401,-5.93311 c 0.7219,-0.28887 1.5844,-0.25335 1.9167,0.0789 0.3323,0.33229 -0.2584,0.56864 -1.3125,0.52522 -1.165,-0.048 -1.4019,-0.28494 -0.6042,-0.60416 z m 18,0 c 0.7219,-0.28887 1.5844,-0.25335 1.9167,0.0789 0.3323,0.33229 -0.2584,0.56864 -1.3125,0.52522 -1.165,-0.048 -1.4019,-0.28494 -0.6042,-0.60416 z M 1716.405,407.75 l -1.905,-2.25 2.25,1.90499 c 2.1144,1.79022 2.7052,2.59501 1.905,2.59501 -0.1898,0 -1.2023,-1.0125 -2.25,-2.25 z M 1829,407.62244 c 0,-0.20765 0.7875,-0.99515 1.75,-1.75 1.5861,-1.24387 1.6214,-1.2085 0.3776,0.37756 -1.3064,1.66575 -2.1276,2.19548 -2.1276,1.37244 z M 1710.9243,402.25 1708.5,399.5 l 2.75,2.42431 c 1.5125,1.33338 2.75,2.57088 2.75,2.75 0,0.78428 -0.8098,0.14598 -3.0757,-2.42431 z M 724,398.62244 c 0,-0.20765 0.7875,-0.99515 1.75,-1.75 1.58606,-1.24387 1.62143,-1.2085 0.37756,0.37756 C 724.82119,398.91575 724,399.44548 724,398.62244 Z m 1115,-1 c 0,-0.20765 0.7875,-0.99515 1.75,-1.75 1.5861,-1.24387 1.6214,-1.2085 0.3776,0.37756 -1.3064,1.66575 -2.1276,2.19548 -2.1276,1.37244 z M 503.19495,341.5 c 0.0204,-1.65 0.2445,-2.20394 0.49804,-1.23097 0.25354,0.97297 0.23687,2.32297 -0.0371,3 -0.27393,0.67703 -0.48137,-0.11903 -0.46099,-1.76903 z m 313,0 c 0.0204,-1.65 0.2445,-2.20394 0.49804,-1.23097 0.25354,0.97297 0.23687,2.32297 -0.0371,3 -0.27393,0.67703 -0.48137,-0.11903 -0.46099,-1.76903 z m 801.17025,-9 c 0,-5.5 0.1706,-7.62242 0.3732,-4.71648 0.2026,2.90594 0.2005,7.40594 0,10 -0.2053,2.59406 -0.3711,0.21648 -0.3685,-5.28352 z m -1046.03706,0 c 0.004,-3.85 0.18518,-5.30246 0.40166,-3.2277 0.21647,2.07477 0.21284,5.22477 -0.008,7 -0.22091,1.77524 -0.39803,0.0777 -0.39359,-3.7723 z m 177,0 c 0.004,-3.85 0.18518,-5.30246 0.40166,-3.2277 0.21647,2.07477 0.21284,5.22477 -0.008,7 -0.22091,1.77524 -0.39803,0.0777 -0.39359,-3.7723 z m -245.13319,-8 c 0.0204,-1.65 0.2445,-2.20394 0.49804,-1.23097 0.25354,0.97297 0.23687,2.32297 -0.0371,3 -0.27393,0.67703 -0.48137,-0.11903 -0.46099,-1.76903 z m 313,0 c 0.0204,-1.65 0.2445,-2.20394 0.49804,-1.23097 0.25354,0.97297 0.23687,2.32297 -0.0371,3 -0.27393,0.67703 -0.48137,-0.11903 -0.46099,-1.76903 z m 868.88395,-10.08333 c 0.048,-1.16495 0.285,-1.4019 0.6042,-0.60417 0.2889,0.72187 0.2534,1.58438 -0.079,1.91667 -0.3323,0.33229 -0.5687,-0.25834 -0.5253,-1.3125 z M 598,263.5 c 1.86578,-1.925 3.61733,-3.5 3.89233,-3.5 0.275,0 -1.02655,1.575 -2.89233,3.5 -1.86578,1.925 -3.61733,3.5 -3.89233,3.5 -0.275,0 1.02655,-1.575 2.89233,-3.5 z m 122.94617,-0.25 -3.44617,-3.75 3.75,3.44617 c 3.49042,3.20761 4.20979,4.05383 3.44617,4.05383 -0.16711,0 -1.85461,-1.6875 -3.75,-3.75 z M 1706.5,265 c 0.9955,-1.1 2.035,-2 2.31,-2 0.275,0 -0.3145,0.9 -1.31,2 -0.9955,1.1 -2.035,2 -2.31,2 -0.275,0 0.3145,-0.9 1.31,-2 z m 3.5,-3.31291 c 0,-0.1721 1.4625,-1.6346 3.25,-3.25 l 3.25,-2.93709 -2.9371,3.25 c -2.7378,3.02946 -3.5629,3.70965 -3.5629,2.93709 z m 55.25,-25.37642 c 0.9625,-0.25152 2.5375,-0.25152 3.5,0 0.9625,0.25153 0.175,0.45733 -1.75,0.45733 -1.925,0 -2.7125,-0.2058 -1.75,-0.45733 z M 1869.8724,227.25 c -1.2438,-1.58606 -1.2085,-1.62143 0.3776,-0.37756 1.6657,1.30637 2.1955,2.12756 1.3724,2.12756 -0.2076,0 -0.9951,-0.7875 -1.75,-1.75 z M 547.5,222 c 2.70865,-2.75 5.14982,-5 5.42482,-5 0.275,0 -1.71617,2.25 -4.42482,5 -2.70865,2.75 -5.14982,5 -5.42482,5 -0.275,0 1.71617,-2.25 4.42482,-5 z m 223.96241,-0.25 -4.96241,-5.25 5.25,4.96241 c 4.87839,4.61116 5.7086,5.53759 4.96241,5.53759 -0.15818,0 -2.52068,-2.3625 -5.25,-5.25 z M 1657,223.5 c 1.2917,-1.375 2.5736,-2.5 2.8486,-2.5 0.275,0 -0.5569,1.125 -1.8486,2.5 -1.2917,1.375 -2.5736,2.5 -2.8486,2.5 -0.275,0 0.5569,-1.125 1.8486,-2.5 z m 202.9658,-7.25 -5.4658,-5.75 5.75,5.46584 c 5.3419,5.07794 6.2081,6.03416 5.4658,6.03416 -0.1562,0 -2.7437,-2.5875 -5.75,-5.75 z M 1666.5,214 c 0.9955,-1.1 2.035,-2 2.31,-2 0.275,0 -0.3145,0.9 -1.31,2 -0.9955,1.1 -2.035,2 -2.31,2 -0.275,0 0.3145,-0.9 1.31,-2 z m 96.75,-37.68933 c 0.9625,-0.25152 2.5375,-0.25152 3.5,0 0.9625,0.25153 0.175,0.45733 -1.75,0.45733 -1.925,0 -2.7125,-0.2058 -1.75,-0.45733 z"
         id="path122" />
      <path
         style="fill:#e94234"
         d="m 642,487.95005 c -62.17766,-7.73556 -111.87193,-47.51372 -130.53531,-104.48797 -6.52435,-19.91709 -9.18859,-42.20796 -7.51221,-62.85244 1.28009,-15.76413 3.14996,-25.01081 8.03258,-39.72192 7.73677,-23.31047 18.37832,-40.3771 36.45044,-58.45823 22.32405,-22.33518 47.08565,-35.58283 79.5645,-42.56761 14.33445,-3.08271 46.27741,-3.33835 61.5,-0.49218 32.02737,5.98817 59.33019,20.31414 82.0645,43.05979 18.07212,18.08113 28.71367,35.14776 36.45044,58.45823 4.88262,14.71111 6.75249,23.95779 8.03258,39.72192 2.38519,29.37338 -3.58458,59.18495 -17.08042,85.29537 -22.10675,42.76999 -62.58899,72.05041 -111.4671,80.6231 -10.99658,1.92868 -35.31754,2.68874 -45.5,1.42194 z m 31,-60.99068 c 51.73047,-8.16169 84.8785,-60.48967 73.46626,-115.97494 -5.92609,-28.81208 -23.7601,-52.36399 -48.79623,-64.44117 -14.19544,-6.84774 -19.62585,-8.00117 -37.67003,-8.00117 -18.04418,0 -23.47459,1.15343 -37.67003,8.00117 -34.76951,16.77246 -54.93934,55.66601 -50.36852,97.12581 1.51566,13.74778 4.16146,22.9075 10.0968,34.95483 16.99415,34.49415 54.00169,54.16362 90.94175,48.33547 z m 1082.5,61.01221 c -12.1175,-1.37338 -22.9193,-3.73685 -34.1443,-7.47082 -22.9368,-7.62992 -43.3824,-20.4738 -59.9115,-37.63628 -20.938,-21.74034 -32.8838,-43.92903 -40.077,-74.44124 -2.6569,-11.26989 -2.8125,-13.21096 -2.8391,-35.42324 -0.031,-26.27412 0.8324,-32.73099 7.0903,-53 16.7695,-54.31505 61.1043,-92.76173 117.1185,-101.56386 16.5298,-2.5975 39.9809,-1.60631 55.2631,2.33576 26.1048,6.73379 45.134,18.11573 64.9008,38.81916 10.5106,11.00871 18.8475,22.56463 26.3974,36.58998 4.5278,8.41124 16.3158,36.55977 15.5933,37.2354 -0.2153,0.20139 -46.9665,19.60819 -103.8915,43.12621 -56.925,23.51803 -103.8254,43.03989 -104.2232,43.38191 -0.3978,0.34202 1.0333,3.53641 3.1802,7.09865 12.027,19.95571 28.1226,32.53843 48.8398,38.18037 10.7075,2.916 34.3096,3.14074 45.2032,0.43042 9.7652,-2.42959 23.9172,-9.13064 31.6309,-14.97737 6.6697,-5.0555 16.3297,-14.9642 20.9526,-21.49217 1.6041,-2.26507 3.2046,-4.0162 3.5567,-3.89139 1.7906,0.63467 51.8142,34.32592 51.8352,34.91142 0.053,1.48463 -12.7102,16.73133 -20.0025,23.89402 -23.2736,22.85993 -50.6418,36.93737 -82.4729,42.42177 -11.2054,1.93066 -33.3992,2.67278 -44,1.4713 z m 0.1914,-188.71252 C 1801.4525,280.28282 1825,270.03516 1825,269.09661 c 0,-2.59459 -6.1147,-11.00073 -11.7452,-16.14674 -15.8946,-14.52671 -43.1929,-20.1622 -65.5623,-13.53474 -31.5609,9.35066 -54.1559,33.84555 -60.7657,65.87513 -1.8606,9.01635 -2.6056,22.70974 -1.2354,22.70974 0.3803,0 31.8803,-12.93342 70,-28.74094 z"
         id="path120" />
      <path
         style="fill:#33a752"
         d="M 1521.6667,479.33333 C 1521.3,478.96667 1521,375.69167 1521,249.83333 V 21 h 33.5 33.5 V 250.5 480 h -32.8333 c -18.0584,0 -33.1334,-0.3 -33.5,-0.66667 z"
         id="path118" />
    </g>
  </g>
</svg>
