<?xml version="1.0" encoding="UTF-8" standalone="no"?>
<svg
   width="512"
   height="180.74545"
   viewBox="0 -172 512 180.74545"
   version="1.1"
   preserveAspectRatio="xMidYMid"
   id="svg93"
   sodipodi:docname="googleLogo.svg"
   inkscape:version="1.2 (dc2aedaf03, 2022-05-15)"
   xmlns:inkscape="http://www.inkscape.org/namespaces/inkscape"
   xmlns:sodipodi="http://sodipodi.sourceforge.net/DTD/sodipodi-0.dtd"
   xmlns="http://www.w3.org/2000/svg"
   xmlns:svg="http://www.w3.org/2000/svg">
  <defs
     id="defs97" />
  <sodipodi:namedview
     id="namedview95"
     pagecolor="#ffffff"
     bordercolor="#999999"
     borderopacity="1"
     inkscape:showpageshadow="0"
     inkscape:pageopacity="0"
     inkscape:pagecheckerboard="0"
     inkscape:deskcolor="#d1d1d1"
     showgrid="false"
     inkscape:zoom="1.1531917"
     inkscape:cx="228.06269"
     inkscape:cy="267.95198"
     inkscape:window-width="2560"
     inkscape:window-height="1057"
     inkscape:window-x="-8"
     inkscape:window-y="-8"
     inkscape:window-maximized="1"
     inkscape:current-layer="svg93" />
  <g
     id="g91"
     style="fill:#1a1a1a"
     transform="translate(0.8671585,-160.42433)">
    <path
       d="m 496.05245,102.67206 14.20329,9.46885 c -4.60984,6.79017 -15.63607,18.43935 -34.69837,18.43935 -23.67214,0 -41.30165,-18.31476 -41.30165,-41.613127 0,-24.793449 17.8164,-41.613125 39.3082,-41.613125 21.6164,0 32.20657,17.193447 35.6328,26.475416 l 1.86885,4.734428 -55.69181,23.049188 c 4.23606,8.34754 10.83934,12.58361 20.18361,12.58361 9.34426,0 15.82295,-4.60984 20.49508,-11.52459 z M 452.38359,87.658936 489.57376,72.209752 c -2.05573,-5.170493 -8.16065,-8.845904 -15.44918,-8.845904 -9.28197,0 -22.17705,8.222953 -21.74099,24.295088 z"
       fill="#FF302F"
       id="path79"
       style="fill:#1a1a1a" />
    <path
       d="m 407.40653,4.9310463 h 17.94099 V 126.78026 h -17.94099 z"
       fill="#20B15A"
       id="path81"
       style="fill:#1a1a1a" />
    <path
       d="m 379.12456,50.593353 h 17.31803 v 74.006577 c 0,30.71148 -18.12787,43.35739 -39.55738,43.35739 -20.18361,0 -32.33116,-13.58033 -36.8787,-24.60657 l 15.88525,-6.60328 c 2.86557,6.79017 9.78033,14.82624 20.99345,14.82624 13.76721,0 22.23935,-8.53443 22.23935,-24.48198 v -5.98033 h -0.62295 c -4.11148,4.98361 -11.96066,9.46886 -21.92788,9.46886 -20.80656,0 -39.86886,-18.12787 -39.86886,-41.488537 0,-23.485252 19.0623,-41.80001 39.86886,-41.80001 9.90492,0 17.8164,4.422952 21.92788,9.281969 h 0.62295 z m 1.2459,38.49837 c 0,-14.701643 -9.78033,-25.4164 -22.23935,-25.4164 -12.58361,0 -23.17378,10.714757 -23.17378,25.4164 0,14.514757 10.59017,25.042627 23.17378,25.042627 12.45902,0.0623 22.23935,-10.52787 22.23935,-25.042627 z"
       fill="#3686F7"
       id="path83"
       style="fill:#1a1a1a" />
    <path
       d="m 218.21632,88.780248 c 0,23.983612 -18.68853,41.613122 -41.61313,41.613122 -22.92459,0 -41.61312,-17.6918 -41.61312,-41.613122 0,-24.108203 18.68853,-41.675421 41.61312,-41.675421 22.9246,0 41.61313,17.567218 41.61313,41.675421 z m -18.19017,0 c 0,-14.950824 -10.83935,-25.229515 -23.42296,-25.229515 -12.58361,0 -23.42295,10.278691 -23.42295,25.229515 0,14.826232 10.83934,25.229512 23.42295,25.229512 12.58361,0 23.42296,-10.40328 23.42296,-25.229512 z"
       fill="#FF302F"
       id="path85"
       style="fill:#1a1a1a" />
    <path
       d="m 309.10487,88.967133 c 0,23.983617 -18.68853,41.613127 -41.61313,41.613127 -22.92459,0 -41.61312,-17.62951 -41.61312,-41.613127 0,-24.108203 18.68853,-41.613125 41.61312,-41.613125 22.9246,0 41.61313,17.442627 41.61313,41.613125 z m -18.25247,0 c 0,-14.950823 -10.83934,-25.229515 -23.42295,-25.229515 -12.58361,0 -23.42296,10.278692 -23.42296,25.229515 0,14.826237 10.83935,25.229517 23.42296,25.229517 12.6459,0 23.42295,-10.46558 23.42295,-25.229517 z"
       fill="#FFBA40"
       id="path87"
       style="fill:#1a1a1a" />
    <path
       d="m 66.590052,112.32779 c -26.101645,0 -46.534437,-21.055738 -46.534437,-47.157384 0,-26.101646 20.432792,-47.157389 46.534437,-47.157389 14.078693,0 24.357384,5.544263 31.957385,12.645905 L 111.06875,18.137607 C 100.47858,7.9835061 86.337598,0.258914 66.590052,0.258914 c -35.757385,0 -65.84591759,29.154106 -65.84591759,64.911492 0,35.757384 30.08853259,64.911494 65.84591759,64.911494 19.311481,0 33.888528,-6.3541 45.288538,-18.19017 11.71148,-11.71148 15.32459,-28.157385 15.32459,-41.488536 0,-4.173772 -0.49836,-8.472133 -1.05901,-11.649183 H 66.590052 v 17.318037 h 42.422958 c -1.2459,10.839347 -4.67213,18.252463 -9.718032,23.298366 -6.104919,6.167216 -15.760659,12.957376 -32.704926,12.957376 z"
       fill="#3686F7"
       id="path89"
       style="fill:#1a1a1a" />
  </g>
</svg>
