<?xml version="1.0" encoding="UTF-8" standalone="no"?>
<!-- Created with Inkscape (http://www.inkscape.org/) -->

<svg
   width="145.82341mm"
   height="30.715038mm"
   viewBox="0 0 145.82341 30.715037"
   version="1.1"
   id="svg1172"
   inkscape:version="1.2 (dc2aedaf03, 2022-05-15)"
   sodipodi:docname="logo2.svg"
   xmlns:inkscape="http://www.inkscape.org/namespaces/inkscape"
   xmlns:sodipodi="http://sodipodi.sourceforge.net/DTD/sodipodi-0.dtd"
   xmlns="http://www.w3.org/2000/svg"
   xmlns:svg="http://www.w3.org/2000/svg">
  <sodipodi:namedview
     id="namedview1174"
     pagecolor="#ffffff"
     bordercolor="#000000"
     borderopacity="0.25"
     inkscape:showpageshadow="2"
     inkscape:pageopacity="0.0"
     inkscape:pagecheckerboard="0"
     inkscape:deskcolor="#d1d1d1"
     inkscape:document-units="mm"
     showgrid="false"
     inkscape:zoom="1.104894"
     inkscape:cx="320.39272"
     inkscape:cy="246.17746"
     inkscape:window-width="1920"
     inkscape:window-height="1057"
     inkscape:window-x="-8"
     inkscape:window-y="-8"
     inkscape:window-maximized="1"
     inkscape:current-layer="text317" />
  <defs
     id="defs1169">
    <clipPath
       id="clip6">
      <rect
         x="52"
         y="36"
         width="482"
         height="89"
         id="rect250" />
    </clipPath>
    <filter
       id="fx2"
       x="-21"
       y="-29.700001"
       width="252.00002"
       height="356.40002"
       filterUnits="userSpaceOnUse"
       primitiveUnits="userSpaceOnUse">
      <feComponentTransfer
         color-interpolation-filters="sRGB"
         id="feComponentTransfer216">
        <feFuncR
           type="discrete"
           tableValues="0 0"
           id="feFuncR208" />
        <feFuncG
           type="discrete"
           tableValues="0 0"
           id="feFuncG210" />
        <feFuncB
           type="discrete"
           tableValues="0 0"
           id="feFuncB212" />
        <feFuncA
           type="linear"
           slope="0.458824"
           intercept="0"
           id="feFuncA214" />
      </feComponentTransfer>
      <feGaussianBlur
         stdDeviation="0.888889 0.888889"
         id="feGaussianBlur218" />
    </filter>
    <clipPath
       id="clip7">
      <rect
         x="0"
         y="0"
         width="586"
         height="202"
         id="rect253" />
    </clipPath>
    <clipPath
       id="clip8">
      <rect
         x="52"
         y="41"
         width="230"
         height="67"
         id="rect256" />
    </clipPath>
    <filter
       id="fx0"
       x="-21"
       y="-29.700001"
       width="252.00002"
       height="356.40002"
       filterUnits="userSpaceOnUse"
       primitiveUnits="userSpaceOnUse">
      <feComponentTransfer
         color-interpolation-filters="sRGB"
         id="feComponentTransfer190">
        <feFuncR
           type="discrete"
           tableValues="1 1"
           id="feFuncR182" />
        <feFuncG
           type="discrete"
           tableValues="1 1"
           id="feFuncG184" />
        <feFuncB
           type="discrete"
           tableValues="1 1"
           id="feFuncB186" />
        <feFuncA
           type="linear"
           slope="0.301961"
           intercept="0"
           id="feFuncA188" />
      </feComponentTransfer>
      <feGaussianBlur
         stdDeviation="0.312133 0.312133"
         id="feGaussianBlur192" />
    </filter>
    <clipPath
       id="clip9">
      <rect
         x="0"
         y="0"
         width="334"
         height="195"
         id="rect259" />
    </clipPath>
    <clipPath
       id="clip10">
      <rect
         x="55"
         y="36"
         width="252"
         height="81"
         id="rect262" />
    </clipPath>
    <filter
       id="fx1"
       x="-21"
       y="-29.700001"
       width="252.00002"
       height="356.40002"
       filterUnits="userSpaceOnUse"
       primitiveUnits="userSpaceOnUse">
      <feComponentTransfer
         color-interpolation-filters="sRGB"
         id="feComponentTransfer203">
        <feFuncR
           type="discrete"
           tableValues="1 1"
           id="feFuncR195" />
        <feFuncG
           type="discrete"
           tableValues="1 1"
           id="feFuncG197" />
        <feFuncB
           type="discrete"
           tableValues="1 1"
           id="feFuncB199" />
        <feFuncA
           type="linear"
           slope="0.301961"
           intercept="0"
           id="feFuncA201" />
      </feComponentTransfer>
      <feGaussianBlur
         stdDeviation="0.312133 0.312133"
         id="feGaussianBlur205" />
    </filter>
    <clipPath
       id="clip11">
      <rect
         x="0"
         y="0"
         width="359"
         height="195"
         id="rect265" />
    </clipPath>
    <clipPath
       id="clip12">
      <rect
         x="52"
         y="41"
         width="230"
         height="67"
         id="rect268" />
    </clipPath>
    <filter
       id="fx3"
       x="-21"
       y="-29.700001"
       width="252.00002"
       height="356.40002"
       filterUnits="userSpaceOnUse"
       primitiveUnits="userSpaceOnUse">
      <feComponentTransfer
         color-interpolation-filters="sRGB"
         id="feComponentTransfer229">
        <feFuncR
           type="discrete"
           tableValues="1 1"
           id="feFuncR221" />
        <feFuncG
           type="discrete"
           tableValues="1 1"
           id="feFuncG223" />
        <feFuncB
           type="discrete"
           tableValues="1 1"
           id="feFuncB225" />
        <feFuncA
           type="linear"
           slope="0.301961"
           intercept="0"
           id="feFuncA227" />
      </feComponentTransfer>
      <feGaussianBlur
         stdDeviation="0.312133 0.312133"
         id="feGaussianBlur231" />
    </filter>
    <clipPath
       id="clip13">
      <rect
         x="0"
         y="0"
         width="334"
         height="195"
         id="rect271" />
    </clipPath>
    <clipPath
       id="clip14">
      <rect
         x="55"
         y="36"
         width="252"
         height="81"
         id="rect274" />
    </clipPath>
    <filter
       id="fx4"
       x="-21"
       y="-29.700001"
       width="252.00002"
       height="356.40002"
       filterUnits="userSpaceOnUse"
       primitiveUnits="userSpaceOnUse">
      <feComponentTransfer
         color-interpolation-filters="sRGB"
         id="feComponentTransfer242">
        <feFuncR
           type="discrete"
           tableValues="1 1"
           id="feFuncR234" />
        <feFuncG
           type="discrete"
           tableValues="1 1"
           id="feFuncG236" />
        <feFuncB
           type="discrete"
           tableValues="1 1"
           id="feFuncB238" />
        <feFuncA
           type="linear"
           slope="0.301961"
           intercept="0"
           id="feFuncA240" />
      </feComponentTransfer>
      <feGaussianBlur
         stdDeviation="0.312133 0.312133"
         id="feGaussianBlur244" />
    </filter>
    <clipPath
       id="clip15">
      <rect
         x="0"
         y="0"
         width="359"
         height="195"
         id="rect277" />
    </clipPath>
    <clipPath
       id="clip16">
      <rect
         x="841"
         y="106"
         width="73"
         height="78"
         id="rect280" />
    </clipPath>
    <clipPath
       id="clip17">
      <rect
         x="841"
         y="106"
         width="73"
         height="78"
         id="rect283" />
    </clipPath>
    <clipPath
       id="clip18">
      <rect
         x="841"
         y="106"
         width="73"
         height="78"
         id="rect286" />
    </clipPath>
  </defs>
  <g
     inkscape:label="Livello 1"
     inkscape:groupmode="layer"
     id="layer1"
     transform="translate(-4.3103681,-101.53312)">
    <g
       clip-path="url(#clip6)"
       filter="url(#fx2)"
       transform="matrix(0.26458333,0,0,0.26458333,-9.0441942,98.923385)"
       id="g309">
      <g
         clip-path="url(#clip7)"
         id="g307">
        <g
           clip-path="url(#clip8)"
           filter="url(#fx0)"
           transform="translate(3,3)"
           id="g295">
          <g
             clip-path="url(#clip9)"
             id="g293">
            <path
               d="m 82.082,-31.668 c -2.002,4.641 -6.188,12.285 -12.194,12.285 -5.46,0 -2.184,-8.645 -1.274,-11.375 2.912,-8.19 1.456,-16.198 -9.282,-16.835 -6.37,-0.364 -11.739,3.458 -16.016,8.19 0.273,-5.642 -1.365,-10.101 -8.554,-10.556 -6.37,-0.455 -12.012,3.64 -16.289,8.372 0.455,-0.91 0.91,-1.911 1.365,-3.003 1.183,-2.639 -4.004,-5.187 -8.281,-5.187 -2.184,0 -4.095,0.637 -4.914,2.184 -11.193,22.204 -14.196,43.589 -1.001,43.589 7.644,0 5.096,-3.913 5.096,-3.913 -0.091,0 -1.547,-6.188 2.821,-20.293 1.365,-3.094 6.37,-13.286 14.287,-13.104 9.009,0.273 -12.467,30.576 1.456,32.942 8.918,1.547 10.283,-4.004 10.192,-4.186 -1.547,-2.821 -0.455,-8.008 1.001,-13.559 0.91,-3.549 4.368,-13.013 11.921,-12.831 3.094,0.091 3.185,3.549 2.002,7.462 -4.277,13.741 -6.279,26.026 6.006,27.391 14.469,1.638 21.476,-13.377 23.842,-23.933 0,0 0.728,-3.458 -2.184,-3.64 z m 54.822,0 c -2.002,4.641 -6.188,12.285 -12.285,12.285 -6.552,0 1.274,-18.109 4.459,-25.298 1.183,-2.639 -4.186,-5.187 -8.463,-5.187 -2.093,0 -3.913,0.637 -4.641,2.184 -0.364,0.728 -0.728,1.729 -1.274,2.821 -2.275,-4.641 -8.736,-5.187 -11.375,-5.187 -23.2963,0 -32.3053,42.497 -13.5593,42.497 7.371,0 12.8313,-4.641 16.7443,-10.556 -0.637,7.28 1.274,13.286 8.736,14.105 14.469,1.547 21.476,-13.468 23.842,-24.024 0,0 0.819,-3.458 -2.184,-3.64 z m -39.0393,12.831 c -10.829,0 0.364,-26.39 10.5563,-24.57 4.823,0.819 1.729,9.464 0.455,12.467 -1.547,3.731 -5.278,12.103 -11.0113,12.103 z M 184.26,-31.668 c -2.002,4.641 -6.188,12.285 -12.194,12.285 -4.186,0 -3.913,-4.641 -2.912,-7.371 2.184,-6.188 0.273,-10.92 -4.914,-12.74 4.368,-2.912 8.645,-4.459 11.83,-4.459 0.91,0 1.729,0.091 2.366,0.364 2.912,-0.546 -0.182,-7.371 -7.462,-7.371 -5.642,0 -13.013,4.732 -16.926,8.372 1.911,-5.915 4.459,-12.74 7.735,-20.475 1.183,-2.639 -4.277,-5.187 -8.554,-5.187 -2.093,0 -4.004,0.637 -4.641,2.184 -13.468,31.031 -20.111,58.149 -5.915,58.149 7.644,0 5.096,-4.004 5.096,-4.004 0,0 0,-0.182 0,-0.637 1.092,-8.554 4.823,-15.47 9.464,-20.657 0.182,-0.182 0.364,-0.364 0.455,-0.455 1.092,-0.91 2.184,-1.365 2.912,-1.365 1.456,0 1.82,1.82 -0.728,6.006 -6.37,10.647 -6.37,23.842 2.73,24.934 14.469,1.729 21.476,-13.377 23.842,-23.933 0,0 0.819,-3.458 -2.184,-3.64 z m 37.05,0 c -3.822,8.645 -8.827,15.561 -16.38,15.561 -8.281,0 -10.738,-6.188 -8.827,-11.557 0,0 2.366,1.365 6.552,1.365 7.553,0 12.922,-4.368 12.922,-12.376 0,-8.554 -5.46,-11.284 -11.193,-11.284 -12.285,0 -19.11,15.106 -20.293,18.109 -8.281,21.749 5.278,27.755 14.378,27.755 17.199,0 24.57,-19.474 25.48,-23.66 0.819,-4.095 -2.548,-4.095 -2.639,-3.913 z m -13.104,-11.011 c 4.277,0 3.185,11.648 -5.642,11.648 -1.456,0 -3.094,-0.273 -4.914,-1.001 2.912,-6.097 6.916,-10.647 10.556,-10.647 z"
               fill="#c00000"
               transform="translate(-258.458,44)"
               id="path291" />
          </g>
        </g>
        <path
           d="m 82.082,-31.668 c -2.002,4.641 -6.188,12.285 -12.194,12.285 -5.46,0 -2.184,-8.645 -1.274,-11.375 2.912,-8.19 1.456,-16.198 -9.282,-16.835 -6.37,-0.364 -11.739,3.458 -16.016,8.19 0.273,-5.642 -1.365,-10.101 -8.554,-10.556 -6.37,-0.455 -12.012,3.64 -16.289,8.372 0.455,-0.91 0.91,-1.911 1.365,-3.003 1.183,-2.639 -4.004,-5.187 -8.281,-5.187 -2.184,0 -4.095,0.637 -4.914,2.184 -11.193,22.204 -14.196,43.589 -1.001,43.589 7.644,0 5.096,-3.913 5.096,-3.913 -0.091,0 -1.547,-6.188 2.821,-20.293 1.365,-3.094 6.37,-13.286 14.287,-13.104 9.009,0.273 -12.467,30.576 1.456,32.942 8.918,1.547 10.283,-4.004 10.192,-4.186 -1.547,-2.821 -0.455,-8.008 1.001,-13.559 0.91,-3.549 4.368,-13.013 11.921,-12.831 3.094,0.091 3.185,3.549 2.002,7.462 -4.277,13.741 -6.279,26.026 6.006,27.391 14.469,1.638 21.476,-13.377 23.842,-23.933 0,0 0.728,-3.458 -2.184,-3.64 z m 54.822,0 c -2.002,4.641 -6.188,12.285 -12.285,12.285 -6.552,0 1.274,-18.109 4.459,-25.298 1.183,-2.639 -4.186,-5.187 -8.463,-5.187 -2.093,0 -3.913,0.637 -4.641,2.184 -0.364,0.728 -0.728,1.729 -1.274,2.821 -2.275,-4.641 -8.736,-5.187 -11.375,-5.187 -23.2963,0 -32.3053,42.497 -13.5593,42.497 7.371,0 12.8313,-4.641 16.7443,-10.556 -0.637,7.28 1.274,13.286 8.736,14.105 14.469,1.547 21.476,-13.468 23.842,-24.024 0,0 0.819,-3.458 -2.184,-3.64 z m -39.0393,12.831 c -10.829,0 0.364,-26.39 10.5563,-24.57 4.823,0.819 1.729,9.464 0.455,12.467 -1.547,3.731 -5.278,12.103 -11.0113,12.103 z M 184.26,-31.668 c -2.002,4.641 -6.188,12.285 -12.194,12.285 -4.186,0 -3.913,-4.641 -2.912,-7.371 2.184,-6.188 0.273,-10.92 -4.914,-12.74 4.368,-2.912 8.645,-4.459 11.83,-4.459 0.91,0 1.729,0.091 2.366,0.364 2.912,-0.546 -0.182,-7.371 -7.462,-7.371 -5.642,0 -13.013,4.732 -16.926,8.372 1.911,-5.915 4.459,-12.74 7.735,-20.475 1.183,-2.639 -4.277,-5.187 -8.554,-5.187 -2.093,0 -4.004,0.637 -4.641,2.184 -13.468,31.031 -20.111,58.149 -5.915,58.149 7.644,0 5.096,-4.004 5.096,-4.004 0,0 0,-0.182 0,-0.637 1.092,-8.554 4.823,-15.47 9.464,-20.657 0.182,-0.182 0.364,-0.364 0.455,-0.455 1.092,-0.91 2.184,-1.365 2.912,-1.365 1.456,0 1.82,1.82 -0.728,6.006 -6.37,10.647 -6.37,23.842 2.73,24.934 14.469,1.729 21.476,-13.377 23.842,-23.933 0,0 0.819,-3.458 -2.184,-3.64 z m 37.05,0 c -3.822,8.645 -8.827,15.561 -16.38,15.561 -8.281,0 -10.738,-6.188 -8.827,-11.557 0,0 2.366,1.365 6.552,1.365 7.553,0 12.922,-4.368 12.922,-12.376 0,-8.554 -5.46,-11.284 -11.193,-11.284 -12.285,0 -19.11,15.106 -20.293,18.109 -8.281,21.749 5.278,27.755 14.378,27.755 17.199,0 24.57,-19.474 25.48,-23.66 0.819,-4.095 -2.548,-4.095 -2.639,-3.913 z m -13.104,-11.011 c 4.277,0 3.185,11.648 -5.642,11.648 -1.456,0 -3.094,-0.273 -4.914,-1.001 2.912,-6.097 6.916,-10.647 10.556,-10.647 z"
           fill="#c00000"
           transform="translate(60.6058,117)"
           id="path297" />
        <g
           clip-path="url(#clip10)"
           filter="url(#fx1)"
           transform="translate(224,3)"
           id="g303">
          <g
             clip-path="url(#clip11)"
             id="g301">
            <path
               d="m 98.007,-49.231 c 2.548,-5.824 -0.728,-9.373 -4.186,-10.374 -1.456,-0.546 -3.185,-0.819 -5.096,-0.819 -5.551,0 -12.649,2.73 -19.929,11.375 -0.637,-17.654 -18.564,-22.477 -27.755,-22.477 -11.83,0 -27.118,2.093 -35.217,10.556 -8.19,8.463 -6.825,16.016 -1.547,19.11 1.547,0.91 3.549,1.274 5.551,1.274 3.549,0 6.916,-1.092 6.825,-1.911 -0.364,-5.642 3.185,-21.931 25.116,-21.931 18.655,0 18.928,20.384 14.56,25.116 -13.195,14.378 -10.738,29.939 -5.369,31.122 10.192,2.184 13.923,-10.556 16.562,-28.483 8.099,-11.557 15.47,-18.291 18.746,-17.472 -3.822,8.554 -6.734,16.835 -9.282,23.933 -7.735,21.567 -4.823,32.942 4.914,34.034 12.74,1.365 14.924,-15.834 11.739,-14.014 -1.001,0.546 -2.184,0.91 -3.549,0.91 -2.73,0 -3.549,-3.003 -2.73,-7.644 2.73,-14.378 7.189,-24.115 10.647,-32.305 z m -48.776,-1.456 c 1.456,-2.639 -4.277,-5.733 -8.463,-5.733 -1.729,0 -3.185,0.546 -3.822,1.729 -5.187,9.646 -9.737,18.928 -12.831,26.936 -6.097,15.925 -6.916,27.3 2.093,28.21 7.371,0.637 5.278,-2.366 5.278,-2.366 -0.091,0 0.546,-10.374 7.917,-28.119 2.457,-5.915 5.642,-12.831 9.828,-20.657 z m 89.079,19.019 c -3.822,8.645 -8.827,15.561 -16.38,15.561 -8.281,0 -10.738,-6.188 -8.827,-11.557 0,0 2.366,1.365 6.552,1.365 7.553,0 12.922,-4.368 12.922,-12.376 0,-8.554 -5.46,-11.284 -11.193,-11.284 -12.285,0 -19.11,15.106 -20.293,18.109 -8.281,21.749 5.278,27.755 14.378,27.755 17.199,0 24.57,-19.474 25.48,-23.66 0.819,-4.095 -2.548,-4.095 -2.639,-3.913 z m -13.104,-11.011 c 4.277,0 3.185,11.648 -5.642,11.648 -1.456,0 -3.094,-0.273 -4.914,-1.001 2.912,-6.097 6.916,-10.647 10.556,-10.647 z m 67.303,11.011 c -1.911,4.641 -6.188,12.285 -12.194,12.285 -5.369,0 -2.184,-8.645 -1.274,-11.375 2.821,-8.19 1.456,-16.198 -9.191,-16.835 -5.005,-0.273 -9.464,2.002 -13.195,5.278 0.273,-0.728 0.637,-1.547 1.001,-2.275 1.183,-2.639 -4.004,-5.187 -8.281,-5.187 -2.093,0 -4.004,0.637 -4.823,2.184 -11.193,22.204 -14.287,43.589 -1.092,43.589 7.735,0 5.096,-3.913 5.096,-3.913 -0.091,0 -1.638,-6.461 3.003,-21.203 1.911,-4.277 5.369,-9.919 11.284,-9.828 3.185,0.091 3.276,3.549 2.002,7.462 -4.277,13.741 -6.188,26.026 6.006,27.391 14.56,1.638 21.476,-13.377 23.842,-23.933 0,0 0.728,-3.458 -2.184,-3.64 z m 20.679,-37.947 c 0,4.914 6.37,15.925 11.284,15.925 2.366,0 3.094,-0.455 3.094,-2.821 0,-4.823 -5.733,-16.835 -9.373,-16.835 -2.821,0 -5.005,1.365 -5.005,3.731 z m 33.488,38.038 c -1.911,4.641 -5.551,10.374 -11.557,10.374 -3.458,0 -3.003,-4.368 -1.547,-9.464 1.547,-4.459 3.549,-9.1 4.823,-11.921 1.183,-2.639 -4.186,-5.187 -8.554,-5.187 -2.093,0 -3.913,0.637 -4.641,2.184 -0.455,1.092 -3.64,7.189 -5.733,14.196 -2.093,4.641 -6.279,12.012 -12.194,12.012 -6.643,0 1.183,-18.109 4.459,-25.298 1.183,-2.639 -4.186,-5.187 -8.554,-5.187 -2.093,0 -3.913,0.637 -4.641,2.184 -3.549,8.19 -19.11,41.587 -0.819,43.589 9.282,1.001 15.379,-4.55 19.292,-11.466 0.819,7.007 5.46,9.919 12.012,9.919 12.012,0 17.654,-12.649 19.838,-22.295 0,0 0.728,-3.549 -2.184,-3.64 z"
               fill="#ffc000"
               transform="translate(-258.458,44)"
               id="path299" />
          </g>
        </g>
        <path
           d="m 98.007,-49.231 c 2.548,-5.824 -0.728,-9.373 -4.186,-10.374 -1.456,-0.546 -3.185,-0.819 -5.096,-0.819 -5.551,0 -12.649,2.73 -19.929,11.375 -0.637,-17.654 -18.564,-22.477 -27.755,-22.477 -11.83,0 -27.118,2.093 -35.217,10.556 -8.19,8.463 -6.825,16.016 -1.547,19.11 1.547,0.91 3.549,1.274 5.551,1.274 3.549,0 6.916,-1.092 6.825,-1.911 -0.364,-5.642 3.185,-21.931 25.116,-21.931 18.655,0 18.928,20.384 14.56,25.116 -13.195,14.378 -10.738,29.939 -5.369,31.122 10.192,2.184 13.923,-10.556 16.562,-28.483 8.099,-11.557 15.47,-18.291 18.746,-17.472 -3.822,8.554 -6.734,16.835 -9.282,23.933 -7.735,21.567 -4.823,32.942 4.914,34.034 12.74,1.365 14.924,-15.834 11.739,-14.014 -1.001,0.546 -2.184,0.91 -3.549,0.91 -2.73,0 -3.549,-3.003 -2.73,-7.644 2.73,-14.378 7.189,-24.115 10.647,-32.305 z m -48.776,-1.456 c 1.456,-2.639 -4.277,-5.733 -8.463,-5.733 -1.729,0 -3.185,0.546 -3.822,1.729 -5.187,9.646 -9.737,18.928 -12.831,26.936 -6.097,15.925 -6.916,27.3 2.093,28.21 7.371,0.637 5.278,-2.366 5.278,-2.366 -0.091,0 0.546,-10.374 7.917,-28.119 2.457,-5.915 5.642,-12.831 9.828,-20.657 z m 89.079,19.019 c -3.822,8.645 -8.827,15.561 -16.38,15.561 -8.281,0 -10.738,-6.188 -8.827,-11.557 0,0 2.366,1.365 6.552,1.365 7.553,0 12.922,-4.368 12.922,-12.376 0,-8.554 -5.46,-11.284 -11.193,-11.284 -12.285,0 -19.11,15.106 -20.293,18.109 -8.281,21.749 5.278,27.755 14.378,27.755 17.199,0 24.57,-19.474 25.48,-23.66 0.819,-4.095 -2.548,-4.095 -2.639,-3.913 z m -13.104,-11.011 c 4.277,0 3.185,11.648 -5.642,11.648 -1.456,0 -3.094,-0.273 -4.914,-1.001 2.912,-6.097 6.916,-10.647 10.556,-10.647 z m 67.303,11.011 c -1.911,4.641 -6.188,12.285 -12.194,12.285 -5.369,0 -2.184,-8.645 -1.274,-11.375 2.821,-8.19 1.456,-16.198 -9.191,-16.835 -5.005,-0.273 -9.464,2.002 -13.195,5.278 0.273,-0.728 0.637,-1.547 1.001,-2.275 1.183,-2.639 -4.004,-5.187 -8.281,-5.187 -2.093,0 -4.004,0.637 -4.823,2.184 -11.193,22.204 -14.287,43.589 -1.092,43.589 7.735,0 5.096,-3.913 5.096,-3.913 -0.091,0 -1.638,-6.461 3.003,-21.203 1.911,-4.277 5.369,-9.919 11.284,-9.828 3.185,0.091 3.276,3.549 2.002,7.462 -4.277,13.741 -6.188,26.026 6.006,27.391 14.56,1.638 21.476,-13.377 23.842,-23.933 0,0 0.728,-3.458 -2.184,-3.64 z m 20.679,-37.947 c 0,4.914 6.37,15.925 11.284,15.925 2.366,0 3.094,-0.455 3.094,-2.821 0,-4.823 -5.733,-16.835 -9.373,-16.835 -2.821,0 -5.005,1.365 -5.005,3.731 z m 33.488,38.038 c -1.911,4.641 -5.551,10.374 -11.557,10.374 -3.458,0 -3.003,-4.368 -1.547,-9.464 1.547,-4.459 3.549,-9.1 4.823,-11.921 1.183,-2.639 -4.186,-5.187 -8.554,-5.187 -2.093,0 -3.913,0.637 -4.641,2.184 -0.455,1.092 -3.64,7.189 -5.733,14.196 -2.093,4.641 -6.279,12.012 -12.194,12.012 -6.643,0 1.183,-18.109 4.459,-25.298 1.183,-2.639 -4.186,-5.187 -8.554,-5.187 -2.093,0 -3.913,0.637 -4.641,2.184 -3.549,8.19 -19.11,41.587 -0.819,43.589 9.282,1.001 15.379,-4.55 19.292,-11.466 0.819,7.007 5.46,9.919 12.012,9.919 12.012,0 17.654,-12.649 19.838,-22.295 0,0 0.728,-3.549 -2.184,-3.64 z"
           fill="#ffc000"
           transform="translate(281.606,117)"
           id="path305" />
      </g>
    </g>
    <g
       clip-path="url(#clip12)"
       filter="url(#fx3)"
       transform="matrix(0.26458333,0,0,0.26458333,-8.2504442,99.717135)"
       id="g315">
      <g
         clip-path="url(#clip13)"
         id="g313">
        <path
           d="m 82.082,-31.668 c -2.002,4.641 -6.188,12.285 -12.194,12.285 -5.46,0 -2.184,-8.645 -1.274,-11.375 2.912,-8.19 1.456,-16.198 -9.282,-16.835 -6.37,-0.364 -11.739,3.458 -16.016,8.19 0.273,-5.642 -1.365,-10.101 -8.554,-10.556 -6.37,-0.455 -12.012,3.64 -16.289,8.372 0.455,-0.91 0.91,-1.911 1.365,-3.003 1.183,-2.639 -4.004,-5.187 -8.281,-5.187 -2.184,0 -4.095,0.637 -4.914,2.184 -11.193,22.204 -14.196,43.589 -1.001,43.589 7.644,0 5.096,-3.913 5.096,-3.913 -0.091,0 -1.547,-6.188 2.821,-20.293 1.365,-3.094 6.37,-13.286 14.287,-13.104 9.009,0.273 -12.467,30.576 1.456,32.942 8.918,1.547 10.283,-4.004 10.192,-4.186 -1.547,-2.821 -0.455,-8.008 1.001,-13.559 0.91,-3.549 4.368,-13.013 11.921,-12.831 3.094,0.091 3.185,3.549 2.002,7.462 -4.277,13.741 -6.279,26.026 6.006,27.391 14.469,1.638 21.476,-13.377 23.842,-23.933 0,0 0.728,-3.458 -2.184,-3.64 z m 54.822,0 c -2.002,4.641 -6.188,12.285 -12.285,12.285 -6.552,0 1.274,-18.109 4.459,-25.298 1.183,-2.639 -4.186,-5.187 -8.463,-5.187 -2.093,0 -3.913,0.637 -4.641,2.184 -0.364,0.728 -0.728,1.729 -1.274,2.821 -2.275,-4.641 -8.736,-5.187 -11.375,-5.187 -23.2963,0 -32.3053,42.497 -13.5593,42.497 7.371,0 12.8313,-4.641 16.7443,-10.556 -0.637,7.28 1.274,13.286 8.736,14.105 14.469,1.547 21.476,-13.468 23.842,-24.024 0,0 0.819,-3.458 -2.184,-3.64 z m -39.0393,12.831 c -10.829,0 0.364,-26.39 10.5563,-24.57 4.823,0.819 1.729,9.464 0.455,12.467 -1.547,3.731 -5.278,12.103 -11.0113,12.103 z M 184.26,-31.668 c -2.002,4.641 -6.188,12.285 -12.194,12.285 -4.186,0 -3.913,-4.641 -2.912,-7.371 2.184,-6.188 0.273,-10.92 -4.914,-12.74 4.368,-2.912 8.645,-4.459 11.83,-4.459 0.91,0 1.729,0.091 2.366,0.364 2.912,-0.546 -0.182,-7.371 -7.462,-7.371 -5.642,0 -13.013,4.732 -16.926,8.372 1.911,-5.915 4.459,-12.74 7.735,-20.475 1.183,-2.639 -4.277,-5.187 -8.554,-5.187 -2.093,0 -4.004,0.637 -4.641,2.184 -13.468,31.031 -20.111,58.149 -5.915,58.149 7.644,0 5.096,-4.004 5.096,-4.004 0,0 0,-0.182 0,-0.637 1.092,-8.554 4.823,-15.47 9.464,-20.657 0.182,-0.182 0.364,-0.364 0.455,-0.455 1.092,-0.91 2.184,-1.365 2.912,-1.365 1.456,0 1.82,1.82 -0.728,6.006 -6.37,10.647 -6.37,23.842 2.73,24.934 14.469,1.729 21.476,-13.377 23.842,-23.933 0,0 0.819,-3.458 -2.184,-3.64 z m 37.05,0 c -3.822,8.645 -8.827,15.561 -16.38,15.561 -8.281,0 -10.738,-6.188 -8.827,-11.557 0,0 2.366,1.365 6.552,1.365 7.553,0 12.922,-4.368 12.922,-12.376 0,-8.554 -5.46,-11.284 -11.193,-11.284 -12.285,0 -19.11,15.106 -20.293,18.109 -8.281,21.749 5.278,27.755 14.378,27.755 17.199,0 24.57,-19.474 25.48,-23.66 0.819,-4.095 -2.548,-4.095 -2.639,-3.913 z m -13.104,-11.011 c 4.277,0 3.185,11.648 -5.642,11.648 -1.456,0 -3.094,-0.273 -4.914,-1.001 2.912,-6.097 6.916,-10.647 10.556,-10.647 z"
           fill="#c00000"
           transform="translate(56.5421,111)"
           id="path311" />
      </g>
    </g>
    <g
       aria-label="make"
       id="text317"
       style="font-size:24.0771px;font-family:'Batuphat Script', 'Batuphat Script_MSFontService', sans-serif;fill:#c00000;stroke-width:0.264583">
      <path
         d="m 28.708689,121.50081 c -0.529697,1.22793 -1.637243,3.25041 -3.226332,3.25041 -1.444626,0 -0.57785,-2.28733 -0.337079,-3.00964 0.770467,-2.16694 0.385233,-4.28573 -2.455865,-4.45427 -1.685397,-0.0963 -3.105946,0.91493 -4.237569,2.16694 0.07223,-1.49278 -0.361157,-2.67255 -2.263248,-2.79294 -1.685397,-0.12039 -3.178177,0.96308 -4.309801,2.21509 0.120386,-0.24077 0.240771,-0.50562 0.361157,-0.79454 0.313002,-0.69824 -1.059393,-1.3724 -2.191017,-1.3724 -0.5778499,0 -1.083469,0.16854 -1.3001629,0.57785 -2.9614834,5.87482 -3.7560278,11.53294 -0.2648481,11.53294 2.022476,0 1.3483176,-1.03532 1.3483176,-1.03532 -0.024077,0 -0.4093107,-1.63724 0.7463904,-5.36919 0.361156,-0.81862 1.685397,-3.51526 3.780105,-3.46711 2.383633,0.0722 -3.298563,8.08991 0.385233,8.71592 2.359556,0.40931 2.720713,-1.0594 2.696635,-1.10755 -0.40931,-0.74639 -0.120385,-2.11879 0.264849,-3.58749 0.240771,-0.93901 1.1557,-3.44302 3.1541,-3.39487 0.818621,0.0241 0.842698,0.93901 0.529696,1.97432 -1.131624,3.63564 -1.66132,6.88605 1.589089,7.24721 3.828259,0.43339 5.682195,-3.53933 6.3082,-6.33228 0,0 0.192617,-0.91493 -0.57785,-0.96308 z"
         id="path801" />
      <path
         d="m 43.299389,121.50081 c -0.529696,1.22793 -1.637243,3.25041 -3.250409,3.25041 -1.733551,0 0.33708,-4.79135 1.179778,-6.69344 0.313003,-0.69823 -1.107546,-1.37239 -2.23917,-1.37239 -0.553773,0 -1.035315,0.16854 -1.227932,0.57785 -0.09631,0.19261 -0.192617,0.45746 -0.33708,0.74639 -0.601927,-1.22793 -2.311401,-1.3724 -3.009637,-1.3724 -6.163738,0 -8.547371,11.24401 -3.587488,11.24401 1.950245,0 3.394871,-1.22793 4.430186,-2.79294 -0.168539,1.92616 0.33708,3.51525 2.311402,3.73195 3.828259,0.40931 5.682196,-3.56341 6.3082,-6.35636 0,0 0.216694,-0.91493 -0.57785,-0.96308 z m -10.329076,3.39487 c -2.865175,0 0.09631,-6.98236 2.792944,-6.50082 1.276086,0.2167 0.457464,2.50402 0.120385,3.29856 -0.409311,0.98717 -1.396472,3.20226 -2.913329,3.20226 z"
         id="path803" />
      <path
         d="m 55.891722,121.50081 c -0.529697,1.22793 -1.637243,3.25041 -3.226332,3.25041 -1.107546,0 -1.035315,-1.22794 -0.770467,-1.95025 0.57785,-1.63724 0.07223,-2.88925 -1.300164,-3.37079 1.155701,-0.77047 2.287325,-1.17978 3.130024,-1.17978 0.240771,0 0.457464,0.0241 0.626004,0.0963 0.770467,-0.14447 -0.04815,-1.95025 -1.974322,-1.95025 -1.49278,0 -3.443025,1.25201 -4.478341,2.2151 0.505619,-1.56502 1.179778,-3.3708 2.046554,-5.41735 0.313002,-0.69824 -1.131624,-1.3724 -2.263248,-1.3724 -0.553773,0 -1.059392,0.16854 -1.227932,0.57785 -3.563411,8.21029 -5.321039,15.38527 -1.565011,15.38527 2.022476,0 1.348317,-1.05939 1.348317,-1.05939 0,0 0,-0.0482 0,-0.16854 0.288925,-2.26325 1.276087,-4.09311 2.504019,-5.4655 0.04815,-0.0482 0.09631,-0.0963 0.120385,-0.12039 0.288925,-0.24077 0.577851,-0.36116 0.770467,-0.36116 0.385234,0 0.481542,0.48155 -0.192616,1.58909 -1.685397,2.81702 -1.685397,6.3082 0.722313,6.59713 3.828259,0.45746 5.682195,-3.53933 6.3082,-6.33228 0,0 0.216694,-0.91493 -0.57785,-0.96308 z"
         id="path805" />
      <path
         d="m 65.739243,121.50081 c -1.011238,2.28732 -2.335479,4.11718 -4.333878,4.11718 -2.191017,0 -2.841098,-1.63724 -2.335479,-3.05779 0,0 0.626004,0.36116 1.733551,0.36116 1.998399,0 3.418948,-1.1557 3.418948,-3.27449 0,-2.26325 -1.444626,-2.98556 -2.961483,-2.98556 -3.250409,0 -5.056191,3.9968 -5.369193,4.79134 -2.191017,5.75443 1.396471,7.34352 3.804181,7.34352 4.550572,0 6.500818,-5.1525 6.741589,-6.26005 0.216694,-1.08347 -0.674159,-1.08347 -0.698236,-1.03531 z m -3.467103,-2.91333 c 1.131624,0 0.842699,3.08187 -1.49278,3.08187 -0.385234,0 -0.818621,-0.0722 -1.300163,-0.26485 0.770467,-1.61317 1.829859,-2.81702 2.792943,-2.81702 z"
         id="path807" />
    </g>
    <g
       clip-path="url(#clip14)"
       filter="url(#fx4)"
       transform="matrix(0.26458333,0,0,0.26458333,50.222467,99.717135)"
       id="g323">
      <g
         clip-path="url(#clip15)"
         id="g321">
        <path
           d="m 98.007,-49.231 c 2.548,-5.824 -0.728,-9.373 -4.186,-10.374 -1.456,-0.546 -3.185,-0.819 -5.096,-0.819 -5.551,0 -12.649,2.73 -19.929,11.375 -0.637,-17.654 -18.564,-22.477 -27.755,-22.477 -11.83,0 -27.118,2.093 -35.217,10.556 -8.19,8.463 -6.825,16.016 -1.547,19.11 1.547,0.91 3.549,1.274 5.551,1.274 3.549,0 6.916,-1.092 6.825,-1.911 -0.364,-5.642 3.185,-21.931 25.116,-21.931 18.655,0 18.928,20.384 14.56,25.116 -13.195,14.378 -10.738,29.939 -5.369,31.122 10.192,2.184 13.923,-10.556 16.562,-28.483 8.099,-11.557 15.47,-18.291 18.746,-17.472 -3.822,8.554 -6.734,16.835 -9.282,23.933 -7.735,21.567 -4.823,32.942 4.914,34.034 12.74,1.365 14.924,-15.834 11.739,-14.014 -1.001,0.546 -2.184,0.91 -3.549,0.91 -2.73,0 -3.549,-3.003 -2.73,-7.644 2.73,-14.378 7.189,-24.115 10.647,-32.305 z m -48.776,-1.456 c 1.456,-2.639 -4.277,-5.733 -8.463,-5.733 -1.729,0 -3.185,0.546 -3.822,1.729 -5.187,9.646 -9.737,18.928 -12.831,26.936 -6.097,15.925 -6.916,27.3 2.093,28.21 7.371,0.637 5.278,-2.366 5.278,-2.366 -0.091,0 0.546,-10.374 7.917,-28.119 2.457,-5.915 5.642,-12.831 9.828,-20.657 z m 89.079,19.019 c -3.822,8.645 -8.827,15.561 -16.38,15.561 -8.281,0 -10.738,-6.188 -8.827,-11.557 0,0 2.366,1.365 6.552,1.365 7.553,0 12.922,-4.368 12.922,-12.376 0,-8.554 -5.46,-11.284 -11.193,-11.284 -12.285,0 -19.11,15.106 -20.293,18.109 -8.281,21.749 5.278,27.755 14.378,27.755 17.199,0 24.57,-19.474 25.48,-23.66 0.819,-4.095 -2.548,-4.095 -2.639,-3.913 z m -13.104,-11.011 c 4.277,0 3.185,11.648 -5.642,11.648 -1.456,0 -3.094,-0.273 -4.914,-1.001 2.912,-6.097 6.916,-10.647 10.556,-10.647 z m 67.303,11.011 c -1.911,4.641 -6.188,12.285 -12.194,12.285 -5.369,0 -2.184,-8.645 -1.274,-11.375 2.821,-8.19 1.456,-16.198 -9.191,-16.835 -5.005,-0.273 -9.464,2.002 -13.195,5.278 0.273,-0.728 0.637,-1.547 1.001,-2.275 1.183,-2.639 -4.004,-5.187 -8.281,-5.187 -2.093,0 -4.004,0.637 -4.823,2.184 -11.193,22.204 -14.287,43.589 -1.092,43.589 7.735,0 5.096,-3.913 5.096,-3.913 -0.091,0 -1.638,-6.461 3.003,-21.203 1.911,-4.277 5.369,-9.919 11.284,-9.828 3.185,0.091 3.276,3.549 2.002,7.462 -4.277,13.741 -6.188,26.026 6.006,27.391 14.56,1.638 21.476,-13.377 23.842,-23.933 0,0 0.728,-3.458 -2.184,-3.64 z m 20.679,-37.947 c 0,4.914 6.37,15.925 11.284,15.925 2.366,0 3.094,-0.455 3.094,-2.821 0,-4.823 -5.733,-16.835 -9.373,-16.835 -2.821,0 -5.005,1.365 -5.005,3.731 z m 33.488,38.038 c -1.911,4.641 -5.551,10.374 -11.557,10.374 -3.458,0 -3.003,-4.368 -1.547,-9.464 1.547,-4.459 3.549,-9.1 4.823,-11.921 1.183,-2.639 -4.186,-5.187 -8.554,-5.187 -2.093,0 -3.913,0.637 -4.641,2.184 -0.455,1.092 -3.64,7.189 -5.733,14.196 -2.093,4.641 -6.279,12.012 -12.194,12.012 -6.643,0 1.183,-18.109 4.459,-25.298 1.183,-2.639 -4.186,-5.187 -8.554,-5.187 -2.093,0 -3.913,0.637 -4.641,2.184 -3.549,8.19 -19.11,41.587 -0.819,43.589 9.282,1.001 15.379,-4.55 19.292,-11.466 0.819,7.007 5.46,9.919 12.012,9.919 12.012,0 17.654,-12.649 19.838,-22.295 0,0 0.728,-3.549 -2.184,-3.64 z"
           fill="#ffc000"
           transform="translate(56.5421,111)"
           id="path319" />
      </g>
    </g>
    <g
       aria-label="Menù"
       id="text325"
       style="font-size:24.0771px;font-family:'Batuphat Script', 'Batuphat Script_MSFontService', sans-serif;fill:#ffc000;stroke-width:0.264583">
      <path
         d="m 91.395095,116.85393 c 0.674159,-1.54094 -0.192616,-2.47994 -1.107546,-2.74479 -0.385234,-0.14446 -0.842699,-0.2167 -1.348318,-0.2167 -1.468703,0 -3.346717,0.72232 -5.272885,3.00964 -0.16854,-4.67096 -4.911728,-5.94704 -7.343516,-5.94704 -3.130023,0 -7.174976,0.55377 -9.317838,2.79294 -2.166939,2.23917 -1.805782,4.23757 -0.40931,5.05619 0.40931,0.24077 0.939007,0.33708 1.468703,0.33708 0.939007,0 1.829859,-0.28892 1.805782,-0.50562 -0.09631,-1.49278 0.842699,-5.80258 6.64528,-5.80258 4.935806,0 5.008037,5.39327 3.852336,6.64528 -3.491179,3.80418 -2.841098,7.92137 -1.420549,8.23437 2.696636,0.57785 3.683797,-2.79294 4.382033,-7.53613 2.142862,-3.05779 4.093107,-4.8395 4.959882,-4.62281 -1.011238,2.26325 -1.781705,4.45427 -2.455864,6.33228 -2.046553,5.70627 -1.276086,8.71591 1.300164,9.00484 3.370794,0.36115 3.948644,-4.18942 3.105946,-3.70788 -0.264849,0.14447 -0.577851,0.24077 -0.939007,0.24077 -0.722313,0 -0.939007,-0.79454 -0.722313,-2.02247 0.722313,-3.80418 1.902091,-6.38043 2.81702,-8.54737 z m -12.905326,-0.38524 c 0.385234,-0.69823 -1.131623,-1.51685 -2.23917,-1.51685 -0.457465,0 -0.842698,0.14446 -1.011238,0.45746 -1.372395,2.55217 -2.57625,5.00804 -3.394871,7.12682 -1.613166,4.2135 -1.82986,7.22313 0.553773,7.4639 1.950245,0.16854 1.396472,-0.626 1.396472,-0.626 -0.02408,0 0.144462,-2.74479 2.094708,-7.43982 0.650081,-1.56502 1.49278,-3.39488 2.600326,-5.46551 z"
         id="path810" />
      <path
         d="m 102.15757,121.50081 c -1.01124,2.28732 -2.335482,4.11718 -4.333881,4.11718 -2.191017,0 -2.841098,-1.63724 -2.335479,-3.05779 0,0 0.626004,0.36116 1.733551,0.36116 1.998399,0 3.418949,-1.1557 3.418949,-3.27449 0,-2.26325 -1.444627,-2.98556 -2.961484,-2.98556 -3.250409,0 -5.056191,3.9968 -5.369193,4.79134 -2.191017,5.75443 1.396471,7.34352 3.804181,7.34352 4.550576,0 6.500816,-5.1525 6.741586,-6.26005 0.2167,-1.08347 -0.67416,-1.08347 -0.69823,-1.03531 z m -3.467106,-2.91333 c 1.131624,0 0.842699,3.08187 -1.49278,3.08187 -0.385234,0 -0.818621,-0.0722 -1.300163,-0.26485 0.770467,-1.61317 1.829859,-2.81702 2.792943,-2.81702 z"
         id="path812" />
      <path
         d="m 116.55568,121.50081 c -0.50562,1.22793 -1.63724,3.25041 -3.22633,3.25041 -1.42055,0 -0.57785,-2.28733 -0.33708,-3.00964 0.74639,-2.16694 0.38524,-4.28573 -2.43179,-4.45427 -1.32424,-0.0722 -2.50401,0.5297 -3.49118,1.39648 0.0722,-0.19262 0.16854,-0.40931 0.26485,-0.60193 0.31301,-0.69824 -1.05939,-1.3724 -2.19101,-1.3724 -0.55378,0 -1.0594,0.16854 -1.27609,0.57785 -2.96148,5.87482 -3.7801,11.53294 -0.28892,11.53294 2.04655,0 1.34831,-1.03532 1.34831,-1.03532 -0.0241,0 -0.43338,-1.70947 0.79455,-5.60996 0.50562,-1.13163 1.42055,-2.62441 2.98556,-2.60033 0.8427,0.0241 0.86677,0.93901 0.52969,1.97432 -1.13162,3.63564 -1.63724,6.88605 1.58909,7.24721 3.85234,0.43339 5.6822,-3.53933 6.3082,-6.33228 0,0 0.19262,-0.91493 -0.57785,-0.96308 z"
         id="path814" />
      <path
         d="m 122.0934,111.46066 c 0,1.30016 1.6854,4.21349 2.98556,4.21349 0.62601,0 0.81863,-0.12039 0.81863,-0.74639 0,-1.27609 -1.51686,-4.45426 -2.47995,-4.45426 -0.74639,0 -1.32424,0.36115 -1.32424,0.98716 z m 8.86038,10.06422 c -0.50562,1.22794 -1.46871,2.74479 -3.0578,2.74479 -0.91492,0 -0.79454,-1.1557 -0.40931,-2.50401 0.40931,-1.17978 0.93901,-2.40771 1.27609,-3.1541 0.313,-0.69824 -1.10755,-1.3724 -2.26325,-1.3724 -0.55377,0 -1.03531,0.16854 -1.22793,0.57785 -0.12038,0.28893 -0.96308,1.90209 -1.51686,3.75603 -0.55377,1.22793 -1.66132,3.17818 -3.22633,3.17818 -1.75763,0 0.313,-4.79135 1.17978,-6.69344 0.313,-0.69823 -1.10755,-1.37239 -2.26325,-1.37239 -0.55377,0 -1.03531,0.16854 -1.22793,0.57785 -0.93901,2.16694 -5.05619,11.00323 -0.21669,11.53293 2.45586,0.26485 4.06903,-1.20386 5.10434,-3.03372 0.2167,1.85394 1.44463,2.62441 3.17818,2.62441 3.17818,0 4.67096,-3.34672 5.24881,-5.89889 0,0 0.19261,-0.93901 -0.57785,-0.96309 z"
         id="path816" />
    </g>
    <g
       clip-path="url(#clip16)"
       id="g343"
       transform="matrix(0.26458333,0,0,0.26458333,-92.387943,81.196305)">
      <g
         clip-path="url(#clip17)"
         id="g341">
        <g
           clip-path="url(#clip18)"
           id="g339">
          <path
             d="m 41.4214,37.5349 c -1.0081,6.2617 -3.4809,12.1966 -7.2171,17.3216 l 0.1931,0.1931 c -1.1847,0.1354 -2.3177,0.2844 -3.307,0.4281 0.292,-1.2409 0.1109,-2.5461 -0.508,-3.6606 -0.6093,-0.9144 -1.6434,-1.4542 -2.742,-1.4311 H 27.81 c -2.0737,0.0159 -4.3002,1.1208 -6.1731,2.3846 -0.051,-0.1163 -0.1072,-0.2319 -0.1696,-0.3452 -0.6067,-1.091 -1.6966,-1.828 -2.9352,-1.9847 -0.9495,-0.1114 -1.9111,0.0498 -2.7725,0.4646 C 16.15,49.2556 16.1157,47.5339 15.66,45.901 15.0311,43.9613 13.5003,42.4472 11.5538,41.8396 10.1051,41.3675 8.56625,41.2402 7.05971,41.4678 c -1.40505,0.2036 -2.77994,0.5783 -4.09408,1.1155 -1.18354,0.432 -1.79282,1.7416 -1.36087,2.9251 0.43196,1.1835 1.74157,1.7929 2.9251,1.3609 0.03659,-0.0133 0.07283,-0.0276 0.10868,-0.0428 0.96678,-0.398 1.97812,-0.6776 3.01201,-0.8327 0.80544,-0.1331 1.63072,-0.0779 2.41125,0.1612 0.5959,0.1403 1.0743,0.5833 1.26,1.1665 0.8791,2.6835 -2.04928,8.782 -4.55637,12.5469 -0.11178,0.1612 -0.21596,0.3163 -0.31405,0.4615 -0.70531,1.044 -0.43075,2.4621 0.61323,3.1674 1.03801,0.7013 2.44721,0.4344 3.15689,-0.5979 0.0563,-0.0814 0.1437,-0.2091 0.2578,-0.3802 2.4006,-3.4979 5.5168,-6.7867 6.9677,-7.4453 -0.089,0.6586 -0.2657,1.3023 -0.5254,1.914 -0.5091,1.1524 0.0123,2.4994 1.1648,3.0085 0.8666,0.3829 1.8796,0.1903 2.5452,-0.4839 1.6893,-1.7215 3.656,-3.1466 5.818,-4.2158 -0.1853,0.7214 -0.4244,1.4278 -0.7156,2.1132 -0.5021,1.1556 0.0276,2.4994 1.1832,3.0014 0.4171,0.1813 0.879,0.2338 1.3262,0.1506 0.0464,-0.0092 4.6918,-0.8639 9.1858,-1.2273 0.3353,-0.0294 0.6598,-0.1333 0.9498,-0.3042 l 0.1521,0.1521 c 5.125,-3.7365 11.0603,-6.2093 17.3223,-7.2171 0,0 0.9763,-5.2979 8.5759,-12.9112 L 54.3272,28.9529 c -7.6148,7.5996 -12.9058,8.582 -12.9058,8.582 z m 7.9395,9.3828 c -0.5894,0.5883 -1.4774,0.7593 -2.2432,0.4319 L 37.0802,57.3871 36.0057,56.3104 46.0432,46.2729 c -0.4419,-1.0365 0.04,-2.235 1.0766,-2.677 1.0364,-0.4419 2.2349,0.0401 2.6768,1.0765 0.327,0.7666 0.1547,1.6549 -0.4349,2.2438 z"
             fill="#ffc000"
             transform="matrix(1,0,0,1.06849,841,106)"
             id="path335" />
          <path
             d="M 55.0831,25.334 68.074,38.325 c 0,0 1.2859,-1.1779 3.3907,-3.1116 V 7.60417 C 62.4188,17.3375 55.0831,25.334 55.0831,25.334 Z"
             fill="#ffc000"
             transform="matrix(1,0,0,1.06849,841,106)"
             id="path337" />
        </g>
      </g>
    </g>
    <g
       aria-label="from team developer of"
       id="text1763"
       style="font-weight:bold;font-size:5.64444px;font-family:'Eri Light Serif';-inkscape-font-specification:'Eri Light Serif Bold';fill:#ff0000;stroke:#ffffff;stroke-width:0.264999;stroke-opacity:0">
      <path
         d="m 7.8199929,108.24972 q 0.044097,0 0.079926,-0.0303 0.038585,-0.0303 0.055121,-0.0965 0.060634,-0.28939 0.071658,-0.57051 0.01378,-0.28112 0.01378,-0.57326 v -0.95636 h 0.8984803 q 0.112999,0 0.1295355,-0.13505 0,-0.0496 -0.038585,-0.0882 -0.035829,-0.0413 -0.09095,-0.0413 H 8.0404788 v -0.26459 q 0,-0.26182 0.060634,-0.49885 0.060634,-0.23977 0.1901691,-0.42443 0.1322916,-0.18741 0.3362411,-0.2949 0.2039495,-0.10749 0.4933373,-0.10749 0.055122,0 0.093706,-0.0358 0.041341,-0.0386 0.041341,-0.0937 0,-0.0551 -0.041341,-0.0909 -0.038585,-0.0386 -0.093706,-0.0386 -0.3472654,0 -0.6008242,0.12954 -0.2508028,0.12678 -0.4161672,0.35002 -0.1653645,0.22048 -0.2452907,0.50712 -0.079926,0.28387 -0.079926,0.59806 v 1.48553 q 0,0.2756 -0.011024,0.5457 -0.011024,0.2701 -0.066146,0.54019 -0.00551,0.0248 -0.00551,0.0468 0,0.0662 0.038585,0.10198 0.038585,0.0358 0.085438,0.0358 z"
         style="fill:#d4aa00"
         id="path819" />
      <path
         d="m 10.057925,108.24972 q 0.05512,0 0.09371,-0.0386 0.04134,-0.0413 0.04134,-0.0937 v -1.49655 q 0,-0.26183 0.06063,-0.49885 0.06339,-0.23978 0.192925,-0.42444 0.129535,-0.18741 0.336241,-0.2949 0.206705,-0.11024 0.496093,-0.11024 0.07717,0 0.115755,-0.0413 0.03858,-0.0413 0.03858,-0.0909 0,-0.0469 -0.03858,-0.0882 -0.03859,-0.0413 -0.115755,-0.0413 -0.391362,0 -0.66697,0.16261 -0.275607,0.15985 -0.438216,0.4327 -0.01378,-0.23151 -0.06339,-0.46853 -0.01654,-0.0661 -0.05512,-0.0965 -0.03858,-0.0303 -0.079926,-0.0303 -0.049609,0 -0.09095,0.0358 -0.038585,0.0331 -0.038585,0.10198 0,0.0138 0.00551,0.0441 0.055122,0.27286 0.066146,0.54019 0.011024,0.26459 0.011024,0.54019 v 1.82453 q 0,0.0524 0.038585,0.0937 0.038585,0.0386 0.09095,0.0386 z"
         style="fill:#d4aa00"
         id="path821" />
      <path
         d="m 12.987632,105.03062 q -0.350021,0 -0.606336,0.13229 -0.253559,0.12954 -0.416167,0.35554 -0.162609,0.22324 -0.239779,0.51538 -0.07717,0.28939 -0.07717,0.60634 0,0.31695 0.07717,0.60909 0.07717,0.28939 0.239779,0.51539 0.162608,0.22324 0.416167,0.35553 0.253559,0.12954 0.606336,0.12954 0.352778,0 0.606337,-0.12954 0.256315,-0.13229 0.418923,-0.35553 0.162608,-0.226 0.239779,-0.51539 0.07717,-0.29214 0.07717,-0.60909 0,-0.31695 -0.07717,-0.60634 -0.07717,-0.29214 -0.242535,-0.51538 -0.162608,-0.226 -0.416167,-0.35554 -0.253559,-0.13229 -0.606337,-0.13229 z m 0,0.26183 q 0.2949,0 0.501606,0.113 0.206706,0.11024 0.333485,0.30041 0.126779,0.18741 0.184657,0.42995 0.06063,0.24253 0.06063,0.50436 0,0.26183 -0.06063,0.50436 -0.05788,0.24254 -0.184657,0.43271 -0.126779,0.18741 -0.333485,0.30041 -0.206706,0.11024 -0.501606,0.11024 -0.2949,0 -0.501605,-0.11024 -0.20395,-0.113 -0.333485,-0.30041 -0.126779,-0.19017 -0.184657,-0.43271 -0.05788,-0.24253 -0.05788,-0.50436 0,-0.26183 0.05788,-0.50436 0.05788,-0.24254 0.184657,-0.42995 0.129535,-0.19017 0.333485,-0.30041 0.206705,-0.113 0.501605,-0.113 z"
         style="fill:#d4aa00"
         id="path823" />
      <path
         d="m 19.365188,108.24972 q 0.05512,0 0.09371,-0.0386 0.04134,-0.0386 0.04134,-0.0909 v -1.67293 q 0,-0.2949 -0.06339,-0.55122 -0.06339,-0.25631 -0.203949,-0.44924 -0.137804,-0.19293 -0.363802,-0.30317 -0.223242,-0.11024 -0.545703,-0.11024 -0.416167,0 -0.672482,0.17914 -0.253559,0.17915 -0.374826,0.47956 -0.121267,-0.30041 -0.374826,-0.47956 -0.253559,-0.17914 -0.669726,-0.17914 -0.341754,0 -0.573264,0.12402 -0.23151,0.12403 -0.369314,0.339 -0.02205,-0.16812 -0.05512,-0.33624 -0.01654,-0.0662 -0.05512,-0.0965 -0.03858,-0.0331 -0.08268,-0.0331 -0.04685,0 -0.08819,0.0386 -0.03858,0.0358 -0.03858,0.10197 0,0.022 0.0055,0.0441 0.05788,0.2701 0.0689,0.53743 0.01102,0.26734 0.01102,0.54295 v 1.82452 q 0,0.0524 0.03858,0.0909 0.03858,0.0386 0.09095,0.0386 0.05512,0 0.09371,-0.0386 0.03859,-0.0386 0.03859,-0.0909 v -1.67293 q 0,-0.31695 0.07993,-0.57602 0.08268,-0.26183 0.28112,-0.41893 0.201193,-0.15709 0.553971,-0.15709 0.352777,0 0.551214,0.15709 0.201194,0.1571 0.28112,0.41893 0.08268,0.25907 0.08268,0.57602 v 1.67293 q 0,0.0524 0.03859,0.0909 0.03859,0.0386 0.09095,0.0386 0.05512,0 0.09095,-0.0386 0.03859,-0.0386 0.03859,-0.0909 v -1.67293 q 0,-0.31695 0.07993,-0.57602 0.08268,-0.26183 0.283876,-0.41893 0.201193,-0.15709 0.553971,-0.15709 0.352778,0 0.551215,0.15709 0.198437,0.1571 0.278363,0.41893 0.08268,0.25907 0.08268,0.57602 v 1.67293 q 0,0.0524 0.03859,0.0909 0.03859,0.0386 0.09095,0.0386 z"
         style="fill:#d4aa00"
         id="path825" />
      <path
         d="m 22.934304,108.24972 q 0.05788,0 0.09371,-0.0386 0.03583,-0.0386 0.03583,-0.0854 0,-0.0386 -0.02481,-0.0744 -0.0248,-0.0386 -0.08268,-0.0606 -0.253559,-0.0992 -0.405143,-0.29766 -0.148828,-0.20119 -0.212218,-0.452 -0.06339,-0.25355 -0.06339,-0.50436 v -1.44418 h 0.788238 q 0.05237,0 0.08819,-0.0386 0.03859,-0.0386 0.03859,-0.0937 0,-0.0551 -0.03859,-0.091 -0.03583,-0.0386 -0.08819,-0.0386 h -0.788238 v -0.98943 q 0,-0.0551 -0.03583,-0.0937 -0.03583,-0.0386 -0.09371,-0.0386 -0.124023,0 -0.132292,0.13229 v 2.69544 q 0,0.30868 0.08268,0.6091 0.08268,0.30041 0.270095,0.53467 0.190169,0.23427 0.498849,0.35554 0.03583,0.0138 0.0689,0.0138 z"
         style="fill:#aa0000"
         id="path827" />
      <path
         d="m 24.824971,106.72285 h -1.085893 v -0.0827 q 0,-0.26183 0.05788,-0.50161 0.06063,-0.24253 0.187413,-0.4327 0.129535,-0.19017 0.333485,-0.30041 0.206705,-0.113 0.501605,-0.113 0.259071,0 0.485069,0.0965 0.225998,0.0965 0.366558,0.28663 0.14056,0.18742 0.14056,0.46854 0,0.20119 -0.09371,0.31695 -0.09371,0.11575 -0.242534,0.17363 -0.146072,0.0579 -0.319705,0.0744 -0.170876,0.0138 -0.330729,0.0138 z m -0.0055,1.52687 q 0.179145,0 0.350022,-0.0276 0.173632,-0.0303 0.341753,-0.0992 0.05236,-0.022 0.07441,-0.0579 0.0248,-0.0386 0.0248,-0.0744 0,-0.0496 -0.03583,-0.0854 -0.03307,-0.0386 -0.09371,-0.0386 -0.03307,0 -0.07717,0.0165 -0.272852,0.10473 -0.584288,0.10473 -0.327973,0 -0.548459,-0.13505 -0.21773,-0.13504 -0.341753,-0.36104 -0.121267,-0.226 -0.162608,-0.50712 h 1.058332 q 0.220486,0 0.440972,-0.0303 0.220486,-0.0331 0.402387,-0.12126 0.181901,-0.091 0.292144,-0.25632 0.112999,-0.16536 0.112999,-0.4327 0,-0.35278 -0.176389,-0.60083 -0.173633,-0.2508 -0.460264,-0.38034 -0.283876,-0.13229 -0.617361,-0.13229 -0.352777,0 -0.609092,0.13229 -0.253559,0.12954 -0.416168,0.35554 -0.162608,0.226 -0.239778,0.51538 -0.07717,0.28939 -0.07717,0.60634 0,0.3197 0.07717,0.60909 0.07717,0.28939 0.239778,0.51539 0.162609,0.22324 0.416168,0.35553 0.256315,0.12954 0.609092,0.12954 z"
         style="fill:#aa0000"
         id="path829" />
      <path
         d="m 29.171301,108.24972 q 0.04685,0 0.08544,-0.0358 0.04134,-0.0386 0.04134,-0.10473 0,-0.0276 -0.0055,-0.0469 -0.05512,-0.26733 -0.06615,-0.53192 -0.01102,-0.26734 -0.01102,-0.53743 v -0.35554 q 0,-0.31694 -0.07717,-0.60633 -0.07717,-0.28939 -0.239779,-0.51263 -0.162608,-0.226 -0.418923,-0.35554 -0.253559,-0.13229 -0.606336,-0.13229 -0.35829,0 -0.683507,0.12954 -0.05512,0.022 -0.07993,0.0579 -0.0248,0.0358 -0.0248,0.0744 0,0.0496 0.03583,0.0882 0.03858,0.0386 0.09922,0.0386 0.03307,0 0.07166,-0.0138 0.14056,-0.0634 0.286632,-0.0854 0.146072,-0.0248 0.2949,-0.0248 0.330729,0 0.548458,0.13504 0.21773,0.1323 0.338998,0.35829 0.124023,0.226 0.165364,0.50712 h -1.058333 q -0.217729,0 -0.438215,0.0331 -0.220486,0.0303 -0.402387,0.12127 -0.181901,0.0882 -0.2949,0.25632 -0.110243,0.16536 -0.110243,0.4327 0,0.35278 0.173633,0.60082 0.176388,0.24805 0.460264,0.38034 0.286632,0.12954 0.617361,0.12954 0.396874,0 0.66697,-0.16261 0.272851,-0.16261 0.429947,-0.42995 0.01929,0.23151 0.06339,0.46302 0.01378,0.0689 0.05236,0.0992 0.04134,0.0303 0.08544,0.0303 z m -1.298111,-0.26459 q -0.259071,0 -0.485069,-0.0937 -0.223242,-0.0965 -0.363802,-0.28388 -0.137804,-0.19017 -0.137804,-0.46853 0,-0.19844 0.09095,-0.31695 0.09371,-0.11851 0.239779,-0.17639 0.148828,-0.0579 0.319705,-0.0744 0.173632,-0.0193 0.330728,-0.0193 h 1.083138 v 0.0854 q 0,0.26459 -0.05788,0.50712 -0.05788,0.23978 -0.187413,0.42995 -0.126779,0.19017 -0.333485,0.30041 -0.203949,0.11024 -0.498849,0.11024 z"
         style="fill:#aa0000"
         id="path831" />
      <path
         d="m 34.347207,108.24972 q 0.05512,0 0.09371,-0.0386 0.04134,-0.0386 0.04134,-0.0909 v -1.67293 q 0,-0.2949 -0.06339,-0.55122 -0.06339,-0.25631 -0.20395,-0.44924 -0.137803,-0.19293 -0.363801,-0.30317 -0.223242,-0.11024 -0.545703,-0.11024 -0.416167,0 -0.672482,0.17914 -0.253559,0.17915 -0.374826,0.47956 -0.121268,-0.30041 -0.374826,-0.47956 -0.253559,-0.17914 -0.669726,-0.17914 -0.341754,0 -0.573264,0.12402 -0.23151,0.12403 -0.369314,0.339 -0.02205,-0.16812 -0.05512,-0.33624 -0.01654,-0.0662 -0.05512,-0.0965 -0.03859,-0.0331 -0.08268,-0.0331 -0.04685,0 -0.08819,0.0386 -0.03859,0.0358 -0.03859,0.10197 0,0.022 0.0055,0.0441 0.05788,0.2701 0.0689,0.53743 0.01102,0.26734 0.01102,0.54295 v 1.82452 q 0,0.0524 0.03859,0.0909 0.03858,0.0386 0.09095,0.0386 0.05512,0 0.09371,-0.0386 0.03859,-0.0386 0.03859,-0.0909 v -1.67293 q 0,-0.31695 0.07993,-0.57602 0.08268,-0.26183 0.28112,-0.41893 0.201193,-0.15709 0.553971,-0.15709 0.352777,0 0.551214,0.15709 0.201194,0.1571 0.28112,0.41893 0.08268,0.25907 0.08268,0.57602 v 1.67293 q 0,0.0524 0.03859,0.0909 0.03858,0.0386 0.09095,0.0386 0.05512,0 0.09095,-0.0386 0.03859,-0.0386 0.03859,-0.0909 v -1.67293 q 0,-0.31695 0.07993,-0.57602 0.08268,-0.26183 0.283876,-0.41893 0.201193,-0.15709 0.553971,-0.15709 0.352777,0 0.551215,0.15709 0.198437,0.1571 0.278363,0.41893 0.08268,0.25907 0.08268,0.57602 v 1.67293 q 0,0.0524 0.03858,0.0909 0.03859,0.0386 0.09095,0.0386 z"
         style="fill:#aa0000"
         id="path833" />
      <path
         d="m 38.252566,108.24972 q 0.394118,0 0.664214,-0.15985 0.270095,-0.16261 0.427191,-0.43271 0.01654,0.23151 0.06615,0.46578 0.01654,0.0661 0.05237,0.0965 0.03858,0.0303 0.08268,0.0303 0.04961,0 0.08819,-0.0358 0.03859,-0.0358 0.03859,-0.10198 0,-0.022 -0.0055,-0.0441 -0.05237,-0.25081 -0.06339,-0.49885 -0.01102,-0.24805 -0.01102,-0.50161 v -3.02617 q 0,-0.0551 -0.03859,-0.0937 -0.03858,-0.0386 -0.09371,-0.0386 -0.05237,0 -0.09371,0.0386 -0.03858,0.0386 -0.03858,0.0937 v 1.56545 q -0.162609,-0.26458 -0.429948,-0.41616 -0.267339,-0.15434 -0.644921,-0.15434 -0.350022,0 -0.603581,0.13229 -0.253558,0.12953 -0.416167,0.35553 -0.162608,0.22324 -0.242534,0.51263 -0.07717,0.28939 -0.07717,0.60634 0,0.31694 0.07717,0.60633 0.07993,0.28939 0.242534,0.51539 0.162609,0.22324 0.416167,0.35553 0.253559,0.12954 0.603581,0.12954 z m 0,-0.26183 q -0.2949,0 -0.501606,-0.11024 -0.203949,-0.113 -0.330729,-0.30041 -0.126779,-0.19017 -0.184657,-0.42995 -0.05788,-0.24254 -0.05788,-0.50436 0,-0.26183 0.05788,-0.50161 0.05788,-0.24253 0.184657,-0.42995 0.12678,-0.19017 0.330729,-0.30041 0.206706,-0.113 0.501606,-0.113 0.2949,0 0.498849,0.113 0.206706,0.113 0.333485,0.30317 0.129536,0.19017 0.184657,0.4327 0.05788,0.23978 0.05788,0.4961 0,0.26182 -0.05788,0.50436 -0.05788,0.23978 -0.184657,0.42995 -0.126779,0.18741 -0.333485,0.30041 -0.203949,0.11024 -0.498849,0.11024 z"
         style="fill:#aa0000"
         id="path835" />
      <path
         d="m 41.667341,106.72285 h -1.085893 v -0.0827 q 0,-0.26183 0.05788,-0.50161 0.06063,-0.24253 0.187413,-0.4327 0.129535,-0.19017 0.333485,-0.30041 0.206705,-0.113 0.501605,-0.113 0.259071,0 0.485069,0.0965 0.225998,0.0965 0.366558,0.28663 0.14056,0.18742 0.14056,0.46854 0,0.20119 -0.09371,0.31695 -0.09371,0.11575 -0.242534,0.17363 -0.146072,0.0579 -0.319705,0.0744 -0.170876,0.0138 -0.330729,0.0138 z m -0.0055,1.52687 q 0.179145,0 0.350022,-0.0276 0.173632,-0.0303 0.341753,-0.0992 0.05237,-0.022 0.07441,-0.0579 0.0248,-0.0386 0.0248,-0.0744 0,-0.0496 -0.03583,-0.0854 -0.03307,-0.0386 -0.09371,-0.0386 -0.03307,0 -0.07717,0.0165 -0.272851,0.10473 -0.584288,0.10473 -0.327973,0 -0.548459,-0.13505 -0.21773,-0.13504 -0.341753,-0.36104 -0.121267,-0.226 -0.162608,-0.50712 h 1.058332 q 0.220486,0 0.440972,-0.0303 0.220486,-0.0331 0.402387,-0.12126 0.181901,-0.091 0.292144,-0.25632 0.112999,-0.16536 0.112999,-0.4327 0,-0.35278 -0.176389,-0.60083 -0.173633,-0.2508 -0.460264,-0.38034 -0.283876,-0.13229 -0.617361,-0.13229 -0.352777,0 -0.609092,0.13229 -0.253559,0.12954 -0.416168,0.35554 -0.162608,0.226 -0.239778,0.51538 -0.07717,0.28939 -0.07717,0.60634 0,0.3197 0.07717,0.60909 0.07717,0.28939 0.239778,0.51539 0.162609,0.22324 0.416168,0.35553 0.256315,0.12954 0.609092,0.12954 z"
         style="fill:#aa0000"
         id="path837" />
      <path
         d="m 43.726128,105.17394 v -0.011 q 0,-0.0551 -0.03859,-0.0937 -0.03583,-0.0386 -0.09095,-0.0386 -0.05512,0 -0.09371,0.0386 -0.03858,0.0386 -0.03858,0.0937 v 0.011 q 0.0055,0.58153 0.126779,1.15204 0.02481,0.1378 0.08268,0.37207 0.06063,0.23151 0.148828,0.49885 0.09095,0.26458 0.212217,0.50436 0.121268,0.23978 0.272852,0.39412 0.151584,0.15434 0.336241,0.15434 0.181901,0 0.333485,-0.15434 0.15434,-0.1571 0.275607,-0.39688 0.121267,-0.24253 0.209462,-0.50987 0.09095,-0.26734 0.148828,-0.49885 0.06063,-0.23427 0.08544,-0.37483 0.05512,-0.27836 0.0882,-0.56775 0.03583,-0.28939 0.03583,-0.57326 v -0.011 q 0,-0.0551 -0.03858,-0.0937 -0.03858,-0.0386 -0.09371,-0.0386 -0.05512,0 -0.09371,0.0386 -0.03583,0.0386 -0.03583,0.0937 v 0.011 q -0.0083,0.55121 -0.118511,1.0914 -0.118511,0.63941 -0.383094,1.23197 -0.03032,0.0662 -0.09646,0.1819 -0.06615,0.11576 -0.151584,0.21222 -0.08268,0.0965 -0.165364,0.0965 -0.08268,0 -0.168121,-0.0965 -0.08544,-0.0965 -0.151584,-0.20946 -0.06339,-0.11576 -0.09646,-0.1819 -0.261828,-0.5898 -0.380339,-1.22646 -0.112999,-0.54294 -0.121267,-1.09967 z"
         style="fill:#aa0000"
         id="path839" />
      <path
         d="m 47.719679,106.72285 h -1.085893 v -0.0827 q 0,-0.26183 0.05788,-0.50161 0.06063,-0.24253 0.187413,-0.4327 0.129536,-0.19017 0.333485,-0.30041 0.206706,-0.113 0.501606,-0.113 0.259071,0 0.485069,0.0965 0.225998,0.0965 0.366558,0.28663 0.14056,0.18742 0.14056,0.46854 0,0.20119 -0.09371,0.31695 -0.09371,0.11575 -0.242535,0.17363 -0.146071,0.0579 -0.319704,0.0744 -0.170877,0.0138 -0.330729,0.0138 z m -0.0055,1.52687 q 0.179145,0 0.350021,-0.0276 0.173633,-0.0303 0.341753,-0.0992 0.05237,-0.022 0.07441,-0.0579 0.0248,-0.0386 0.0248,-0.0744 0,-0.0496 -0.03583,-0.0854 -0.03307,-0.0386 -0.09371,-0.0386 -0.03307,0 -0.07717,0.0165 -0.272852,0.10473 -0.584288,0.10473 -0.327973,0 -0.548459,-0.13505 -0.21773,-0.13504 -0.341753,-0.36104 -0.121268,-0.226 -0.162609,-0.50712 h 1.058333 q 0.220486,0 0.440972,-0.0303 0.220486,-0.0331 0.402387,-0.12126 0.181901,-0.091 0.292144,-0.25632 0.112999,-0.16536 0.112999,-0.4327 0,-0.35278 -0.176389,-0.60083 -0.173633,-0.2508 -0.460265,-0.38034 -0.283875,-0.13229 -0.61736,-0.13229 -0.352778,0 -0.609093,0.13229 -0.253558,0.12954 -0.416167,0.35554 -0.162608,0.226 -0.239778,0.51538 -0.07717,0.28939 -0.07717,0.60634 0,0.3197 0.07717,0.60909 0.07717,0.28939 0.239778,0.51539 0.162609,0.22324 0.416167,0.35553 0.256315,0.12954 0.609093,0.12954 z"
         style="fill:#aa0000"
         id="path841" />
      <path
         d="m 50.1781,108.24972 q 0.05237,0 0.08819,-0.0358 0.03583,-0.0358 0.03583,-0.0882 0,-0.0496 -0.0441,-0.10748 -0.15434,-0.18742 -0.220486,-0.41617 -0.06339,-0.23151 -0.06339,-0.46578 v -3.09507 q 0,-0.0551 -0.03858,-0.0937 -0.03583,-0.0386 -0.08819,-0.0386 -0.05512,0 -0.09646,0.0386 -0.03858,0.0386 -0.03858,0.0937 v 3.09507 q 0,0.28388 0.07993,0.55673 0.07993,0.27285 0.264583,0.49609 0.06339,0.0606 0.121267,0.0606 z"
         style="fill:#aa0000"
         id="path843" />
      <path
         d="m 52.201058,105.03062 q -0.350022,0 -0.606337,0.13229 -0.253559,0.12954 -0.416167,0.35554 -0.162608,0.22324 -0.239778,0.51538 -0.07717,0.28939 -0.07717,0.60634 0,0.31695 0.07717,0.60909 0.07717,0.28939 0.239778,0.51539 0.162608,0.22324 0.416167,0.35553 0.253559,0.12954 0.606337,0.12954 0.352777,0 0.606336,-0.12954 0.256315,-0.13229 0.418923,-0.35553 0.162609,-0.226 0.239779,-0.51539 0.07717,-0.29214 0.07717,-0.60909 0,-0.31695 -0.07717,-0.60634 -0.07717,-0.29214 -0.242535,-0.51538 -0.162608,-0.226 -0.416167,-0.35554 -0.253559,-0.13229 -0.606336,-0.13229 z m 0,0.26183 q 0.2949,0 0.501605,0.113 0.206706,0.11024 0.333485,0.30041 0.12678,0.18741 0.184657,0.42995 0.06063,0.24253 0.06063,0.50436 0,0.26183 -0.06063,0.50436 -0.05788,0.24254 -0.184657,0.43271 -0.126779,0.18741 -0.333485,0.30041 -0.206705,0.11024 -0.501605,0.11024 -0.2949,0 -0.501606,-0.11024 -0.203949,-0.113 -0.333485,-0.30041 -0.126779,-0.19017 -0.184657,-0.43271 -0.05788,-0.24253 -0.05788,-0.50436 0,-0.26183 0.05788,-0.50436 0.05788,-0.24254 0.184657,-0.42995 0.129536,-0.19017 0.333485,-0.30041 0.206706,-0.113 0.501606,-0.113 z"
         style="fill:#aa0000"
         id="path845" />
      <path
         d="m 55.626859,105.03062 q -0.391363,0 -0.664214,0.16261 -0.270096,0.15985 -0.427192,0.42995 -0.01654,-0.23151 -0.06615,-0.46578 -0.01654,-0.0661 -0.05512,-0.0965 -0.03583,-0.0303 -0.07993,-0.0303 -0.04685,0 -0.08819,0.0358 -0.03859,0.0358 -0.03859,0.10198 0,0.022 0.0055,0.0441 0.05237,0.25081 0.06339,0.49885 0.01103,0.24805 0.01103,0.50161 v 3.37895 q 0,0.0551 0.03858,0.0937 0.04134,0.0386 0.09371,0.0386 0.05512,0 0.09371,-0.0386 0.03859,-0.0386 0.03859,-0.0937 v -1.91823 q 0.162608,0.26458 0.429947,0.41892 0.270096,0.15159 0.644922,0.15159 0.352777,0 0.60358,-0.12954 0.253559,-0.13229 0.416167,-0.35553 0.165365,-0.226 0.242535,-0.51539 0.07717,-0.28939 0.07717,-0.60634 0,-0.31694 -0.07717,-0.60633 -0.07717,-0.28939 -0.242535,-0.51263 -0.162608,-0.226 -0.416167,-0.35554 -0.250803,-0.13229 -0.60358,-0.13229 z m 0,0.26183 q 0.2949,0 0.498849,0.113 0.206706,0.11024 0.333485,0.30041 0.126779,0.18741 0.184657,0.42995 0.06063,0.23978 0.06063,0.5016 0,0.26183 -0.06063,0.50437 -0.05788,0.23977 -0.184657,0.42994 -0.126779,0.18742 -0.333485,0.30042 -0.203949,0.11024 -0.498849,0.11024 -0.2949,0 -0.501606,-0.113 -0.203949,-0.113 -0.330729,-0.30317 -0.126779,-0.19017 -0.184657,-0.42995 -0.05788,-0.24253 -0.05788,-0.49885 0,-0.26182 0.05788,-0.5016 0.05788,-0.24254 0.184657,-0.42995 0.12678,-0.19017 0.330729,-0.30041 0.206706,-0.113 0.501606,-0.113 z"
         style="fill:#aa0000"
         id="path847" />
      <path
         d="m 58.961706,106.72285 h -1.085893 v -0.0827 q 0,-0.26183 0.05788,-0.50161 0.06063,-0.24253 0.187414,-0.4327 0.129535,-0.19017 0.333485,-0.30041 0.206705,-0.113 0.501605,-0.113 0.259071,0 0.485069,0.0965 0.225998,0.0965 0.366558,0.28663 0.14056,0.18742 0.14056,0.46854 0,0.20119 -0.09371,0.31695 -0.09371,0.11575 -0.242534,0.17363 -0.146072,0.0579 -0.319705,0.0744 -0.170876,0.0138 -0.330729,0.0138 z m -0.0055,1.52687 q 0.179145,0 0.350021,-0.0276 0.173633,-0.0303 0.341754,-0.0992 0.05236,-0.022 0.07441,-0.0579 0.0248,-0.0386 0.0248,-0.0744 0,-0.0496 -0.03583,-0.0854 -0.03307,-0.0386 -0.09371,-0.0386 -0.03307,0 -0.07717,0.0165 -0.272852,0.10473 -0.584288,0.10473 -0.327973,0 -0.548459,-0.13505 -0.21773,-0.13504 -0.341753,-0.36104 -0.121267,-0.226 -0.162608,-0.50712 h 1.058332 q 0.220486,0 0.440972,-0.0303 0.220486,-0.0331 0.402387,-0.12126 0.181901,-0.091 0.292144,-0.25632 0.112999,-0.16536 0.112999,-0.4327 0,-0.35278 -0.176389,-0.60083 -0.173633,-0.2508 -0.460264,-0.38034 -0.283876,-0.13229 -0.617361,-0.13229 -0.352777,0 -0.609092,0.13229 -0.253559,0.12954 -0.416168,0.35554 -0.162608,0.226 -0.239778,0.51538 -0.07717,0.28939 -0.07717,0.60634 0,0.3197 0.07717,0.60909 0.07717,0.28939 0.239778,0.51539 0.162609,0.22324 0.416168,0.35553 0.256315,0.12954 0.609092,0.12954 z"
         style="fill:#aa0000"
         id="path849" />
      <path
         d="m 61.083883,108.24972 q 0.05512,0 0.09371,-0.0386 0.04134,-0.0413 0.04134,-0.0937 v -1.49655 q 0,-0.26183 0.06063,-0.49885 0.06339,-0.23978 0.192925,-0.42444 0.129536,-0.18741 0.336241,-0.2949 0.206706,-0.11024 0.496094,-0.11024 0.07717,0 0.115755,-0.0413 0.03859,-0.0413 0.03859,-0.0909 0,-0.0469 -0.03859,-0.0882 -0.03858,-0.0413 -0.115755,-0.0413 -0.391363,0 -0.66697,0.16261 -0.275608,0.15985 -0.438216,0.4327 -0.01378,-0.23151 -0.06339,-0.46853 -0.01654,-0.0661 -0.05512,-0.0965 -0.03859,-0.0303 -0.07993,-0.0303 -0.04961,0 -0.09095,0.0358 -0.03858,0.0331 -0.03858,0.10198 0,0.0138 0.0055,0.0441 0.05512,0.27286 0.06615,0.54019 0.01102,0.26459 0.01102,0.54019 v 1.82453 q 0,0.0524 0.03859,0.0937 0.03858,0.0386 0.09095,0.0386 z"
         style="fill:#aa0000"
         id="path851" />
      <path
         d="m 65.901501,105.03062 q -0.350022,0 -0.606336,0.13229 -0.253559,0.12954 -0.416168,0.35554 -0.162608,0.22324 -0.239778,0.51538 -0.07717,0.28939 -0.07717,0.60634 0,0.31695 0.07717,0.60909 0.07717,0.28939 0.239778,0.51539 0.162609,0.22324 0.416168,0.35553 0.253558,0.12954 0.606336,0.12954 0.352777,0 0.606336,-0.12954 0.256315,-0.13229 0.418924,-0.35553 0.162608,-0.226 0.239778,-0.51539 0.07717,-0.29214 0.07717,-0.60909 0,-0.31695 -0.07717,-0.60634 -0.07717,-0.29214 -0.242535,-0.51538 -0.162608,-0.226 -0.416167,-0.35554 -0.253559,-0.13229 -0.606336,-0.13229 z m 0,0.26183 q 0.2949,0 0.501605,0.113 0.206706,0.11024 0.333485,0.30041 0.12678,0.18741 0.184657,0.42995 0.06063,0.24253 0.06063,0.50436 0,0.26183 -0.06063,0.50436 -0.05788,0.24254 -0.184657,0.43271 -0.126779,0.18741 -0.333485,0.30041 -0.206705,0.11024 -0.501605,0.11024 -0.2949,0 -0.501606,-0.11024 -0.203949,-0.113 -0.333485,-0.30041 -0.126779,-0.19017 -0.184657,-0.43271 -0.05788,-0.24253 -0.05788,-0.50436 0,-0.26183 0.05788,-0.50436 0.05788,-0.24254 0.184657,-0.42995 0.129536,-0.19017 0.333485,-0.30041 0.206706,-0.113 0.501606,-0.113 z"
         style="fill:#d4aa00"
         id="path853" />
      <path
         d="m 68.029191,108.24972 q 0.0441,0 0.07993,-0.0303 0.03858,-0.0303 0.05512,-0.0965 0.06063,-0.28939 0.07166,-0.57051 0.01378,-0.28112 0.01378,-0.57326 v -0.95636 h 0.89848 q 0.112999,0 0.129536,-0.13505 0,-0.0496 -0.03858,-0.0882 -0.03583,-0.0413 -0.09095,-0.0413 h -0.89848 v -0.26459 q 0,-0.26182 0.06063,-0.49885 0.06063,-0.23977 0.19017,-0.42443 0.132291,-0.18741 0.336241,-0.2949 0.203949,-0.10749 0.493337,-0.10749 0.05512,0 0.09371,-0.0358 0.04134,-0.0386 0.04134,-0.0937 0,-0.0551 -0.04134,-0.0909 -0.03859,-0.0386 -0.09371,-0.0386 -0.347265,0 -0.600824,0.12954 -0.250803,0.12678 -0.416167,0.35002 -0.165365,0.22048 -0.245291,0.50712 -0.07993,0.28387 -0.07993,0.59806 v 1.48553 q 0,0.2756 -0.01102,0.5457 -0.01102,0.2701 -0.06615,0.54019 -0.0055,0.0248 -0.0055,0.0468 0,0.0662 0.03858,0.10198 0.03858,0.0358 0.08544,0.0358 z"
         style="fill:#d4aa00"
         id="path855" />
    </g>
  </g>
</svg>
