<?xml version="1.0" encoding="UTF-8" standalone="no"?>
<!-- Generator: Adobe Illustrator 19.0.0, SVG Export Plug-In . SVG Version: 6.00 Build 0)  -->

<svg
   version="1.1"
   id="Layer_1"
   x="0px"
   y="0px"
   viewBox="0 0 512 512"
   style="enable-background:new 0 0 512 512;"
   xml:space="preserve"
   sodipodi:docname="qrcode.svg"
   inkscape:version="1.2 (dc2aedaf03, 2022-05-15)"
   xmlns:inkscape="http://www.inkscape.org/namespaces/inkscape"
   xmlns:sodipodi="http://sodipodi.sourceforge.net/DTD/sodipodi-0.dtd"
   xmlns="http://www.w3.org/2000/svg"
   xmlns:svg="http://www.w3.org/2000/svg"><defs
   id="defs203" /><sodipodi:namedview
   id="namedview201"
   pagecolor="#ffffff"
   bordercolor="#999999"
   borderopacity="1"
   inkscape:showpageshadow="0"
   inkscape:pageopacity="0"
   inkscape:pagecheckerboard="0"
   inkscape:deskcolor="#d1d1d1"
   showgrid="false"
   inkscape:zoom="0.84375"
   inkscape:cx="-64.592593"
   inkscape:cy="254.22222"
   inkscape:window-width="1920"
   inkscape:window-height="1051"
   inkscape:window-x="-9"
   inkscape:window-y="-9"
   inkscape:window-maximized="1"
   inkscape:current-layer="Layer_1" />
<g
   id="g6"
   style="fill:#ffffff">
	<g
   id="g4"
   style="fill:#ffffff">
		<rect
   x="51.2"
   y="51.2"
   width="51.2"
   height="51.2"
   id="rect2"
   style="fill:#ffffff" />
	</g>
</g>
<g
   id="g12"
   transform="translate(1.1851852)"
   style="fill:#ffffff">
	<g
   id="g10"
   style="fill:#ffffff">
		<path
   d="m 358.4,0 v 25.6 h -25.6 v 25.6 h 25.6 V 153.6 H 384 v 25.6 h -25.6 v 25.6 h 25.6 25.6 v -51.2 h 76.8 v 25.6 H 512 V 153.6 0 Z m 128,128 H 384 V 25.6 h 102.4 z"
   id="path8"
   style="fill:#ffffff" />
	</g>
</g>
<g
   id="g18"
   style="fill:#ffffff">
	<g
   id="g16"
   style="fill:#ffffff">
		<rect
   x="409.6"
   y="51.2"
   width="51.2"
   height="51.2"
   id="rect14"
   style="fill:#ffffff" />
	</g>
</g>
<g
   id="g24"
   style="fill:#ffffff">
	<g
   id="g22"
   style="fill:#ffffff">
		<rect
   x="51.2"
   y="409.6"
   width="51.2"
   height="51.2"
   id="rect20"
   style="fill:#ffffff" />
	</g>
</g>
<g
   id="g30"
   style="fill:#ffffff">
	<g
   id="g28"
   style="fill:#ffffff">
		<rect
   x="358.4"
   y="358.4"
   width="25.6"
   height="25.6"
   id="rect26"
   style="fill:#ffffff" />
	</g>
</g>
<g
   id="g36"
   style="fill:#ffffff">
	<g
   id="g34"
   style="fill:#ffffff">
		<rect
   x="230.4"
   y="486.4"
   width="25.6"
   height="25.6"
   id="rect32"
   style="fill:#ffffff" />
	</g>
</g>
<g
   id="g42"
   style="fill:#ffffff">
	<g
   id="g40"
   style="fill:#ffffff">
		<rect
   x="256"
   y="384"
   width="25.6"
   height="25.6"
   id="rect38"
   style="fill:#ffffff" />
	</g>
</g>
<g
   id="g48"
   style="fill:#ffffff">
	<g
   id="g46"
   style="fill:#ffffff">
		<rect
   x="256"
   y="435.2"
   width="25.6"
   height="25.6"
   id="rect44"
   style="fill:#ffffff" />
	</g>
</g>
<g
   id="g54"
   style="fill:#ffffff">
	<g
   id="g52"
   style="fill:#ffffff">
		<rect
   x="486.4"
   y="307.2"
   width="25.6"
   height="25.6"
   id="rect50"
   style="fill:#ffffff" />
	</g>
</g>
<g
   id="g60"
   style="fill:#ffffff">
	<g
   id="g58"
   style="fill:#ffffff">
		<rect
   y="307.2"
   width="25.6"
   height="25.6"
   id="rect56"
   style="fill:#ffffff" />
	</g>
</g>
<g
   id="g66"
   style="fill:#ffffff">
	<g
   id="g64"
   style="fill:#ffffff">
		<rect
   y="179.2"
   width="25.6"
   height="25.6"
   id="rect62"
   style="fill:#ffffff" />
	</g>
</g>
<g
   id="g72"
   style="fill:#ffffff">
	<g
   id="g70"
   style="fill:#ffffff">
		<polygon
   points="281.6,25.6 281.6,51.2 230.4,51.2 230.4,76.8 307.2,76.8 307.2,51.2 307.2,25.6   "
   id="polygon68"
   style="fill:#ffffff" />
	</g>
</g>
<g
   id="g78"
   style="fill:#ffffff">
	<g
   id="g76"
   style="fill:#ffffff">
		<path
   d="M486.4,204.8v25.6h-51.2V256h-76.8v-25.6h-25.6V256h-51.2v25.6h76.8v25.6h-51.2h-25.6v-25.6H256v25.6h-25.6v-25.6h-25.6    v25.6h-25.6v25.6h51.2v25.6H256v-25.6h51.2v25.6h-25.6V384h25.6v51.2h25.6v25.6h25.6v-25.6h76.8V384h25.6v-25.6h-25.6v-51.2H384    v-25.6h51.2v25.6h25.6v-25.6h25.6V256H512v-25.6v-25.6H486.4z M409.6,332.8v76.8h-76.8v-76.8H409.6z"
   id="path74"
   style="fill:#ffffff" />
	</g>
</g>
<g
   id="g84"
   style="fill:#ffffff">
	<g
   id="g82"
   style="fill:#ffffff">
		<polygon
   points="332.8,153.6 307.2,153.6 307.2,179.2 281.6,179.2 281.6,204.8 281.6,230.4 307.2,230.4 307.2,204.8 332.8,204.8     332.8,179.2 358.4,179.2 358.4,153.6   "
   id="polygon80"
   style="fill:#ffffff" />
	</g>
</g>
<g
   id="g90"
   style="fill:#ffffff">
	<g
   id="g88"
   style="fill:#ffffff">
		<rect
   x="281.6"
   y="486.4"
   width="51.2"
   height="25.6"
   id="rect86"
   style="fill:#ffffff" />
	</g>
</g>
<g
   id="g96"
   style="fill:#ffffff">
	<g
   id="g94"
   style="fill:#ffffff">
		<rect
   x="204.8"
   y="25.6"
   width="25.6"
   height="25.6"
   id="rect92"
   style="fill:#ffffff" />
	</g>
</g>
<g
   id="g102"
   style="fill:#ffffff">
	<g
   id="g100"
   style="fill:#ffffff">
		<rect
   x="409.6"
   y="204.8"
   width="25.6"
   height="25.6"
   id="rect98"
   style="fill:#ffffff" />
	</g>
</g>
<g
   id="g108"
   style="fill:#ffffff">
	<g
   id="g106"
   style="fill:#ffffff">
		<rect
   x="435.2"
   y="179.2"
   width="25.6"
   height="25.6"
   id="rect104"
   style="fill:#ffffff" />
	</g>
</g>
<g
   id="g114"
   style="fill:#ffffff">
	<g
   id="g112"
   style="fill:#ffffff">
		<rect
   x="102.4"
   y="307.2"
   width="25.6"
   height="25.6"
   id="rect110"
   style="fill:#ffffff" />
	</g>
</g>
<g
   id="g120"
   style="fill:#ffffff">
	<g
   id="g118"
   style="fill:#ffffff">
		<path
   d="M153.6,486.4V384h25.6v-25.6v-25.6h-25.6v25.6H76.8v-25.6H51.2H25.6v25.6H0V512h153.6h51.2v-25.6H153.6z M128,486.4H25.6    V384H128V486.4z"
   id="path116"
   style="fill:#ffffff" />
	</g>
</g>
<g
   id="g126"
   style="fill:#ffffff">
	<g
   id="g124"
   style="fill:#ffffff">
		<rect
   x="153.6"
   y="153.6"
   width="25.6"
   height="25.6"
   id="rect122"
   style="fill:#ffffff" />
	</g>
</g>
<g
   id="g132"
   style="fill:#ffffff">
	<g
   id="g130"
   style="fill:#ffffff">
		<path
   d="M179.2,0h-25.6H0v153.6h25.6v25.6h25.6v-25.6h25.6v25.6h25.6v-25.6h51.2v-51.2h25.6V76.8h-25.6V25.6h25.6h25.6V0H179.2z     M128,128H25.6V25.6H128V128z"
   id="path128"
   style="fill:#ffffff" />
	</g>
</g>
<g
   id="g138"
   style="fill:#ffffff">
	<g
   id="g136"
   style="fill:#ffffff">
		<rect
   x="307.2"
   y="76.8"
   width="25.6"
   height="25.6"
   id="rect134"
   style="fill:#ffffff" />
	</g>
</g>
<g
   id="g144"
   style="fill:#ffffff">
	<g
   id="g142"
   style="fill:#ffffff">
		<rect
   x="256"
   width="25.6"
   height="25.6"
   id="rect140"
   style="fill:#ffffff" />
	</g>
</g>
<g
   id="g150"
   style="fill:#ffffff">
	<g
   id="g148"
   style="fill:#ffffff">
		<path
   d="M307.2,153.6V128h-25.6v-25.6H256V128h-51.2v-25.6h-25.6V128v25.6h25.6v51.2H128v-25.6h-25.6v25.6H25.6v25.6h51.2V256H0    v25.6h76.8v25.6h25.6v-25.6H128v25.6h25.6v-25.6h51.2V256h-25.6v-25.6h25.6h25.6V256H256h25.6v-25.6H256v-25.6h-25.6v-51.2H307.2z     M153.6,256h-51.2v-25.6h51.2V256z"
   id="path146"
   style="fill:#ffffff" />
	</g>
</g>
<g
   id="g156"
   style="fill:#ffffff">
	<g
   id="g154"
   style="fill:#ffffff">
		<polygon
   points="230.4,409.6 230.4,384 230.4,358.4 204.8,358.4 204.8,384 179.2,384 179.2,409.6 204.8,409.6 204.8,435.2     179.2,435.2 179.2,460.8 230.4,460.8 230.4,435.2 256,435.2 256,409.6   "
   id="polygon152"
   style="fill:#ffffff" />
	</g>
</g>
<g
   id="g162"
   style="fill:#ffffff">
	<g
   id="g160"
   style="fill:#ffffff">
		<polygon
   points="460.8,460.8 460.8,435.2 435.2,435.2 435.2,460.8 358.4,460.8 358.4,486.4 409.6,486.4 409.6,512 435.2,512     435.2,486.4 486.4,486.4 486.4,512 512,512 512,486.4 512,460.8   "
   id="polygon158"
   style="fill:#ffffff" />
	</g>
</g>
<g
   id="g168"
   style="fill:#ffffff">
	<g
   id="g166"
   style="fill:#ffffff">
		<polygon
   points="486.4,358.4 486.4,384 460.8,384 460.8,409.6 512,409.6 512,384 512,358.4   "
   id="polygon164"
   style="fill:#ffffff" />
	</g>
</g>
<g
   id="g170">
</g>
<g
   id="g172">
</g>
<g
   id="g174">
</g>
<g
   id="g176">
</g>
<g
   id="g178">
</g>
<g
   id="g180">
</g>
<g
   id="g182">
</g>
<g
   id="g184">
</g>
<g
   id="g186">
</g>
<g
   id="g188">
</g>
<g
   id="g190">
</g>
<g
   id="g192">
</g>
<g
   id="g194">
</g>
<g
   id="g196">
</g>
<g
   id="g198">
</g>
</svg>
